<svg width="20" height="20" viewBox="0 0 20 20" fill="none" xmlns="http://www.w3.org/2000/svg">
<path d="M18.4174 9.08584H11.353V2.0214C11.353 1.70913 11.229 1.40966 11.0082 1.18885C10.7873 0.968042 10.4879 0.843994 10.1756 0.843994C9.86333 0.843994 9.56385 0.968042 9.34305 1.18885C9.12224 1.40966 8.99819 1.70913 8.99819 2.0214V9.08584H1.93375C1.62149 9.08584 1.32201 9.20989 1.1012 9.43069C0.880396 9.6515 0.756348 9.95098 0.756348 10.2632C0.756348 10.5755 0.880396 10.875 1.1012 11.0958C1.32201 11.3166 1.62149 11.4407 1.93375 11.4407H8.99819V18.5051C8.99819 18.8174 9.12224 19.1168 9.34305 19.3376C9.56385 19.5584 9.86333 19.6825 10.1756 19.6825C10.4879 19.6825 10.7873 19.5584 11.0082 19.3376C11.229 19.1168 11.353 18.8174 11.353 18.5051V11.4407H18.4174C18.7297 11.4407 19.0292 11.3166 19.25 11.0958C19.4708 10.875 19.5948 10.5755 19.5948 10.2632C19.5948 9.95098 19.4708 9.6515 19.25 9.43069C19.0292 9.20989 18.7297 9.08584 18.4174 9.08584Z" fill="white"/>
</svg>
