<svg width="41" height="42" viewBox="0 0 41 42" fill="none" xmlns="http://www.w3.org/2000/svg">
<path d="M15.2344 13.1149L28.2035 1.27136C29.0687 0.48083 30.4642 0.900198 30.751 2.03538L37.0222 26.7468C37.309 27.8747 36.2968 28.9039 35.1664 28.6387L18.0687 24.6282L15.2344 13.1173V13.1149Z" fill="white"/>
<path d="M6.11653 15.8092L13.1358 14.0643L15.8651 25.0435L8.8458 26.7883C5.81449 27.5419 2.74455 25.6924 1.99159 22.6634C1.23863 19.6344 3.08756 16.5622 6.11653 15.8092Z" fill="white"/>
<path d="M10.8168 28.68L15.8329 27.3144L18.5396 37.2559C18.9163 38.6396 18.0995 40.071 16.7135 40.4483C15.3298 40.825 13.8985 40.0082 13.5211 38.6222L10.8145 28.6807L10.8168 28.68Z" fill="white"/>
<path d="M40.7501 13.7757C40.7501 15.9738 39.2751 17.8248 37.2602 18.3911L34.9199 9.09033C35.2525 9.01561 35.5972 8.97705 35.9515 8.97705C38.6026 8.97705 40.7501 11.1269 40.7501 13.7757Z" fill="white"/>
</svg>
