<svg width="42" height="43" viewBox="0 0 42 43" fill="none" xmlns="http://www.w3.org/2000/svg">
<path d="M15.2334 14.1149L28.2025 2.27136C29.0677 1.48083 30.4632 1.9002 30.75 3.03538L37.0213 27.7468C37.3081 28.8747 36.2958 29.9039 35.1654 29.6387L18.0677 25.6282L15.2334 14.1173V14.1149Z" stroke="#8C8C8C" stroke-width="2" stroke-miterlimit="10" stroke-linejoin="round"/>
<path d="M6.11604 16.8092L13.1353 15.0643L15.8646 26.0435L8.84531 27.7883C5.814 28.5419 2.74406 26.6924 1.9911 23.6634C1.23814 20.6344 3.08707 17.5622 6.11604 16.8092Z" stroke="#8C8C8C" stroke-width="2" stroke-miterlimit="10" stroke-linejoin="round"/>
<path d="M10.8168 29.68L15.8329 28.3144L18.5396 38.2559C18.9163 39.6396 18.0995 41.071 16.7135 41.4483C15.3298 41.825 13.8985 41.0082 13.5211 39.6222L10.8145 29.6807L10.8168 29.68Z" stroke="#8C8C8C" stroke-width="2" stroke-miterlimit="10" stroke-linejoin="round"/>
<path d="M40.7496 14.7757C40.7496 16.9738 39.2746 18.8248 37.2597 19.3911L34.9194 10.0903C35.252 10.0156 35.5967 9.97705 35.951 9.97705C38.6022 9.97705 40.7496 12.1269 40.7496 14.7757Z" stroke="#8C8C8C" stroke-width="2" stroke-miterlimit="10" stroke-linejoin="round"/>
</svg>
