<svg width="32" height="31" viewBox="0 0 32 31" fill="none" xmlns="http://www.w3.org/2000/svg">
<path d="M3.23633 25.5361V2.60717C3.23633 1.77277 3.9129 1.09619 4.7473 1.09619H23.8333C24.6677 1.09619 25.3443 1.77277 25.3443 2.60717V13.7908" stroke="#0F0F0F" stroke-width="0.99" stroke-miterlimit="10" stroke-linecap="round" stroke-linejoin="round"/>
<path d="M25.3443 24.572V27.5083C25.3443 28.804 24.2934 29.8549 22.9977 29.8549C21.7021 29.8549 20.6511 28.804 20.6511 27.5083V25.5361H0.731934V27.3933C0.731934 28.7526 1.83427 29.8549 3.19354 29.8549H23.0271" stroke="#0F0F0F" stroke-width="0.93" stroke-miterlimit="10" stroke-linecap="round" stroke-linejoin="round"/>
<path d="M6.2583 5.88852L7.80231 7.43253L10.6848 4.55005" stroke="#0F0F0F" stroke-width="0.93" stroke-miterlimit="10" stroke-linecap="round" stroke-linejoin="round"/>
<path d="M6.2583 12.0316L7.80231 13.5756L10.6848 10.6931" stroke="#0F0F0F" stroke-width="0.93" stroke-miterlimit="10" stroke-linecap="round" stroke-linejoin="round"/>
<path d="M6.2583 18.1744L7.80231 19.7172L10.6848 16.8347" stroke="#0F0F0F" stroke-width="0.93" stroke-miterlimit="10" stroke-linecap="round" stroke-linejoin="round"/>
<path d="M13.3188 6.08301H21.5442" stroke="#0F0F0F" stroke-width="0.93" stroke-miterlimit="10" stroke-linecap="round" stroke-linejoin="round"/>
<path d="M13.3188 11.9348H21.5442" stroke="#0F0F0F" stroke-width="0.93" stroke-miterlimit="10" stroke-linecap="round" stroke-linejoin="round"/>
<path d="M13.3188 17.7854H20.1409" stroke="#0F0F0F" stroke-width="0.93" stroke-miterlimit="10" stroke-linecap="round" stroke-linejoin="round"/>
<path d="M30.872 19.1813C30.872 22.158 28.4581 24.5719 25.4814 24.5719C22.5047 24.5719 20.0908 22.158 20.0908 19.1813C20.0908 16.2047 22.5047 13.7908 25.4814 13.7908C27.4793 13.7908 29.2227 14.8772 30.1538 16.4922" stroke="#0F0F0F" stroke-width="0.98" stroke-miterlimit="10" stroke-linecap="round" stroke-linejoin="round"/>
<path d="M27.8315 16.5119H30.1647V14.158" stroke="#0F0F0F" stroke-width="0.98" stroke-miterlimit="10" stroke-linecap="round" stroke-linejoin="round"/>
<path d="M25.4814 16.425V19.1815L27.417 21.013" stroke="#0F0F0F" stroke-width="0.98" stroke-miterlimit="10" stroke-linecap="round" stroke-linejoin="round"/>
</svg>
