<svg width="20" height="21" viewBox="0 0 20 21" fill="none" xmlns="http://www.w3.org/2000/svg">
<path d="M18.7115 7.70801H1.65471C1.19399 7.70801 0.820312 8.08169 0.820312 8.5424V16.0159C0.820312 18.3119 2.68114 20.1728 4.97714 20.1728H15.3891C17.6851 20.1728 19.5459 18.3119 19.5459 16.0159V8.5424C19.5459 8.08169 19.1722 7.70801 18.7115 7.70801ZM6.40753 15.9781C5.78221 15.9781 5.27514 15.471 5.27514 14.8448C5.27514 14.2185 5.78221 13.7114 6.40753 13.7114C7.03285 13.7114 7.54086 14.2195 7.54086 14.8448C7.54086 15.4701 7.03379 15.9781 6.40753 15.9781ZM6.40753 12.2262C5.78221 12.2262 5.27514 11.7191 5.27514 11.0938C5.27514 10.4685 5.78221 9.96048 6.40753 9.96048C7.03285 9.96048 7.54086 10.4675 7.54086 11.0938C7.54086 11.7201 7.03379 12.2262 6.40753 12.2262ZM10.2304 15.9781C9.60414 15.9781 9.09707 15.471 9.09707 14.8448C9.09707 14.2185 9.60414 13.7114 10.2304 13.7114C10.8567 13.7114 11.3637 14.2195 11.3637 14.8448C11.3637 15.4701 10.8557 15.9781 10.2304 15.9781ZM10.2304 12.2262C9.60414 12.2262 9.09707 11.7191 9.09707 11.0938C9.09707 10.4685 9.60414 9.96048 10.2304 9.96048C10.8567 9.96048 11.3637 10.4675 11.3637 11.0938C11.3637 11.7201 10.8557 12.2262 10.2304 12.2262ZM14.0523 15.9781C13.427 15.9781 12.92 15.471 12.92 14.8448C12.92 14.2185 13.427 13.7114 14.0523 13.7114C14.6777 13.7114 15.1857 14.2195 15.1857 14.8448C15.1857 15.4701 14.6786 15.9781 14.0523 15.9781ZM14.0523 12.2262C13.427 12.2262 12.92 11.7191 12.92 11.0938C12.92 10.4685 13.427 9.96048 14.0523 9.96048C14.6777 9.96048 15.1857 10.4675 15.1857 11.0938C15.1857 11.7201 14.6786 12.2262 14.0523 12.2262Z" fill="#A0A0A0"/>
<path d="M4.57563 1.65332H15.8834C17.9042 1.65332 19.5455 3.29372 19.5455 5.31536V5.41564C19.5455 5.86973 19.1766 6.23962 18.7215 6.23962H1.73756C1.28347 6.23962 0.913574 5.87067 0.913574 5.41564V5.31536C0.91452 3.29372 2.55492 1.65332 4.57563 1.65332Z" fill="#A0A0A0"/>
<path d="M6.37325 0.172852C6.78855 0.172852 7.12533 0.509634 7.12533 0.923991V3.13295H5.62305V0.923991C5.6221 0.509634 5.95889 0.172852 6.37325 0.172852Z" fill="#A0A0A0"/>
<path d="M13.9587 0.172852C14.373 0.172852 14.7098 0.509634 14.7098 0.923991V3.13295H13.2075V0.923991C13.2075 0.509634 13.5443 0.172852 13.9587 0.172852Z" fill="#A0A0A0"/>
</svg>
