<svg width="32" height="31" viewBox="0 0 32 31" fill="none" xmlns="http://www.w3.org/2000/svg">
<path d="M0.598145 30.1118H30.7378" stroke="#0F0F0F" stroke-miterlimit="10" stroke-linecap="round" stroke-linejoin="round"/>
<path d="M6.40104 18.1975H2.50996C2.23128 18.1975 2.00537 18.4234 2.00537 18.7021V26.5113C2.00537 26.79 2.23128 27.0159 2.50996 27.0159H6.40104C6.67971 27.0159 6.90562 26.79 6.90562 26.5113V18.7021C6.90562 18.4234 6.67971 18.1975 6.40104 18.1975Z" stroke="#0F0F0F" stroke-miterlimit="10" stroke-linecap="round" stroke-linejoin="round"/>
<path d="M22.147 12.5398H18.5404C18.1831 12.5398 17.8936 12.8294 17.8936 13.1866V26.3691C17.8936 26.7263 18.1831 27.0159 18.5404 27.0159H22.147C22.5042 27.0159 22.7938 26.7263 22.7938 26.3691V13.1866C22.7938 12.8294 22.5042 12.5398 22.147 12.5398Z" stroke="#0F0F0F" stroke-miterlimit="10" stroke-linecap="round" stroke-linejoin="round"/>
<path d="M14.0867 6.80273H10.7149C10.2928 6.80273 9.95068 7.14489 9.95068 7.56695V26.2514C9.95068 26.6734 10.2928 27.0156 10.7149 27.0156H14.0867C14.5088 27.0156 14.8509 26.6734 14.8509 26.2514V7.56695C14.8509 7.14489 14.5088 6.80273 14.0867 6.80273Z" stroke="#0F0F0F" stroke-miterlimit="10" stroke-linecap="round" stroke-linejoin="round"/>
<path d="M29.8685 0.839355H26.7066C26.2266 0.839355 25.8374 1.22851 25.8374 1.70855V26.1455C25.8374 26.6255 26.2266 27.0147 26.7066 27.0147H29.8685C30.3485 27.0147 30.7377 26.6255 30.7377 26.1455V1.70855C30.7377 1.22851 30.3485 0.839355 29.8685 0.839355Z" stroke="#0F0F0F" stroke-miterlimit="10" stroke-linecap="round" stroke-linejoin="round"/>
</svg>
