<svg width="24" height="24" viewBox="0 0 24 24" fill="none" xmlns="http://www.w3.org/2000/svg">
<path d="M12.4232 23.1468H3.40509C2.08133 23.1468 1.00928 22.0736 1.00928 20.751V3.71027C1.00928 2.38765 2.08247 1.31445 3.40509 1.31445H20.4458C21.7696 1.31445 22.8416 2.38765 22.8416 3.71027V12.6746" stroke="#0F0F0F" stroke-width="1.4" stroke-miterlimit="10" stroke-linecap="round" stroke-linejoin="round"/>
<path d="M5.85449 7.45264H18.4537" stroke="#0F0F0F" stroke-width="1.4" stroke-miterlimit="10" stroke-linecap="round" stroke-linejoin="round"/>
<path d="M5.85449 12.4595H11.0775" stroke="#0F0F0F" stroke-width="1.4" stroke-miterlimit="10" stroke-linecap="round" stroke-linejoin="round"/>
<path d="M16.946 20.9672C18.9832 20.9672 20.6347 19.3157 20.6347 17.2785C20.6347 15.2413 18.9832 13.5898 16.946 13.5898C14.9088 13.5898 13.2573 15.2413 13.2573 17.2785C13.2573 19.3157 14.9088 20.9672 16.946 20.9672Z" stroke="#0F0F0F" stroke-width="1.4" stroke-miterlimit="10" stroke-linecap="round" stroke-linejoin="round"/>
<path d="M19.876 19.5186L23.2992 22.3663" stroke="#0F0F0F" stroke-width="1.4" stroke-miterlimit="10" stroke-linecap="round" stroke-linejoin="round"/>
</svg>
