<svg width="26" height="26" viewBox="0 0 26 26" fill="none" xmlns="http://www.w3.org/2000/svg">
<path d="M23.0985 16.517V21.9511C23.0985 23.6328 21.7356 24.9968 20.0538 24.9968H4.14814C2.46639 24.9968 1.10352 23.6328 1.10352 21.9511V6.92012C1.10352 5.23836 2.46639 3.87549 4.14814 3.87549H8.8505" stroke="white" stroke-width="2" stroke-miterlimit="10" stroke-linecap="round" stroke-linejoin="round"/>
<path d="M7.99753 17.0804L9.88895 11.8921L19.8288 1.91732C20.3475 1.39641 21.1895 1.39641 21.7093 1.91514L23.7798 3.98566C24.2985 4.50438 24.2985 5.34526 23.7798 5.86507L13.8214 15.8235L8.47148 17.5707C8.17116 17.669 7.88941 17.3774 7.99862 17.0815L7.99753 17.0804Z" stroke="white" stroke-width="2" stroke-miterlimit="10" stroke-linecap="round" stroke-linejoin="round"/>
<path d="M9.89307 11.8921L13.8244 15.8235" stroke="white" stroke-width="2" stroke-miterlimit="10" stroke-linecap="round" stroke-linejoin="round"/>
<path d="M17.459 4.32861L21.3904 8.25998" stroke="white" stroke-width="2" stroke-miterlimit="10" stroke-linecap="round" stroke-linejoin="round"/>
</svg>
