<svg width="34" height="34" viewBox="0 0 34 34" fill="none" xmlns="http://www.w3.org/2000/svg">
<path d="M30.7955 21.3154V28.4638C30.7955 30.6762 29.0026 32.4705 26.7903 32.4705H5.86652C3.65418 32.4705 1.86133 30.6762 1.86133 28.4638V8.69073C1.86133 6.4784 3.65418 4.68555 5.86652 4.68555H12.0524" stroke="#0F0F0F" stroke-width="2" stroke-miterlimit="10" stroke-linecap="round" stroke-linejoin="round"/>
<path d="M10.9305 22.0569L13.4187 15.2317L26.4945 2.11C27.1768 1.42475 28.2844 1.42475 28.9682 2.10713L31.692 4.83088C32.3744 5.51326 32.3744 6.61943 31.692 7.30324L18.5918 20.4034L11.554 22.7019C11.159 22.8312 10.7883 22.4477 10.932 22.0584L10.9305 22.0569Z" stroke="#0F0F0F" stroke-width="2" stroke-miterlimit="10" stroke-linecap="round" stroke-linejoin="round"/>
<path d="M13.4238 15.2314L18.5955 20.4031" stroke="#0F0F0F" stroke-width="2" stroke-miterlimit="10" stroke-linecap="round" stroke-linejoin="round"/>
<path d="M23.377 5.28223L28.5486 10.4539" stroke="#0F0F0F" stroke-width="2" stroke-miterlimit="10" stroke-linecap="round" stroke-linejoin="round"/>
</svg>
