<svg width="34" height="36" viewBox="0 0 34 36" fill="none" xmlns="http://www.w3.org/2000/svg">
<path d="M11.8253 5.97745C11.8253 5.49445 11.8123 5.05044 11.8283 4.60744C11.8563 3.79844 12.4153 3.23145 13.1643 3.23145C13.9133 3.23245 14.4702 3.79844 14.4992 4.60944C14.5152 5.05244 14.5023 5.49644 14.5023 5.94344C15.1163 6.11544 15.6993 6.24545 16.2603 6.43945C19.9603 7.72245 22.4933 11.2324 22.5263 15.1474C22.5483 17.8224 22.5443 20.4984 22.5233 23.1744C22.5173 23.8884 22.7403 24.3754 23.3723 24.7714C24.9063 25.7344 25.5473 27.5494 25.0423 29.2614C24.5443 30.9504 22.9943 32.1254 21.1903 32.1294C15.8393 32.1404 10.4883 32.1404 5.1373 32.1294C3.3363 32.1254 1.78225 30.9464 1.28525 29.2604C0.773251 27.5244 1.4373 25.7174 3.0123 24.7334C3.5993 24.3664 3.80732 23.8994 3.80332 23.2394C3.78732 20.7644 3.79734 18.2894 3.79734 15.8144C3.79634 10.6394 6.70029 7.05345 11.8253 5.97745Z" stroke="#0F0F0F" stroke-miterlimit="10" stroke-linecap="round" stroke-linejoin="round"/>
<path d="M9.15137 35.4072H17.1624" stroke="#0F0F0F" stroke-miterlimit="10" stroke-linecap="round" stroke-linejoin="round"/>
<path d="M25.9106 15.6067C30.2063 15.6067 33.6887 12.1244 33.6887 7.82873C33.6887 3.53308 30.2063 0.0507812 25.9106 0.0507812C21.615 0.0507812 18.1328 3.53308 18.1328 7.82873C18.1328 12.1244 21.615 15.6067 25.9106 15.6067Z" fill="#BD1E1E"/>
<path d="M25.5418 12.3644C25.0418 12.3644 24.5915 12.265 24.191 12.0661C23.7904 11.8673 23.4694 11.5945 23.2279 11.248C22.9864 10.9014 22.8543 10.5065 22.8316 10.0633H23.8543C23.8941 10.4582 24.0731 10.7849 24.3912 11.0434C24.7123 11.2991 25.0958 11.4269 25.5418 11.4269C25.8998 11.4269 26.218 11.3431 26.4964 11.1755C26.7776 11.0079 26.9978 10.7778 27.1569 10.4852C27.3188 10.1897 27.3998 9.85591 27.3998 9.48375C27.3998 9.10307 27.316 8.76358 27.1483 8.46529C26.9836 8.16415 26.7563 7.92694 26.4665 7.75364C26.1768 7.58034 25.8458 7.49228 25.4736 7.48944C25.2066 7.48659 24.9324 7.52779 24.6512 7.61301C24.3699 7.6954 24.1384 7.80194 23.9566 7.93262L22.968 7.8133L23.4964 3.51784H28.0305V4.45534H24.3827L24.0759 7.02921H24.127C24.306 6.88716 24.5305 6.76926 24.8003 6.67551C25.0702 6.58176 25.3515 6.53489 25.6441 6.53489C26.1782 6.53489 26.654 6.66273 27.0716 6.91841C27.4921 7.17125 27.8216 7.51784 28.0603 7.95819C28.3018 8.39853 28.4225 8.90137 28.4225 9.46671C28.4225 10.0235 28.2975 10.5207 28.0475 10.9582C27.8003 11.3928 27.4594 11.7366 27.0248 11.9894C26.5901 12.2394 26.0958 12.3644 25.5418 12.3644Z" fill="white"/>
</svg>
