<svg width="442" height="487" viewBox="0 0 442 487" fill="none" xmlns="http://www.w3.org/2000/svg">
<path d="M351.347 66.7305H91.6905C83.4986 66.7305 76.356 73.5909 75.7344 82.0515L60.3361 438.678C59.7146 447.141 80.1305 435.185 88.3224 435.185L322.428 460.511C330.62 460.511 337.763 453.651 338.384 445.19L365.053 82.0515C365.674 73.5883 359.539 66.7305 351.347 66.7305Z" fill="black"/>
<path d="M343.005 66.7305H83.3518C75.1599 66.7305 68.0172 73.5909 67.3957 82.0515L40.7269 445.19C40.1054 453.654 46.2413 460.511 54.4332 460.511H314.089C322.281 460.511 329.424 453.651 330.046 445.19L356.714 82.0515C357.336 73.5883 351.2 66.7305 343.008 66.7305H343.005Z" fill="white"/>
<path d="M69.9493 460.993C69.936 460.993 69.92 460.993 69.9068 460.993C69.5854 460.969 69.341 460.687 69.3649 460.366L97.4414 91.0042C97.4627 90.6985 97.7177 90.4619 98.0258 90.4619H324.761C324.923 90.4619 325.079 90.531 325.191 90.648C325.302 90.7676 325.358 90.9271 325.345 91.0892L317.729 194.772C317.706 195.094 317.424 195.341 317.103 195.314C316.781 195.29 316.537 195.009 316.561 194.687L324.128 91.6341H98.5703L70.5336 460.453C70.5097 460.762 70.2547 460.995 69.9493 460.995V460.993Z" fill="black"/>
<path d="M300.514 421.799H163.141C162.817 421.799 162.554 421.536 162.554 421.212C162.554 420.888 162.817 420.625 163.141 420.625H299.969L311.782 259.785C311.806 259.464 312.085 259.217 312.409 259.243C312.73 259.267 312.974 259.549 312.95 259.87L301.098 421.255C301.077 421.56 300.822 421.797 300.514 421.797V421.799Z" fill="black"/>
<path d="M292.915 152.419H120.944C120.782 152.419 120.625 152.35 120.513 152.233C120.402 152.113 120.346 151.954 120.359 151.792L121.111 141.553C121.135 141.247 121.387 141.011 121.695 141.011H293.664C293.826 141.011 293.982 141.08 294.094 141.197C294.205 141.316 294.261 141.476 294.248 141.638L293.496 151.877C293.475 152.183 293.22 152.419 292.912 152.419H292.915ZM121.576 151.247H292.37L293.037 142.18H122.24L121.573 151.247H121.576Z" fill="black"/>
<path d="M246.518 172.572H119.464C119.302 172.572 119.145 172.503 119.034 172.386C118.922 172.267 118.867 172.107 118.88 171.945L119.632 161.706C119.653 161.401 119.908 161.164 120.216 161.164H247.27C247.432 161.164 247.588 161.233 247.7 161.35C247.811 161.47 247.867 161.629 247.854 161.791L247.102 172.03C247.081 172.336 246.826 172.572 246.518 172.572ZM120.096 171.4H245.973L246.64 162.334H120.76L120.094 171.4H120.096Z" fill="black"/>
<path d="M288.909 206.949H116.941C116.779 206.949 116.622 206.88 116.51 206.763C116.399 206.644 116.343 206.484 116.356 206.322L117.108 196.083C117.129 195.778 117.384 195.541 117.693 195.541H289.661C289.823 195.541 289.979 195.61 290.091 195.727C290.203 195.847 290.258 196.006 290.245 196.168L289.493 206.407C289.469 206.713 289.217 206.949 288.909 206.949ZM117.57 205.777H288.364L289.031 196.711H118.237L117.57 205.777Z" fill="black"/>
<path d="M242.512 227.104H115.458C115.296 227.104 115.14 227.035 115.028 226.918C114.917 226.798 114.861 226.639 114.874 226.476L115.626 216.238C115.65 215.932 115.902 215.695 116.21 215.695H243.264C243.426 215.695 243.583 215.764 243.694 215.881C243.806 216.001 243.861 216.16 243.848 216.323L243.096 226.561C243.073 226.867 242.82 227.104 242.512 227.104ZM116.091 225.932H241.968L242.634 216.865H116.755L116.088 225.932H116.091Z" fill="black"/>
<path d="M284.903 261.479H112.935C112.773 261.479 112.616 261.41 112.505 261.293C112.393 261.173 112.337 261.014 112.351 260.851L113.102 250.613C113.126 250.307 113.379 250.07 113.687 250.07H285.655C285.817 250.07 285.974 250.139 286.085 250.256C286.197 250.376 286.252 250.535 286.239 250.698L285.487 260.936C285.466 261.242 285.211 261.479 284.903 261.479ZM113.564 260.306H284.359L285.025 251.24H114.231L113.564 260.306Z" fill="black"/>
<path d="M238.506 281.635H111.455C111.293 281.635 111.137 281.566 111.025 281.449C110.914 281.329 110.858 281.17 110.871 281.008L111.623 270.769C111.647 270.463 111.899 270.227 112.207 270.227H239.261C239.423 270.227 239.58 270.296 239.691 270.413C239.803 270.532 239.858 270.692 239.845 270.854L239.093 281.093C239.07 281.398 238.817 281.635 238.509 281.635H238.506ZM112.085 280.463H237.962L238.629 271.396H112.752L112.085 280.463Z" fill="black"/>
<path d="M280.9 316.009H108.929C108.767 316.009 108.61 315.94 108.499 315.823C108.387 315.703 108.331 315.544 108.345 315.382L109.096 305.143C109.12 304.837 109.373 304.601 109.681 304.601H281.649C281.811 304.601 281.968 304.67 282.079 304.787C282.191 304.906 282.247 305.066 282.233 305.228L281.482 315.467C281.46 315.772 281.205 316.009 280.897 316.009H280.9ZM109.561 314.837H280.355L281.022 305.77H110.225L109.559 314.837H109.561Z" fill="black"/>
<path d="M234.503 336.165H107.45C107.288 336.165 107.131 336.096 107.019 335.979C106.908 335.86 106.852 335.7 106.865 335.538L107.617 325.299C107.641 324.993 107.893 324.757 108.201 324.757H235.255C235.417 324.757 235.574 324.826 235.685 324.943C235.797 325.062 235.853 325.222 235.839 325.384L235.088 335.623C235.064 335.929 234.811 336.165 234.503 336.165ZM108.082 334.993H233.959L234.625 325.926H108.746L108.079 334.993H108.082Z" fill="black"/>
<path d="M275.041 371.695H103.073C102.911 371.695 102.754 371.625 102.642 371.508C102.531 371.389 102.475 371.229 102.488 371.067L103.24 360.828C103.264 360.523 103.516 360.286 103.824 360.286H275.793C275.955 360.286 276.111 360.355 276.223 360.472C276.334 360.592 276.39 360.751 276.377 360.913L275.625 371.152C275.604 371.458 275.349 371.695 275.041 371.695ZM103.702 370.522H274.496L275.163 361.456H104.369L103.702 370.522Z" fill="black"/>
<path d="M228.647 391.851H101.593C101.431 391.851 101.274 391.782 101.163 391.665C101.051 391.545 100.995 391.386 101.009 391.223L101.76 380.985C101.782 380.679 102.037 380.442 102.345 380.442H229.399C229.561 380.442 229.717 380.511 229.829 380.628C229.94 380.748 229.996 380.908 229.983 381.07L229.231 391.309C229.21 391.614 228.955 391.851 228.647 391.851ZM102.225 390.679H228.102L228.769 381.612H102.889L102.223 390.679H102.225Z" fill="black"/>
<path d="M40.0977 460.929C40.0844 460.929 40.0685 460.929 40.0552 460.929C39.7338 460.905 39.4894 460.624 39.5133 460.302L66.8089 82.0095C67.4517 73.2618 74.8706 66.1436 83.3494 66.1436H343.006C347.035 66.1436 350.735 67.7384 353.421 70.6304C356.239 73.6659 357.615 77.7354 357.294 82.0946L350.22 178.417C350.196 178.739 349.914 178.981 349.593 178.96C349.272 178.936 349.027 178.654 349.051 178.332L356.125 82.0095C356.42 77.9799 355.155 74.2241 352.56 71.4304C350.098 68.7777 346.703 67.3158 343.003 67.3158H83.3521C75.4736 67.3158 68.578 73.945 67.9803 82.0946L40.6847 460.384C40.6608 460.693 40.4058 460.927 40.1004 460.927L40.0977 460.929Z" fill="black"/>
<path d="M314.087 461.098H40.0978C39.7737 461.098 39.5107 460.835 39.5107 460.511C39.5107 460.187 39.7737 459.924 40.0978 459.924H314.087C321.966 459.924 328.861 453.294 329.459 445.145L337.388 337.193C337.412 336.871 337.688 336.622 338.015 336.651C338.336 336.675 338.58 336.956 338.556 337.278L330.628 445.23C329.985 453.978 322.566 461.096 314.087 461.096V461.098Z" fill="black"/>
<path d="M287.312 110.24H139.981C133.975 110.24 129.473 105.208 129.929 99.0043L131.125 82.7236C132.163 68.5907 144.095 57.1318 157.775 57.1318H277.317C290.999 57.1318 301.247 68.5907 300.208 82.7236L299.013 99.0043C298.556 105.211 293.318 110.24 287.312 110.24Z" fill="black"/>
<path d="M287.312 110.827H139.981C136.982 110.827 134.227 109.642 132.227 107.486C130.131 105.229 129.109 102.202 129.345 98.9615L130.54 82.6809C131.597 68.2689 143.816 56.5469 157.775 56.5469H277.317C283.936 56.5469 290.013 59.1651 294.428 63.9177C299.061 68.9042 301.321 75.5998 300.795 82.7686L299.6 99.0493C299.122 105.546 293.613 110.83 287.315 110.83L287.312 110.827ZM157.775 57.7191C144.417 57.7191 132.721 68.9547 131.706 82.7686L130.511 99.0493C130.296 101.96 131.21 104.674 133.082 106.689C134.859 108.602 137.308 109.655 139.978 109.655H287.309C293.007 109.655 297.993 104.857 298.426 98.9615L299.621 82.6809C300.123 75.8417 297.972 69.4597 293.565 64.7151C289.376 60.2044 283.604 57.7191 277.311 57.7191H157.769H157.775Z" fill="black"/>
<path d="M283.649 110.24H136.318C130.312 110.24 125.809 105.208 126.266 99.0043L127.462 82.7236C128.5 68.5907 140.432 57.1318 154.112 57.1318H273.654C287.336 57.1318 297.584 68.5907 296.545 82.7236L295.35 99.0043C294.893 105.211 289.655 110.24 283.649 110.24Z" fill="white"/>
<path d="M283.65 110.827H136.318C133.319 110.827 130.565 109.642 128.565 107.486C126.469 105.229 125.443 102.202 125.683 98.9615L126.878 82.6809C127.935 68.2689 140.154 56.5469 154.112 56.5469H273.654C280.273 56.5469 286.351 59.1651 290.766 63.9177C295.398 68.9042 297.659 75.5998 297.133 82.7686L295.937 99.0493C295.459 105.546 289.948 110.83 283.652 110.83L283.65 110.827ZM154.112 57.7191C140.754 57.7191 129.059 68.9547 128.044 82.7686L126.849 99.0493C126.633 101.96 127.547 104.674 129.42 106.689C131.197 108.602 133.646 109.655 136.315 109.655H283.647C289.345 109.655 294.33 104.857 294.763 98.9615L295.959 82.6809C296.461 75.8417 294.309 69.4597 289.902 64.7151C285.713 60.2044 279.941 57.7191 273.649 57.7191H154.107H154.112Z" fill="black"/>
<path d="M220.389 0.827148C204.996 0.827148 191.571 13.7187 190.402 29.6219L187.106 74.5219C186.734 79.5855 190.405 83.6895 195.309 83.6895H233.301C238.202 83.6895 242.478 79.5855 242.85 74.5219L246.146 29.6219C247.315 13.7187 235.782 0.827148 220.389 0.827148ZM218.086 32.179C213.297 32.179 209.711 28.168 210.072 23.2213C210.436 18.2747 214.611 14.2636 219.401 14.2636C224.19 14.2636 227.776 18.2747 227.415 23.2213C227.051 28.168 222.875 32.179 218.086 32.179Z" fill="black"/>
<path d="M233.301 84.2738H195.308C192.83 84.2738 190.556 83.293 188.904 81.5121C187.172 79.6488 186.327 77.1476 186.524 74.4762L189.82 29.5763C191.008 13.3993 204.722 0.239258 220.389 0.239258C227.815 0.239258 234.634 3.17641 239.585 8.50848C244.781 14.1064 247.32 21.618 246.728 29.6613L243.432 74.5613C243.038 79.9173 238.494 84.2738 233.298 84.2738H233.301ZM220.389 1.41146C205.32 1.41146 192.131 14.0851 190.987 29.6613L187.69 74.5613C187.517 76.9057 188.253 79.0906 189.759 80.7147C191.188 82.2537 193.159 83.1016 195.306 83.1016H233.298C237.891 83.1016 241.912 79.2315 242.263 74.4762L245.559 29.5763C246.125 21.8599 243.7 14.6619 238.727 9.3059C233.999 4.21572 227.486 1.41146 220.389 1.41146ZM218.086 32.7659C215.66 32.7659 213.435 31.8064 211.817 30.0653C210.122 28.2419 209.296 25.7965 209.487 23.181C209.872 17.9419 214.319 13.6784 219.4 13.6784C221.826 13.6784 224.052 14.638 225.669 16.379C227.364 18.2024 228.19 20.6478 227.999 23.2634C227.614 28.5024 223.167 32.7659 218.086 32.7659ZM219.4 14.8506C214.919 14.8506 210.996 18.6251 210.656 23.266C210.489 25.552 211.206 27.6837 212.675 29.2679C214.069 30.7697 215.99 31.5964 218.086 31.5964C222.567 31.5964 226.49 27.8219 226.83 23.181C226.997 20.895 226.28 18.7633 224.811 17.1791C223.417 15.6773 221.496 14.8506 219.4 14.8506Z" fill="black"/>
<path d="M218.02 0.827148C202.627 0.827148 189.202 13.7187 188.033 29.6219L184.737 74.5219C184.365 79.5855 188.036 83.6895 192.939 83.6895H230.932C235.832 83.6895 240.109 79.5855 240.481 74.5219L243.777 29.6219C244.946 13.7187 233.413 0.827148 218.02 0.827148ZM215.717 32.179C210.927 32.179 207.342 28.168 207.703 23.2213C208.067 18.2747 212.242 14.2636 217.032 14.2636C221.821 14.2636 225.407 18.2747 225.045 23.2213C224.682 28.168 220.506 32.179 215.717 32.179Z" fill="white"/>
<path d="M230.931 84.2738H192.939C190.461 84.2738 188.187 83.293 186.535 81.5121C184.803 79.6488 183.958 77.1476 184.155 74.4762L187.451 29.5763C188.639 13.3993 202.35 0.239258 218.019 0.239258C225.446 0.239258 232.265 3.17641 237.216 8.50848C242.412 14.1064 244.951 21.618 244.359 29.6613L241.062 74.5613C240.669 79.9173 236.124 84.2738 230.929 84.2738H230.931ZM218.019 1.41146C202.951 1.41146 189.762 14.0851 188.617 29.6613L185.321 74.5613C185.148 76.9057 185.884 79.0906 187.39 80.7147C188.819 82.2537 190.79 83.1016 192.936 83.1016H230.929C235.521 83.1016 239.543 79.2315 239.894 74.4762L243.19 29.5763C243.756 21.8599 241.331 14.6619 236.358 9.3059C231.63 4.21572 225.117 1.41146 218.019 1.41146ZM215.716 32.7659C213.291 32.7659 211.065 31.8064 209.448 30.0653C207.753 28.2419 206.927 25.7965 207.118 23.181C207.503 17.9419 211.95 13.6784 217.031 13.6784C219.456 13.6784 221.682 14.638 223.3 16.379C224.995 18.2024 225.821 20.6478 225.63 23.2634C225.244 28.5024 220.798 32.7659 215.716 32.7659ZM217.031 14.8506C212.55 14.8506 208.627 18.6251 208.287 23.266C208.12 25.552 208.837 27.6837 210.306 29.2679C211.7 30.7697 213.621 31.5964 215.716 31.5964C220.198 31.5964 224.121 27.8219 224.461 23.181C224.628 20.895 223.911 18.7633 222.442 17.1791C221.048 15.6773 219.127 14.8506 217.031 14.8506Z" fill="black"/>
<path d="M6.05762 133.624C5.96731 133.624 5.87699 133.602 5.78934 133.56C5.50246 133.411 5.38824 133.057 5.53699 132.77C16.741 110.993 32.0676 91.4534 51.0863 74.6891C51.3307 74.4738 51.6999 74.4977 51.9124 74.7422C52.1249 74.9841 52.1037 75.3562 51.8593 75.5689C32.9495 92.2349 17.7159 111.66 6.57824 133.307C6.47465 133.509 6.27012 133.626 6.05762 133.626V133.624Z" fill="black"/>
<path d="M0.742405 120.12C0.644124 120.12 0.543187 120.096 0.450218 120.043C0.168656 119.88 0.073031 119.522 0.235062 119.242C13.766 95.6761 32.0118 74.8821 54.4677 57.4319C54.7227 57.2326 55.0919 57.2804 55.2885 57.5356C55.4877 57.7908 55.4399 58.1602 55.1849 58.3569C32.8511 75.7114 14.7063 96.3911 1.2524 119.825C1.1435 120.013 0.946937 120.12 0.745062 120.12H0.742405Z" fill="black"/>
<path d="M59.8232 59.2606C59.6399 59.2606 59.4672 59.1756 59.3557 59.0294L54.2078 52.2434C54.0857 52.0839 54.0564 51.8712 54.1255 51.6852C54.1946 51.4964 54.3566 51.3582 54.5532 51.3157L63.9297 49.3354C64.1475 49.2903 64.3733 49.3727 64.5114 49.5481C64.6496 49.7235 64.6761 49.9627 64.5778 50.1648L60.3491 58.931C60.2614 59.1144 60.0835 59.2394 59.8789 59.2606C59.8603 59.2606 59.8391 59.2633 59.8205 59.2633L59.8232 59.2606ZM55.7007 52.2699L59.7116 57.5568L63.0053 50.7283L55.698 52.2699H55.7007Z" fill="black"/>
<path d="M419.258 121.431C419.192 121.431 419.125 121.421 419.059 121.397C418.753 121.288 418.597 120.953 418.705 120.647L420.243 116.368C420.352 116.062 420.69 115.905 420.992 116.014C421.298 116.123 421.455 116.458 421.346 116.764L419.808 121.043C419.723 121.282 419.497 121.431 419.258 121.431Z" fill="black"/>
<path d="M415.677 131.399C415.611 131.399 415.544 131.388 415.478 131.364C415.172 131.255 415.016 130.921 415.124 130.615L416.662 126.335C416.771 126.03 417.109 125.873 417.411 125.982C417.717 126.091 417.874 126.426 417.765 126.731L416.227 131.011C416.142 131.25 415.916 131.399 415.677 131.399Z" fill="black"/>
<path d="M415.393 123.254C415.327 123.254 415.26 123.244 415.194 123.22L410.917 121.681C410.612 121.572 410.455 121.237 410.564 120.931C410.673 120.625 411.01 120.469 411.313 120.578L415.589 122.117C415.895 122.226 416.052 122.56 415.943 122.866C415.858 123.105 415.632 123.254 415.39 123.254H415.393Z" fill="black"/>
<path d="M425.354 126.837C425.287 126.837 425.221 126.827 425.155 126.803L420.878 125.264C420.573 125.155 420.416 124.817 420.525 124.514C420.634 124.208 420.971 124.052 421.274 124.161L425.55 125.7C425.856 125.809 426.013 126.146 425.904 126.449C425.819 126.688 425.593 126.837 425.354 126.837Z" fill="black"/>
<path d="M22.1166 223.596C22.0183 223.596 21.92 223.572 21.827 223.519C21.5455 223.36 21.4472 223.001 21.6066 222.719L23.8538 218.767C24.0131 218.485 24.3717 218.387 24.6533 218.546C24.9349 218.706 25.0331 219.064 24.8738 219.346L22.6266 223.299C22.5177 223.487 22.3211 223.594 22.1166 223.594V223.596Z" fill="black"/>
<path d="M16.8812 232.801C16.7829 232.801 16.6847 232.778 16.5917 232.724C16.3101 232.565 16.2118 232.206 16.3712 231.924L18.6184 227.972C18.7778 227.69 19.1364 227.592 19.4179 227.751C19.6995 227.911 19.7978 228.269 19.6384 228.551L17.3912 232.504C17.2823 232.692 17.0858 232.799 16.8812 232.799V232.801Z" fill="black"/>
<path d="M17.9971 224.729C17.8988 224.729 17.8005 224.706 17.7075 224.652L13.7577 222.404C13.4761 222.244 13.3779 221.885 13.5372 221.604C13.6966 221.322 14.0552 221.224 14.3368 221.383L18.2866 223.632C18.5682 223.791 18.6665 224.15 18.5071 224.432C18.3982 224.621 18.2016 224.727 17.9971 224.727V224.729Z" fill="black"/>
<path d="M27.1982 229.968C27.1 229.968 27.0017 229.944 26.9087 229.891L22.9589 227.642C22.6773 227.482 22.579 227.124 22.7384 226.842C22.8978 226.56 23.2564 226.462 23.5379 226.621L27.4878 228.87C27.7693 229.029 27.8676 229.388 27.7082 229.67C27.5993 229.859 27.4028 229.965 27.1982 229.965V229.968Z" fill="black"/>
<path d="M27.7853 315.69C27.1478 315.69 26.5103 315.57 25.8993 315.334C24.5686 314.816 23.5193 313.8 22.9482 312.471C21.7795 309.757 22.9907 306.578 25.6523 305.382C26.9326 304.805 28.3617 304.768 29.6686 305.278C30.9993 305.797 32.0485 306.812 32.6223 308.141C33.791 310.855 32.5798 314.034 29.9182 315.23C29.2356 315.536 28.5131 315.69 27.7879 315.69H27.7853ZM27.7826 306.094C27.2221 306.094 26.6617 306.214 26.1304 306.451C24.0506 307.386 23.105 309.877 24.0214 312.006C24.4703 313.045 25.2857 313.837 26.3217 314.241C27.3364 314.635 28.4414 314.608 29.4348 314.162C31.5146 313.226 32.4603 310.735 31.5439 308.606C31.095 307.567 30.2795 306.775 29.2409 306.371C28.7681 306.188 28.274 306.094 27.78 306.094H27.7826Z" fill="black"/>
<path d="M392.098 69.0976C391.952 69.0976 391.808 69.0444 391.694 68.9354C375.459 53.516 356.477 41.0896 335.273 32.0017C334.975 31.8741 334.837 31.5286 334.964 31.2309C335.092 30.9331 335.435 30.7949 335.735 30.9225C357.067 40.0662 376.166 52.5671 392.501 68.0849C392.735 68.3081 392.746 68.6776 392.523 68.9142C392.409 69.0364 392.252 69.0976 392.098 69.0976Z" fill="black"/>
<path d="M325.748 28.163C325.681 28.163 325.612 28.1523 325.546 28.1257C322.664 27.0625 319.71 26.0471 316.764 25.1062C316.456 25.0078 316.286 24.6782 316.384 24.3699C316.483 24.0616 316.815 23.8914 317.12 23.9898C320.082 24.9334 323.054 25.9568 325.952 27.0253C326.255 27.1369 326.412 27.4745 326.3 27.7775C326.212 28.0141 325.989 28.1603 325.75 28.1603L325.748 28.163Z" fill="black"/>
<path d="M373.116 68.0612C372.989 68.0612 372.861 68.0186 372.753 67.9336C351.396 50.9778 326.42 39.3036 298.521 33.2326C298.205 33.1635 298.003 32.8525 298.072 32.5362C298.141 32.2199 298.452 32.0205 298.768 32.087C326.845 38.1952 351.981 49.9465 373.48 67.0139C373.733 67.2159 373.775 67.5827 373.576 67.8379C373.459 67.9841 373.289 68.0585 373.116 68.0585V68.0612Z" fill="black"/>
<path d="M404.319 84.9513C402.329 84.9513 400.627 83.4336 400.433 81.4135C400.335 80.3742 400.645 79.3588 401.309 78.5534C401.973 77.748 402.911 77.2509 403.95 77.1526C404.986 77.0542 406.003 77.3652 406.808 78.0297C407.613 78.6943 408.109 79.6326 408.208 80.6719C408.306 81.7112 407.995 82.7265 407.331 83.5319C406.667 84.3373 405.729 84.8344 404.691 84.9327C404.566 84.9434 404.441 84.9513 404.319 84.9513ZM404.324 78.3062C404.237 78.3062 404.152 78.3115 404.064 78.3195C402.563 78.463 401.458 79.8 401.602 81.3018C401.745 82.8036 403.086 83.9094 404.582 83.7658C406.083 83.6223 407.188 82.2853 407.044 80.7835C406.909 79.3694 405.716 78.3062 404.324 78.3062Z" fill="black"/>
<path d="M198.015 236.819C211.517 223.307 211.517 201.4 198.015 187.888C184.512 174.376 162.619 174.376 149.116 187.888C135.613 201.4 135.613 223.307 149.116 236.819C162.619 250.332 184.512 250.332 198.015 236.819Z" fill="black"/>
<path d="M198.765 235.068C211.868 221.956 211.868 200.698 198.765 187.587C185.663 174.475 164.419 174.475 151.317 187.587C138.214 200.698 138.214 221.956 151.317 235.068C164.419 248.179 185.663 248.179 198.765 235.068Z" fill="white"/>
<path d="M175.042 245.487C156.22 245.487 140.904 230.163 140.904 211.325C140.904 192.488 156.218 177.164 175.042 177.164C193.867 177.164 209.18 192.488 209.18 211.325C209.18 230.163 193.867 245.487 175.042 245.487ZM175.042 178.339C156.866 178.339 142.078 193.136 142.078 211.325C142.078 229.515 156.866 244.312 175.042 244.312C193.219 244.312 208.009 229.515 208.009 211.325C208.009 193.136 193.222 178.339 175.042 178.339Z" fill="black"/>
<path d="M194.95 231.251C205.946 220.248 205.946 202.408 194.95 191.405C183.954 180.402 166.127 180.402 155.131 191.405C144.135 202.408 144.135 220.248 155.131 231.251C166.127 242.254 183.954 242.254 194.95 231.251Z" fill="white"/>
<path d="M198.715 227.177C198.607 227.177 198.498 227.147 198.399 227.084C198.128 226.908 198.049 226.544 198.224 226.273C199.653 224.056 200.755 221.653 201.497 219.131C201.589 218.82 201.916 218.644 202.224 218.735C202.535 218.825 202.713 219.152 202.62 219.463C201.847 222.094 200.697 224.601 199.207 226.911C199.095 227.084 198.907 227.179 198.713 227.179L198.715 227.177Z" fill="black"/>
<path d="M200.389 199.622C200.171 199.622 199.964 199.5 199.86 199.293C195.204 189.697 185.697 183.738 175.043 183.738C166.293 183.738 157.974 187.959 152.794 195.032C152.603 195.292 152.236 195.351 151.976 195.157C151.715 194.965 151.66 194.598 151.851 194.338C157.251 186.967 165.924 182.565 175.045 182.565C185.981 182.565 196.136 188.931 200.914 198.782C201.055 199.075 200.936 199.423 200.644 199.566C200.561 199.606 200.474 199.625 200.389 199.625V199.622Z" fill="black"/>
<path d="M175.042 240.089C159.195 240.089 146.302 227.187 146.302 211.326C146.302 206.401 147.569 201.539 149.962 197.268C150.121 196.986 150.477 196.885 150.759 197.044C151.04 197.204 151.141 197.56 150.982 197.842C148.684 201.938 147.471 206.6 147.471 211.326C147.471 226.538 159.838 238.914 175.04 238.914C175.364 238.914 175.627 239.177 175.627 239.502C175.627 239.826 175.364 240.089 175.04 240.089H175.042Z" fill="black"/>
<path d="M172.461 231.219V226.586C169.196 226.44 166.03 225.563 164.179 224.489L165.64 218.785C167.685 219.906 170.562 220.93 173.728 220.93C176.506 220.93 178.406 219.856 178.406 217.908C178.406 215.959 176.846 214.885 173.242 213.665C168.028 211.911 164.471 209.471 164.471 204.742C164.471 200.452 167.491 197.087 172.705 196.064V191.431H177.481V195.721C180.746 195.867 182.94 196.55 184.547 197.329L183.134 202.839C181.867 202.302 179.625 201.18 176.119 201.18C172.952 201.18 171.927 202.547 171.927 203.91C171.927 205.518 173.632 206.544 177.773 208.105C183.572 210.151 185.909 212.833 185.909 217.222C185.909 221.61 182.839 225.268 177.237 226.241V231.214H172.461V231.219Z" fill="black"/>
<path d="M262.468 250.275C272.221 240.515 272.221 224.692 262.468 214.932C252.715 205.173 236.903 205.173 227.15 214.932C217.397 224.692 217.397 240.515 227.15 250.275C236.903 260.035 252.715 260.035 262.468 250.275Z" fill="black"/>
<path d="M269.998 234.08C271.23 220.744 261.425 208.934 248.098 207.702C234.771 206.47 222.969 216.281 221.738 229.617C220.506 242.953 230.311 254.763 243.638 255.995C256.965 257.228 268.766 247.416 269.998 234.08Z" fill="white"/>
<path d="M245.876 256.697C232.191 256.697 221.056 245.555 221.056 231.86C221.056 218.166 232.191 207.023 245.876 207.023C259.561 207.023 270.696 218.166 270.696 231.86C270.696 245.555 259.561 256.697 245.876 256.697ZM245.876 208.196C232.836 208.196 222.227 218.812 222.227 231.86C222.227 244.909 232.836 255.525 245.876 255.525C258.915 255.525 269.524 244.909 269.524 231.86C269.524 218.812 258.915 208.196 245.876 208.196Z" fill="black"/>
<path d="M260.256 246.251C268.198 238.304 268.198 225.419 260.256 217.472C252.314 209.524 239.438 209.524 231.496 217.472C223.554 225.419 223.554 238.304 231.496 246.251C239.438 254.198 252.314 254.198 260.256 246.251Z" fill="white"/>
<path d="M262.974 243.472C262.865 243.472 262.756 243.442 262.658 243.378C262.387 243.203 262.308 242.839 262.483 242.568C263.508 240.981 264.297 239.259 264.828 237.451C264.919 237.14 265.245 236.965 265.556 237.055C265.867 237.145 266.045 237.472 265.952 237.783C265.389 239.7 264.552 241.523 263.468 243.206C263.357 243.379 263.168 243.474 262.974 243.474V243.472Z" fill="black"/>
<path d="M264.183 223.57C263.965 223.57 263.758 223.448 263.657 223.24C260.321 216.367 253.51 212.095 245.879 212.095C239.61 212.095 233.652 215.12 229.938 220.186C229.747 220.447 229.381 220.505 229.12 220.311C228.86 220.12 228.804 219.753 228.995 219.492C232.927 214.126 239.238 210.923 245.879 210.923C253.962 210.923 261.179 215.447 264.711 222.727C264.852 223.02 264.733 223.371 264.44 223.511C264.358 223.551 264.27 223.57 264.185 223.57H264.183Z" fill="black"/>
<path d="M245.876 252.799C234.34 252.799 224.953 243.406 224.953 231.862C224.953 228.276 225.875 224.738 227.617 221.628C227.777 221.346 228.133 221.245 228.414 221.405C228.696 221.564 228.797 221.92 228.637 222.202C226.993 225.137 226.122 228.475 226.122 231.862C226.122 242.76 234.983 251.627 245.874 251.627C246.198 251.627 246.461 251.89 246.461 252.214C246.461 252.539 246.198 252.802 245.874 252.802L245.876 252.799Z" fill="black"/>
<path d="M244.011 246.228V242.882C241.652 242.775 239.365 242.143 238.029 241.367L239.084 237.247C240.561 238.057 242.638 238.796 244.925 238.796C246.93 238.796 248.304 238.023 248.304 236.614C248.304 235.205 247.177 234.432 244.574 233.549C240.808 232.281 238.239 230.522 238.239 227.103C238.239 224.004 240.42 221.575 244.186 220.836V217.489H247.634V220.589C249.993 220.695 251.576 221.187 252.737 221.75L251.717 225.729C250.803 225.341 249.183 224.533 246.649 224.533C244.362 224.533 243.623 225.519 243.623 226.505C243.623 227.667 244.856 228.406 247.847 229.533C252.036 231.011 253.725 232.949 253.725 236.12C253.725 239.291 251.507 241.93 247.462 242.634V246.226H244.014L244.011 246.228Z" fill="black"/>
<path d="M267.242 190.447C282.799 174.88 282.799 149.64 267.242 134.072C251.685 118.505 226.462 118.505 210.905 134.072C195.349 149.64 195.349 174.88 210.905 190.447C226.462 206.015 251.685 206.015 267.242 190.447Z" fill="black"/>
<path d="M268.11 188.428C283.205 173.323 283.205 148.832 268.11 133.726C253.015 118.621 228.541 118.621 213.446 133.726C198.35 148.832 198.35 173.323 213.446 188.428C228.541 203.534 253.015 203.534 268.11 188.428Z" fill="white"/>
<path d="M240.777 200.341C219.142 200.341 201.539 182.726 201.539 161.076C201.539 139.426 219.142 121.812 240.777 121.812C262.412 121.812 280.015 139.426 280.015 161.076C280.015 182.726 262.412 200.341 240.777 200.341ZM240.777 122.984C219.787 122.984 202.71 140.072 202.71 161.076C202.71 182.08 219.787 199.169 240.777 199.169C261.767 199.169 278.844 182.08 278.844 161.076C278.844 140.072 261.767 122.984 240.777 122.984Z" fill="black"/>
<path d="M263.715 184.029C276.383 171.353 276.383 150.8 263.715 138.123C251.047 125.447 230.508 125.447 217.841 138.123C205.173 150.8 205.173 171.353 217.841 184.029C230.508 196.706 251.047 196.706 263.715 184.029Z" fill="white"/>
<path d="M268.046 179.247C267.937 179.247 267.828 179.217 267.729 179.154C267.458 178.978 267.379 178.614 267.554 178.343C269.206 175.781 270.479 173.006 271.337 170.09C271.43 169.779 271.756 169.603 272.064 169.694C272.375 169.784 272.553 170.111 272.46 170.422C271.57 173.444 270.253 176.323 268.54 178.978C268.428 179.151 268.239 179.247 268.046 179.247Z" fill="black"/>
<path d="M269.974 147.503C269.756 147.503 269.549 147.381 269.448 147.173C264.069 136.089 253.083 129.202 240.777 129.202C230.667 129.202 221.059 134.08 215.072 142.248C214.881 142.508 214.514 142.564 214.254 142.373C213.994 142.182 213.938 141.815 214.129 141.554C220.334 133.086 230.298 128.027 240.779 128.027C253.346 128.027 265.012 135.34 270.503 146.658C270.644 146.95 270.524 147.298 270.232 147.442C270.15 147.482 270.062 147.5 269.977 147.5L269.974 147.503Z" fill="black"/>
<path d="M240.777 194.12C222.569 194.12 207.755 179.296 207.755 161.075C207.755 155.414 209.211 149.829 211.962 144.925C212.122 144.643 212.478 144.542 212.759 144.702C213.041 144.861 213.142 145.217 212.982 145.499C210.329 150.23 208.926 155.616 208.926 161.078C208.926 178.653 223.214 192.951 240.777 192.951C241.101 192.951 241.364 193.214 241.364 193.538C241.364 193.862 241.101 194.126 240.777 194.126V194.12Z" fill="black"/>
<path d="M237.802 183.993V178.655C234.041 178.488 230.394 177.475 228.261 176.239L229.945 169.669C232.304 170.96 235.613 172.141 239.263 172.141C242.464 172.141 244.652 170.905 244.652 168.658C244.652 166.412 242.857 165.176 238.702 163.773C232.697 161.75 228.598 158.943 228.598 153.494C228.598 148.55 232.078 144.675 238.084 143.495V138.157H243.585V143.101C247.346 143.269 249.872 144.055 251.723 144.954L250.095 151.301C248.637 150.685 246.052 149.393 242.012 149.393C238.362 149.393 237.186 150.966 237.186 152.537C237.186 154.39 239.151 155.57 243.922 157.367C250.602 159.727 253.296 162.816 253.296 167.872C253.296 172.927 249.76 177.14 243.306 178.262V183.99H237.805L237.802 183.993Z" fill="black"/>
<path d="M359.195 449.588V465.568L366.869 465.1L368.378 449.588H359.195Z" fill="white"/>
<path d="M359.196 466.153C359.047 466.153 358.904 466.097 358.795 465.994C358.678 465.882 358.611 465.728 358.611 465.566V449.585C358.611 449.261 358.874 448.998 359.198 448.998H368.384C368.548 448.998 368.708 449.067 368.817 449.189C368.926 449.312 368.981 449.476 368.965 449.641L367.454 465.154C367.427 465.441 367.194 465.664 366.907 465.683L359.233 466.15C359.233 466.15 359.209 466.15 359.198 466.15L359.196 466.153ZM359.783 450.173V464.944L366.336 464.545L367.736 450.173H359.783Z" fill="black"/>
<path d="M368.02 485.492C364.896 485.827 356.277 486.088 353.822 485.017C351.66 484.073 349.758 479.639 350.85 477.983C353.583 473.84 355.437 466.649 357.044 461.033C357.135 460.714 357.557 460.65 357.74 460.927L359.379 463.404L360.574 460.496C360.768 460.172 361.106 459.959 361.48 459.925L364.171 459.874C364.785 459.816 365.449 460.414 365.818 460.977L367.757 463.404L368.835 461.424C369.016 461.091 369.518 461.187 369.563 461.562L371.818 480.195C371.882 483.188 369.834 485.296 368.02 485.492Z" fill="white"/>
<path d="M361.352 486.37C358.221 486.37 355.004 486.173 353.588 485.554C351.994 484.857 350.73 482.723 350.231 481.035C349.814 479.621 349.859 478.425 350.364 477.662C352.77 474.015 354.478 467.968 355.984 462.633C356.154 462.033 356.319 461.445 356.483 460.874C356.59 460.504 356.89 460.238 357.27 460.18C357.65 460.122 358.019 460.284 358.231 460.605L359.262 462.16L360.038 460.276C360.048 460.249 360.061 460.223 360.077 460.199C360.367 459.715 360.872 459.396 361.432 459.345L364.165 459.292C365.029 459.21 365.868 459.978 366.314 460.661L367.669 462.354L368.325 461.148C368.53 460.773 368.947 460.576 369.364 460.656C369.781 460.736 370.097 461.073 370.147 461.496L372.402 480.129C372.477 483.427 370.227 485.849 368.083 486.08C366.718 486.226 364.067 486.375 361.352 486.375V486.37ZM357.49 461.61C357.365 462.049 357.238 462.498 357.11 462.952C355.58 468.37 353.846 474.51 351.341 478.308C351.041 478.763 351.046 479.658 351.354 480.703C351.859 482.404 353.02 484.028 354.058 484.48C356.218 485.421 364.402 485.291 367.958 484.911C369.552 484.74 371.289 482.766 371.234 480.208L369.056 462.248L368.272 463.686C368.179 463.859 368.004 463.973 367.81 463.989C367.616 464.005 367.425 463.925 367.3 463.771L365.361 461.344C365.007 460.807 364.503 460.433 364.226 460.459L361.491 460.512C361.355 460.526 361.196 460.621 361.095 460.767L359.918 463.628C359.836 463.827 359.65 463.968 359.432 463.989C359.214 464.01 359.007 463.909 358.887 463.729L357.485 461.61H357.49Z" fill="black"/>
<path d="M361.624 482.808C359.602 482.808 357.27 482.588 354.792 481.934C354.479 481.852 354.293 481.53 354.375 481.219C354.457 480.905 354.779 480.719 355.089 480.802C362.291 482.699 368.334 480.738 368.392 480.719C368.697 480.616 369.029 480.783 369.133 481.091C369.234 481.4 369.069 481.729 368.761 481.833C368.589 481.891 365.749 482.811 361.621 482.811L361.624 482.808Z" fill="black"/>
<path d="M364.968 474.438H357.966C357.642 474.438 357.379 474.174 357.379 473.85C357.379 473.526 357.642 473.263 357.966 473.263H364.968C365.292 473.263 365.555 473.526 365.555 473.85C365.555 474.174 365.292 474.438 364.968 474.438Z" fill="black"/>
<path d="M415.645 441.133L417.913 460.398L425.106 460.149V441.133H415.645Z" fill="white"/>
<path d="M417.913 460.985C417.618 460.985 417.365 460.765 417.331 460.467L415.062 441.199C415.044 441.031 415.094 440.867 415.206 440.742C415.317 440.617 415.477 440.545 415.644 440.545H425.106C425.43 440.545 425.693 440.808 425.693 441.132V460.148C425.693 460.464 425.443 460.722 425.127 460.733L417.934 460.983C417.934 460.983 417.92 460.983 417.913 460.983V460.985ZM416.303 441.717L418.431 459.795L424.519 459.582V441.717H416.303Z" fill="black"/>
<path d="M415.559 455.817C415.559 455.817 415.275 464.36 415.559 467.802C415.763 470.266 419.137 477.703 421.039 481.736C421.822 483.394 423.445 484.675 425.06 485.045C428.099 485.741 429.571 485.704 432.37 485.247C436.14 484.633 437.311 481.18 436.198 477.874C435.173 474.822 433.467 471.468 430.646 467.34C428.604 464.347 426.736 455.487 426.736 455.487H420.874L419.219 460.402L415.556 455.82L415.559 455.817Z" fill="white"/>
<path d="M429.044 486.164C427.825 486.164 426.601 485.999 424.933 485.616C423.089 485.193 421.352 483.769 420.513 481.985C418.098 476.868 415.179 470.263 414.98 467.849C414.695 464.413 414.964 456.146 414.977 455.798C414.985 455.553 415.144 455.338 415.378 455.261C415.609 455.184 415.867 455.261 416.021 455.452L419.014 459.198L420.327 455.298C420.406 455.059 420.629 454.899 420.882 454.899H426.744C427.02 454.899 427.259 455.093 427.318 455.365C427.337 455.452 429.183 464.147 431.138 467.007C433.868 471.007 435.656 474.399 436.761 477.684C437.449 479.728 437.311 481.783 436.384 483.322C435.571 484.675 434.216 485.539 432.471 485.823C431.148 486.039 430.102 486.164 429.05 486.164H429.044ZM416.101 457.43C416.034 460.064 415.941 465.279 416.146 467.751C416.289 469.471 418.265 474.476 421.572 481.483C422.255 482.929 423.711 484.13 425.196 484.47C428.141 485.145 429.549 485.111 432.28 484.664C433.674 484.436 434.747 483.763 435.377 482.713C436.126 481.469 436.224 479.771 435.648 478.054C434.577 474.872 432.838 471.571 430.168 467.663C428.333 464.976 426.691 457.962 426.271 456.066H421.302L419.779 460.582C419.71 460.784 419.538 460.936 419.325 460.973C419.115 461.01 418.9 460.931 418.765 460.763L416.098 457.43H416.101Z" fill="black"/>
<path d="M429.96 482.614C429.326 482.614 428.797 482.574 428.5 482.534C426.797 482.314 425.219 481.498 424.061 480.235C423.171 479.265 422.512 478.356 422.106 477.535C421.375 476.057 420.632 474.38 420.09 473.157C419.721 472.325 419.338 471.464 419.224 471.27C419.041 471.06 419.033 470.741 419.213 470.517C419.418 470.267 419.787 470.23 420.037 470.435C420.217 470.584 420.313 470.773 421.16 472.681C421.697 473.896 422.435 475.557 423.155 477.014C423.514 477.737 424.109 478.555 424.924 479.44C425.896 480.498 427.219 481.184 428.648 481.37C429.466 481.477 431.591 481.527 432.925 481.003C433.225 480.884 433.565 481.035 433.685 481.336C433.801 481.636 433.653 481.976 433.352 482.096C432.311 482.505 430.996 482.614 429.96 482.614Z" fill="black"/>
<path d="M431.185 474.675H424.768C424.444 474.675 424.181 474.412 424.181 474.087C424.181 473.763 424.444 473.5 424.768 473.5H431.185C431.509 473.5 431.772 473.763 431.772 474.087C431.772 474.412 431.509 474.675 431.185 474.675Z" fill="black"/>
<path d="M346.865 289.823C346.865 289.823 347.63 348.625 350.095 386.906C352.215 419.826 356.109 446.08 357.158 452.789C357.318 453.807 358.122 454.601 359.14 454.737C361.145 455.005 364.612 455.282 367.948 454.652C368.872 454.477 369.611 453.78 369.815 452.858C371.268 446.276 377.202 418.747 377.202 408.229C377.202 396.831 375.162 393.974 374.931 384.684C374.759 377.73 377.083 352.992 378.265 340.999C378.419 339.422 380.605 339.159 381.126 340.656C384.905 351.53 392.964 375.038 400.508 399.165C400.896 400.401 402.808 410.945 403.188 412.163C407.861 427.234 412.259 439.32 413.872 446.404C414.132 447.55 415.067 448.427 416.225 448.615C418.462 448.977 422.218 449.304 425.549 448.251C426.747 447.871 427.543 446.736 427.533 445.476C427.466 437.68 427.18 408.699 426.521 403.832C425.105 393.394 416.969 383.118 415.508 372.031C414.047 360.945 413.2 333.117 409.173 316.43C405.149 299.74 397.252 280.99 397.252 280.99L346.865 289.82V289.823Z" fill="black"/>
<path d="M363.523 455.625C361.836 455.625 360.287 455.481 359.066 455.319C357.801 455.149 356.781 454.147 356.582 452.879C355.456 445.684 351.62 419.659 349.511 386.943C347.073 349.085 346.286 290.419 346.278 289.831C346.276 289.544 346.48 289.297 346.764 289.246L397.151 280.416C397.419 280.368 397.685 280.515 397.791 280.767C397.871 280.956 405.752 299.754 409.741 316.297C412.488 327.687 413.742 343.997 414.751 357.101C415.219 363.178 415.622 368.425 416.087 371.96C416.82 377.515 419.296 382.959 421.692 388.222C424.003 393.299 426.393 398.548 427.1 403.761C427.759 408.609 428.046 436.917 428.117 445.479C428.131 446.994 427.145 448.368 425.724 448.818C422.375 449.876 418.658 449.61 416.13 449.2C414.725 448.972 413.614 447.93 413.298 446.54C412.305 442.18 410.278 435.992 407.709 428.157C406.161 423.436 404.408 418.085 402.628 412.341C402.431 411.708 401.879 408.872 401.292 405.871C400.75 403.091 400.134 399.939 399.948 399.343C392.505 375.538 384.613 352.479 380.57 340.853C380.398 340.353 379.965 340.217 379.628 340.26C379.285 340.3 378.9 340.531 378.847 341.06C377.787 351.83 375.343 377.643 375.516 384.673C375.619 388.852 376.087 391.68 376.583 394.673C377.176 398.256 377.789 401.964 377.789 408.232C377.789 418.646 372.124 445.12 370.389 452.985C370.137 454.128 369.223 455.008 368.06 455.229C366.527 455.519 364.973 455.625 363.523 455.625ZM347.458 290.312C347.54 296.12 348.363 350.9 350.68 386.866C352.783 419.531 356.614 445.511 357.737 452.696C357.857 453.453 358.465 454.054 359.22 454.155C361.013 454.394 364.516 454.703 367.842 454.075C368.543 453.942 369.093 453.416 369.244 452.73C370.477 447.151 376.618 418.79 376.618 408.229C376.618 402.057 376.012 398.4 375.428 394.859C374.926 391.823 374.453 388.958 374.347 384.697C374.177 377.858 376.363 354.345 377.681 340.938C377.779 339.949 378.504 339.207 379.489 339.09C380.478 338.976 381.351 339.523 381.678 340.462C385.724 352.093 393.621 375.165 401.066 398.99C401.271 399.644 401.839 402.557 402.442 405.643C402.995 408.482 403.568 411.416 403.746 411.99C405.523 417.724 407.276 423.072 408.822 427.787C411.399 435.65 413.436 441.861 414.44 446.274C414.65 447.194 415.386 447.887 416.316 448.036C418.281 448.355 422.074 448.735 425.371 447.693C426.306 447.398 426.954 446.489 426.946 445.482C426.874 436.939 426.587 408.692 425.939 403.912C425.257 398.873 423.007 393.931 420.627 388.703C418.196 383.363 415.681 377.839 414.926 372.109C414.456 368.542 414.053 363.279 413.582 357.186C412.578 344.122 411.327 327.865 408.602 316.568C404.968 301.508 398.086 284.55 396.89 281.65L347.458 290.312Z" fill="white"/>
<path d="M373.614 175.959C369.045 174.38 362.882 177.448 362.038 184.576C361.347 190.4 366.981 193.311 369.146 196.92C376.145 208.592 370.91 238.687 382.701 250.337C392.109 259.632 412.512 263.026 426.561 252.115C439.916 241.738 446.111 223.435 436.721 212.164C428.279 202.035 419.325 210.15 410.121 200.392C401.045 190.77 405.382 184.032 399.409 179.582C391.238 173.498 386.568 180.433 373.616 175.962L373.614 175.959Z" fill="black"/>
<path d="M400.619 311.662C400.545 311.662 400.47 311.648 400.396 311.616C389.651 307.204 386.562 296.971 386.435 296.537C386.344 296.226 386.522 295.902 386.833 295.812C387.144 295.721 387.468 295.899 387.561 296.21C387.59 296.311 390.631 306.343 400.842 310.532C401.142 310.654 401.286 310.997 401.161 311.297C401.068 311.523 400.85 311.662 400.619 311.662Z" fill="white"/>
<path d="M301.278 168.539L304.256 176.627C305.228 179.131 304.947 181.951 303.496 184.213L300.83 188.485C300.389 189.192 300.298 190.027 300.325 190.861C300.383 192.727 300.808 195.561 300.808 195.561L293.966 196.018C293.966 196.018 294.534 192.366 294.818 191.108C295.182 189.498 295.105 187.762 294.338 186.3C291.897 181.651 292.3 176.84 292.3 176.84L297.055 177.855C297.055 177.855 298.383 175.312 297.892 171.011C297.772 169.958 297.841 169.148 298.025 168.526C298.492 166.92 300.784 166.941 301.281 168.539H301.278Z" fill="white"/>
<path d="M293.963 196.605C293.798 196.605 293.641 196.535 293.53 196.413C293.41 196.283 293.357 196.102 293.384 195.927C293.408 195.778 293.96 192.243 294.244 190.98C294.608 189.359 294.457 187.793 293.817 186.573C291.325 181.828 291.697 176.996 291.716 176.791C291.729 176.624 291.814 176.47 291.949 176.369C292.085 176.268 292.257 176.233 292.419 176.265L296.701 177.179C297.023 176.329 297.658 174.173 297.304 171.074C297.185 170.027 297.235 169.112 297.456 168.357C297.74 167.384 298.585 166.749 299.605 166.741C299.613 166.741 299.618 166.741 299.626 166.741C300.656 166.741 301.517 167.369 301.828 168.347L304.8 176.422C305.833 179.083 305.528 182.115 303.985 184.526L301.323 188.792C301.012 189.292 300.88 189.943 300.906 190.839C300.962 192.649 301.379 195.443 301.382 195.47C301.406 195.632 301.36 195.796 301.259 195.924C301.156 196.052 301.004 196.131 300.842 196.142L294 196.599C294 196.599 293.973 196.599 293.96 196.599L293.963 196.605ZM292.863 177.562C292.858 179.013 293.049 182.589 294.855 186.028C295.626 187.495 295.814 189.345 295.389 191.238C295.19 192.123 294.839 194.257 294.659 195.384L300.138 195.018C300.008 194.069 299.783 192.24 299.74 190.879C299.719 190.161 299.756 189.103 300.335 188.176L303.002 183.904C304.349 181.802 304.614 179.165 303.714 176.842L300.733 168.743C300.733 168.743 300.728 168.724 300.723 168.713C300.542 168.126 300.043 167.919 299.634 167.919C299.631 167.919 299.628 167.919 299.623 167.919C299.23 167.921 298.755 168.126 298.59 168.692C298.415 169.296 298.375 170.056 298.478 170.946C298.986 175.375 297.639 178.019 297.581 178.128C297.458 178.362 297.195 178.485 296.938 178.431L292.868 177.562H292.863Z" fill="black"/>
<path d="M381.795 219.119C372.524 215.43 355.75 215.164 343.59 219.813C335.61 222.253 323.333 225.586 314.889 217.742C303.836 207.474 302.593 193.15 302.593 193.15L292.266 192.78C292.266 192.78 286.037 209.97 294.37 229.22C302.12 247.124 333.087 253.046 338.519 253.956L338.923 262.297C339.101 265.949 339.13 269.606 339.01 273.261C338.617 285.286 338.248 315.343 344.158 320.08C358.032 331.201 405.719 325.859 410.644 311.795C416.036 296.394 401.475 226.958 381.792 219.122L381.795 219.119Z" fill="white"/>
<path d="M369.499 326.65C358.94 326.65 349.086 324.776 343.794 320.534C337.929 315.834 337.913 288.884 338.426 273.239C338.543 269.634 338.514 265.964 338.338 262.322L337.959 254.452C330.927 253.226 301.475 247.102 293.833 229.45C285.503 210.208 291.652 192.75 291.716 192.577C291.804 192.338 292.032 192.173 292.287 192.192L302.615 192.561C302.909 192.572 303.151 192.801 303.178 193.096C303.191 193.236 304.538 207.324 315.288 217.311C323.827 225.245 336.572 221.345 343.42 219.251C356.271 214.336 373.143 215.043 382.012 218.573C402.359 226.672 416.554 296.699 411.202 311.985C409.584 316.602 403.443 320.653 393.912 323.388C386.608 325.483 377.837 326.652 369.502 326.652L369.499 326.65ZM292.685 193.38C291.838 196.067 287.466 211.79 294.909 228.985C302.492 246.501 332.649 252.376 338.617 253.375C338.888 253.42 339.093 253.649 339.106 253.925L339.51 262.266C339.688 265.937 339.717 269.642 339.597 273.279C338.75 299.144 340.594 316.469 344.525 319.622C353.575 326.876 377.643 326.836 393.586 322.261C402.742 319.635 408.604 315.847 410.092 311.6C412.689 304.181 410.525 283.191 405.055 262.771C398.718 239.109 389.941 222.993 381.574 219.663C372.915 216.215 356.417 215.535 343.794 220.362C336.684 222.539 323.519 226.566 314.485 218.172C304.58 208.97 302.423 196.402 302.065 193.718L292.68 193.383L292.685 193.38Z" fill="black"/>
<path d="M346.145 256.309C345.053 257.518 347.199 259.193 348.057 260.564C348.583 261.407 347.927 262.008 347.011 261.622C344.363 260.509 335.637 256.66 333.708 259.063C333.034 259.905 333.488 261.675 334.837 263.329C337.664 266.792 346.376 271.003 351.264 272.13C354.162 272.797 358.868 275.476 359.373 275.341C361.522 274.758 361.272 272.095 361.726 269.586C361.772 269.336 357.824 266.922 353.67 260.921C351.508 257.795 347.154 255.19 346.145 256.306V256.309Z" fill="white"/>
<path d="M359.328 275.934C358.956 275.934 358.374 275.682 356.666 274.892C355.009 274.124 352.737 273.074 351.133 272.705C345.89 271.495 337.249 267.21 334.383 263.704C332.829 261.801 332.375 259.792 333.251 258.699C335.113 256.376 341.154 258.513 346.819 260.908L347.236 261.083C347.502 261.195 347.645 261.15 347.667 261.134C347.664 261.129 347.659 261.033 347.56 260.876C347.353 260.544 347.05 260.177 346.732 259.792C345.77 258.627 344.572 257.179 345.712 255.919C345.922 255.688 346.32 255.422 347.035 255.467C348.992 255.595 352.384 258.037 354.153 260.592C357.221 265.023 360.18 267.476 361.445 268.521C362.162 269.116 362.377 269.294 362.305 269.693C362.21 270.214 362.146 270.751 362.085 271.272C361.846 273.276 361.596 275.347 359.53 275.907C359.466 275.923 359.402 275.934 359.33 275.934H359.328ZM335.926 258.848C335.063 258.848 334.476 259.042 334.165 259.43C333.737 259.962 334.043 261.429 335.291 262.96C337.94 266.203 346.36 270.4 351.396 271.562C353.12 271.958 355.455 273.039 357.157 273.829C358.018 274.228 358.988 274.677 359.301 274.754C360.47 274.384 360.68 273.13 360.919 271.134C360.972 270.687 361.028 270.227 361.102 269.765C360.996 269.672 360.844 269.547 360.696 269.424C359.394 268.348 356.347 265.823 353.189 261.259C351.494 258.811 348.394 256.73 346.957 256.637C346.737 256.623 346.617 256.663 346.58 256.703C346.153 257.179 346.718 257.939 347.632 259.045C347.962 259.443 348.304 259.855 348.551 260.254C348.989 260.953 348.841 261.559 348.554 261.894C348.169 262.349 347.473 262.452 346.78 262.163L346.36 261.985C341.422 259.895 337.929 258.848 335.923 258.848H335.926Z" fill="black"/>
<path d="M357.009 277.486L362.922 267.654C362.922 267.654 379.752 272.569 386.445 269.621C398.138 264.473 395.928 246.488 393.939 237.536C391.949 228.583 380.716 219.892 380.716 219.892C380.716 219.892 400.34 226.215 408.776 240.3C416.599 253.365 421.569 285.918 397.206 291.324C381.266 294.862 357.011 277.484 357.011 277.484L357.009 277.486Z" fill="white"/>
<path d="M392.558 292.393C377.005 292.393 357.572 278.611 356.667 277.963C356.417 277.785 356.348 277.447 356.504 277.184L362.417 267.352C362.555 267.123 362.829 267.017 363.084 267.091C363.249 267.139 379.786 271.913 386.209 269.085C391.684 266.674 394.614 261.052 394.916 252.371C394.927 252.047 395.195 251.799 395.522 251.805C395.846 251.815 396.099 252.086 396.088 252.411C395.766 261.578 392.603 267.548 386.682 270.156C380.4 272.92 365.947 269.106 363.193 268.338L357.795 277.314C360.818 279.393 378.639 291.208 392.624 291.21C394.165 291.21 395.658 291.067 397.081 290.751C404.29 289.15 409.369 285.028 412.177 278.502C417.534 266.041 413.016 248.519 408.275 240.601C400.048 226.861 380.732 220.511 380.538 220.448C380.23 220.349 380.06 220.017 380.161 219.711C380.259 219.403 380.589 219.233 380.897 219.334C381.096 219.398 400.829 225.886 409.279 240C414.145 248.126 418.772 266.129 413.25 278.967C410.286 285.862 404.931 290.211 397.331 291.899C395.801 292.239 394.199 292.393 392.558 292.393Z" fill="black"/>
<path d="M377.574 199.131C377.154 199.171 376.803 198.834 376.827 198.411C376.941 196.404 377.39 192.627 375.398 191.046C372.843 189.015 368.603 185.945 367.127 188.029C365.83 189.855 364.611 193.491 361.336 194.985C361.023 195.128 361.015 195.593 361.171 195.899L361.96 197.64C362.138 197.983 362.04 198.807 361.907 199.174C361.498 200.306 360.544 202.669 360.775 203.145C361.227 204.07 364.964 205.575 364.964 205.575L363.118 216.988C363.049 217.421 362.797 218.147 362.372 218.062L357.931 218.618C357.931 218.618 358.518 224.723 368.083 225.935C380.583 227.519 381.962 222.161 381.962 222.161C381.962 222.161 369.671 219.54 374.28 206.058C374.381 205.761 374.633 205.543 374.939 205.479C376.107 205.24 379.332 204.434 379.847 202.305C380.392 200.043 379.008 199.001 377.574 199.134V199.131Z" fill="white"/>
<path d="M372.375 226.81C371.087 226.81 369.639 226.72 368.008 226.513C358.093 225.258 357.373 218.937 357.346 218.669C357.317 218.352 357.543 218.071 357.856 218.031L362.298 217.475C362.311 217.475 362.327 217.473 362.34 217.473C362.406 217.369 362.497 217.143 362.537 216.89L364.308 205.934C363.097 205.424 360.696 204.315 360.247 203.398C359.981 202.859 360.292 201.827 361.134 199.568C361.216 199.347 361.291 199.145 361.355 198.972C361.469 198.656 361.501 198.055 361.437 197.904L360.635 196.139C360.47 195.823 360.433 195.397 360.55 195.057C360.645 194.783 360.837 194.565 361.089 194.451C363.368 193.412 364.616 191.184 365.618 189.393C365.968 188.766 366.301 188.173 366.643 187.689C367.01 187.173 367.52 186.865 368.16 186.775C369.807 186.538 372.147 187.716 375.757 190.586C377.818 192.224 377.592 195.634 377.441 197.891L377.406 198.446C377.406 198.478 377.414 198.505 377.435 198.523C377.457 198.542 377.481 198.55 377.515 198.55C378.461 198.459 379.327 198.786 379.893 199.438C380.336 199.951 380.788 200.886 380.413 202.439C379.858 204.743 376.817 205.689 375.053 206.051C374.949 206.072 374.864 206.147 374.83 206.245C373.427 210.346 373.496 213.804 375.034 216.521C377.303 220.524 382.031 221.574 382.079 221.585C382.235 221.616 382.371 221.712 382.453 221.85C382.538 221.986 382.562 222.151 382.522 222.305C382.469 222.515 381.245 226.81 372.367 226.813L372.375 226.81ZM358.632 219.118C359.038 220.577 360.802 224.418 368.157 225.351C377.483 226.534 380.341 223.751 381.128 222.536C379.6 222.06 376.014 220.617 374.022 217.098C372.312 214.076 372.213 210.296 373.727 205.862C373.895 205.37 374.314 205.004 374.824 204.9C376.025 204.655 378.862 203.898 379.279 202.162C379.483 201.317 379.391 200.639 379.013 200.203C378.697 199.839 378.193 199.661 377.629 199.714C377.258 199.749 376.894 199.621 376.628 199.366C376.362 199.111 376.222 198.749 376.243 198.377L376.277 197.811C376.402 195.921 376.612 192.758 375.032 191.503C371.828 188.957 369.576 187.763 368.327 187.934C368.008 187.979 367.777 188.117 367.602 188.367C367.297 188.797 366.978 189.366 366.643 189.967C365.567 191.886 364.234 194.27 361.657 195.482C361.657 195.522 361.668 195.581 361.692 195.629L362.494 197.399C362.773 197.933 362.611 198.951 362.46 199.374C362.396 199.552 362.319 199.757 362.234 199.983C361.955 200.732 361.309 202.463 361.325 202.925C361.604 203.334 363.363 204.297 365.185 205.03C365.44 205.131 365.589 205.397 365.543 205.668L363.697 217.082C363.658 217.321 363.493 218.124 362.98 218.48C362.797 218.608 362.587 218.666 362.375 218.65L358.629 219.118H358.632Z" fill="black"/>
</svg>
