<svg width="432" height="383" viewBox="0 0 432 383" fill="none" xmlns="http://www.w3.org/2000/svg">
<g opacity="0.6">
<path d="M184.387 171.365C185.938 172.994 188.54 171.365 188.946 169.247C189.339 167.217 190.183 158.112 197.543 150.037C198.028 149.506 198.868 149.52 199.329 150.069C199.514 150.286 199.606 150.558 199.606 150.826C199.606 151.08 199.523 151.333 199.357 151.546C197.806 153.558 193.593 159.238 192.043 163.59C190.128 168.966 189.925 172.224 193.063 173.525C193.095 173.539 193.127 173.553 193.155 173.562C195.771 174.609 198.706 173.137 199.537 170.447C200.363 167.761 201.923 163.705 204.544 160.249C207.571 156.257 209.795 154.748 210.866 154.199C211.262 153.996 211.742 154.111 212.001 154.471C212.112 154.628 212.167 154.813 212.167 154.993C212.167 155.265 212.042 155.533 211.812 155.708C210.427 156.76 207.257 159.483 204.341 164.24C202.379 167.438 201.466 169.916 201.041 171.582C200.64 173.156 201.576 174.752 203.136 175.205C204.378 175.565 206.039 175.772 208.005 175.357C212.444 174.42 215.13 168.763 218.793 169.372C222.457 169.981 223.556 174.868 227.344 176.986C231.133 179.104 233.454 178.735 233.454 178.735L233.643 178.762C234.958 170.106 237.589 149.081 233.03 143.433C233.03 143.433 206.837 142.566 201.844 142.999C196.846 143.433 192.177 147.452 188.162 153.968C184.143 160.479 182.841 169.736 184.387 171.365Z" fill="#FFFBF5"/>
<path d="M122.907 338.553L120.461 337.98L129.012 284.806L122.579 294.253L109.225 287.898L96.5209 314.284L19.974 278.129C19.974 278.129 25.35 275.277 33.3286 275.845C41.3073 276.417 48.4738 274.138 58.2475 262.246L55.5618 260.538L77.3011 219.875C77.3011 219.875 97.8222 181.112 101.297 176.225V132.373C101.297 125.709 106.701 120.31 113.364 120.31H136.151L133.802 107.98C133.645 107.182 134.457 106.54 135.2 106.872L164.711 120.089H226.38C226.38 120.089 244.082 79.7524 265.743 71.6907C265.743 71.6907 253.689 62.0832 250.514 52.3094C247.335 42.5404 249.292 35.2908 249.292 35.2908C249.292 35.2908 239.601 36.5137 234.876 28.452C230.155 20.3903 235.692 9.63831 238.134 7.03106C240.579 4.42843 247.746 0.275299 261.017 5.16215C261.017 5.16215 262.849 -1.03063 271.114 0.31683C279.383 1.65968 286.873 11.7149 286.873 11.7149C286.873 11.7149 292.452 9.55986 297.611 16.5048C302.766 23.4544 302.493 27.8521 302.493 27.8521C302.493 27.8521 313.028 25.6832 316.448 33.2835C319.867 40.8837 316.069 51.4142 303.31 54.1276C303.31 54.1276 301.57 63.1953 293.047 69.3834C293.047 69.3834 315.414 68.5159 334.145 92.4564C352.875 116.397 361.509 158.745 357.273 180.895C355.792 188.648 353.272 193.982 349.405 197.632C349.41 203.133 348.981 229.944 340.716 239.962C331.487 251.143 322.041 252.555 322.041 252.555H205.319C205.319 252.555 209.011 330.297 189.463 351.797L179.016 350.034V370.066H94.6473C94.6473 370.066 99.1281 366.24 106.212 363.061C113.295 359.886 118.916 350.929 122.907 338.553ZM184.387 171.366C185.938 172.995 188.54 171.366 188.947 169.248C189.339 167.217 190.183 158.113 197.544 150.037C198.028 149.507 198.868 149.52 199.329 150.07C199.514 150.286 199.606 150.559 199.606 150.826C199.606 151.08 199.523 151.334 199.357 151.546C197.807 153.558 193.593 159.239 192.043 163.59C190.128 168.966 189.925 172.224 193.063 173.526C193.095 173.539 193.127 173.553 193.155 173.562C195.772 174.61 198.706 173.138 199.537 170.448C200.363 167.762 201.923 163.706 204.544 160.249C207.571 156.258 209.795 154.749 210.866 154.2C211.263 153.997 211.743 154.112 212.001 154.472C212.112 154.629 212.167 154.813 212.167 154.993C212.167 155.266 212.043 155.533 211.812 155.709C210.427 156.761 207.257 159.483 204.341 164.241C202.38 167.439 201.466 169.917 201.041 171.583C200.64 173.156 201.577 174.753 203.136 175.205C204.378 175.565 206.039 175.773 208.005 175.358C212.444 174.421 215.13 168.763 218.794 169.372C222.458 169.982 223.556 174.868 227.345 176.987C231.133 179.105 233.454 178.735 233.454 178.735L233.644 178.763C234.959 170.106 237.589 149.082 233.03 143.434C233.03 143.434 206.837 142.566 201.844 143C196.847 143.434 192.177 147.453 188.162 153.969C184.143 160.48 182.841 169.737 184.387 171.366Z" fill="#32332E"/>
<path d="M142.883 146.747L137.073 123.241H113.16C108.38 123.241 104.504 127.117 104.504 131.898V146.747H142.888H142.883Z" fill="#FFFDF5"/>
<path d="M131.781 150.31C131.781 150.31 116.147 153.693 104.5 171.201V150.029L131.781 150.31Z" fill="#FFFDF5"/>
<path d="M96.1929 315.531L93.1795 321.285L12.8026 283.501C12.8026 283.501 14.9668 280.091 17.9617 278.886L96.1929 315.531Z" fill="#343230"/>
<path d="M124.675 275.73L68.9487 245.615C68.2842 245.255 67.4536 245.504 67.1029 246.173C66.7568 246.829 66.9922 247.636 67.6382 247.996C75.017 252.122 115.385 274.641 123.493 278.176C124.015 278.402 124.619 278.277 125.016 277.866C125.639 277.216 125.473 276.154 124.679 275.725L124.675 275.73Z" stroke="white" stroke-width="3" stroke-miterlimit="10"/>
<path d="M301.381 102.636C300.453 102.636 299.697 103.384 299.687 104.312C299.627 111.653 299.332 140.785 298.478 144.98C298.478 144.98 254.741 140.748 237.547 140.148C236.532 140.112 235.692 140.928 235.692 141.944C235.692 142.913 236.458 143.706 237.427 143.739L245.138 144.006C245.138 144.006 250.796 164.121 242.328 179.742C241.89 180.545 242.222 181.551 243.062 181.92C243.782 182.238 244.626 181.971 245.027 181.292C246.979 178.034 251.677 167.398 248.53 143.974L304.27 148.819C305.183 148.898 305.968 148.178 305.968 147.26C305.968 146.443 305.34 145.764 304.528 145.7L301.948 145.492L303.07 104.372C303.097 103.421 302.331 102.632 301.376 102.632L301.381 102.636Z" stroke="white" stroke-width="3" stroke-miterlimit="10"/>
<path d="M249.342 104.021C248.474 103.837 247.607 104.326 247.321 105.166L241.174 123.047C240.846 123.993 241.382 125.022 242.346 125.299L242.618 125.378C243.523 125.641 244.473 125.138 244.769 124.238L250.643 106.278C250.966 105.29 250.362 104.238 249.346 104.021H249.342Z" stroke="white" stroke-width="3" stroke-miterlimit="10"/>
<path d="M238.544 55.1611L224.428 56.8962" stroke="#32332E" stroke-width="3" stroke-linecap="round" stroke-linejoin="round"/>
<path d="M235.447 47.9956L229.042 47.668" stroke="#32332E" stroke-width="3" stroke-linecap="round" stroke-linejoin="round"/>
<path d="M245.6 67.916L235.448 76.6053" stroke="#32332E" stroke-width="3" stroke-linecap="round" stroke-linejoin="round"/>
<path d="M212.725 182.604H201.406" stroke="white" stroke-width="3" stroke-miterlimit="10"/>
<path d="M196.279 41.397L189.154 73.3207L169.325 69.6567V118.844L184.142 98.4841L211.179 101.253L196.279 41.397Z" fill="#B5DBF3"/>
<path d="M196.686 55.1611L191.476 77.3896L172.173 73.8872L172.579 109.152L182.27 95.3865L207.844 98.3214L196.686 55.1611Z" fill="#FFFCF7"/>
<path d="M154.909 55.5674L125.754 26.0063L132.676 46.9335L121.929 51.1697L141.638 85.0454L139.681 62.6508L154.909 55.5674Z" fill="#B5DBF3"/>
<path d="M149.7 54.4273L132.76 36.8364L136.34 48.7282L126.165 52.4707L137.319 72.0181L136.668 60.0432L149.7 54.4273Z" fill="#FFFCF7"/>
<path d="M115.847 73.1851H99.5618" stroke="#32332E" stroke-width="3" stroke-linecap="round" stroke-linejoin="round"/>
<path d="M97.4438 87.2471H75.6214" stroke="#32332E" stroke-width="3" stroke-linecap="round" stroke-linejoin="round"/>
<path d="M70.4619 73.1851H54.177" stroke="#32332E" stroke-width="3" stroke-linecap="round" stroke-linejoin="round"/>
<path d="M90.5493 73.1851H80.7756" stroke="#32332E" stroke-width="3" stroke-linecap="round" stroke-linejoin="round"/>
<path d="M115.847 87.2471H106.078" stroke="#32332E" stroke-width="3" stroke-linecap="round" stroke-linejoin="round"/>
<path d="M184.96 17.2894C182.577 17.2894 180.645 15.3577 180.645 12.9748C180.645 10.5919 182.577 8.66016 184.96 8.66016C187.343 8.66016 189.274 10.5919 189.274 12.9748C189.274 15.3577 187.343 17.2894 184.96 17.2894Z" stroke="white" stroke-width="3" stroke-miterlimit="10"/>
<path d="M168.883 17.2894C166.5 17.2894 164.568 15.3577 164.568 12.9748C164.568 10.5919 166.5 8.66016 168.883 8.66016C171.266 8.66016 173.197 10.5919 173.197 12.9748C173.197 15.3577 171.266 17.2894 168.883 17.2894Z" stroke="white" stroke-width="3" stroke-miterlimit="10"/>
<path d="M349.188 120.508H405.094C411.873 120.508 417.369 126.004 417.369 132.783V194.508C417.369 201.287 411.873 206.783 405.094 206.783H399.455V224.535H405.168C411.905 224.535 417.369 229.999 417.369 236.736V253.593C417.369 260.33 411.905 265.794 405.168 265.794H399.021V376.923C399.021 378.99 397.346 380.67 395.274 380.67C393.207 380.67 391.527 378.995 391.527 376.923V265.794H205.591" fill="#32332E"/>
<path d="M350.24 123.439H405.237C410.341 123.439 414.48 127.578 414.48 132.682V147.015H356.262" fill="#FFFBF5"/>
<path d="M356.825 149.95H414.48V175.275H358.067" fill="#FFFBF5"/>
<path d="M357.72 178.125H414.48V194.84C414.48 199.865 410.405 203.94 405.38 203.94H349.313" fill="#FFFBF5"/>
<path d="M349.313 206.626H391.749V224.544H346.904" fill="#FFFBF5"/>
<path d="M346.23 227.471H404.379C409.958 227.471 414.48 231.993 414.48 237.573H342.368" fill="#FFFBF5"/>
<path d="M340.716 239.961H414.48V250.003H328.778" fill="#FFFBF5"/>
<path d="M205.591 263.087H404.277C409.916 263.087 414.484 258.518 414.484 252.879V252.39H205.591V263.087Z" fill="#FFFBF5"/>
<path d="M81.5371 198.376L72.3079 210.646L59.7147 202.068L69.05 189.253L81.5371 198.376Z" fill="#B5DBF3"/>
<path d="M59.7153 222.261C59.7153 222.261 53.9609 214.878 42.1245 215.528C30.2881 216.179 25.6227 223.673 15.849 223.779C6.07531 223.89 2.27748 219.631 2.27748 219.631" stroke="#32332E" stroke-width="3" stroke-linecap="round" stroke-linejoin="round"/>
<path d="M59.7153 237.604C59.7153 237.604 53.9609 230.221 42.1245 230.872C30.2881 231.522 25.6227 239.016 15.849 239.123C6.07531 239.229 2.27748 234.974 2.27748 234.974" stroke="#32332E" stroke-width="3" stroke-linecap="round" stroke-linejoin="round"/>
<path d="M410.207 70.3902C410.207 70.3902 407.277 62.3285 397.665 64.8527C388.057 67.3769 385.777 70.8793 378.934 71.3685C372.095 71.8576 366.313 64.9357 366.313 64.9357" stroke="#B5DBF3" stroke-width="3" stroke-linecap="round" stroke-linejoin="round"/>
<path d="M410.207 80.9209C410.207 80.9209 407.277 72.8593 397.665 75.3834C388.057 77.9076 385.777 81.4101 378.934 81.8992C372.09 82.3884 366.313 75.4665 366.313 75.4665" stroke="#B5DBF3" stroke-width="3" stroke-linecap="round" stroke-linejoin="round"/>
<path d="M364.522 57.2742L355.238 64.3622L354.343 53.5317L364.522 57.2742Z" fill="#B5DBF3"/>
<path d="M366.558 360.047C366.558 360.047 356.784 373.295 353.854 380.679" stroke="#32332E" stroke-width="3" stroke-linecap="round" stroke-linejoin="round"/>
<path d="M346.36 370.066L343.919 380.679" stroke="#32332E" stroke-width="3" stroke-linecap="round" stroke-linejoin="round"/>
<path d="M430.4 370.066L423.234 380.679" stroke="#32332E" stroke-width="3" stroke-linecap="round" stroke-linejoin="round"/>
<path d="M233.195 181.568C233.195 181.568 227.519 180.95 225.023 178.342C222.526 175.735 219.919 171.937 218.618 171.937C217.317 171.937 216.934 172.805 216.934 172.805C216.934 172.805 228.336 179.916 228.387 183.391C228.438 186.865 225.507 186.972 222.849 186.972H182.73L171.328 189.307C171.328 189.307 162.624 234.562 138.956 266.2C138.495 266.813 137.632 266.952 136.995 266.523C136.358 266.089 136.174 265.235 136.575 264.575C141.014 257.367 164.415 218.314 167.853 190.225L162.966 190.442L163.183 187.511L180.446 184.47L144.724 156.132L143.529 150.595C143.529 150.595 123.77 153.853 112.801 166.229C101.836 178.605 87.5034 207.816 87.5034 207.816L59.7051 260.044L121.268 290.661L134.189 270.357L123.548 335.289L188.042 349.405C188.042 349.405 195.208 340.827 198.789 318.188C202.37 295.548 202.859 250.002 202.859 250.002L285.76 250.814C285.76 250.814 320.503 251.576 327.998 247.34C335.492 243.103 345.155 237.132 346.345 198.803" fill="#FFFBF5"/>
<path d="M164.641 120.089H226.315C226.315 120.089 244.012 79.7533 265.673 71.6916C265.673 71.6916 253.62 62.084 250.445 52.3103C247.27 42.5366 249.222 35.2917 249.222 35.2917C249.222 35.2917 239.531 36.5145 234.806 28.4529C230.081 20.3912 235.618 9.64377 238.064 7.03653C240.51 4.42928 247.671 0.276147 260.948 5.163C260.948 5.163 262.78 -1.02517 271.044 0.317679C279.309 1.66053 286.803 11.7203 286.803 11.7203C286.803 11.7203 292.382 9.56071 297.537 16.5103C302.696 23.4599 302.424 27.8576 302.424 27.8576C302.424 27.8576 312.954 25.6841 316.378 33.2843C319.798 40.8846 316 51.4151 303.24 54.1331C303.24 54.1331 301.505 63.2007 292.978 69.3889C292.978 69.3889 315.344 68.5214 334.075 92.4619C352.806 116.402 361.435 158.751 357.203 180.901C352.967 203.051 340.263 205.492 311.925 205.169C283.587 204.841 251.88 193.443 232.96 182.529C232.96 182.529 238.742 150.606 232.96 143.439C232.96 143.439 216.306 128.022 164.636 120.094L164.641 120.089Z" fill="#32332E"/>
<path d="M283.573 30.7494C285.982 32.1061 287.519 34.5795 287.98 37.3067C288.243 38.8757 288.649 41.0999 291.095 41.0446C294.464 40.9707 294.565 38.6219 294.496 36.7945C294.477 36.2777 294.699 35.7885 295.105 35.4655C297.237 33.7904 304.274 28.8297 310.153 31.2709C317.481 34.3119 316.452 49.6738 301.196 51.4643C301.196 51.4643 297.994 68.566 282.899 71.9854C267.805 75.4048 259.716 62.2117 259.716 62.2117C259.716 62.2117 248.424 49.78 252.443 35.2855C252.443 35.2855 257.653 35.0133 264.496 31.8108C269.628 29.4066 278.086 27.6484 283.578 30.7448L283.573 30.7494Z" fill="#FFFBF5"/>
<path d="M308.303 35.7241C308.303 35.7241 300.486 35.8349 298.963 43.975" stroke="#32332E" stroke-width="3" stroke-linecap="round" stroke-linejoin="round"/>
<path d="M261.451 47.9941C261.451 47.9941 262.701 56.7896 265.087 61.5657" stroke="#32332E" stroke-width="3" stroke-linecap="round" stroke-linejoin="round"/>
<path d="M272.42 50.1018C270.596 50.1018 269.117 48.6232 269.117 46.7992C269.117 44.9752 270.596 43.4966 272.42 43.4966C274.244 43.4966 275.722 44.9752 275.722 46.7992C275.722 48.6232 274.244 50.1018 272.42 50.1018Z" fill="#32332E"/>
<path d="M224.94 123.241C224.94 123.241 222.255 128.94 221.115 133.259C221.115 133.259 187.484 134.805 174.046 139.447C174.046 139.447 173.557 128.372 170.22 123.241H224.945H224.94Z" fill="#FFFBF5"/>
<path d="M181.96 160.536C181.526 160.536 181.157 160.227 181.079 159.803L179.261 149.872L181.729 145.853C181.942 145.507 181.845 145.05 181.513 144.819C181.185 144.593 180.737 144.657 180.483 144.967L178.527 147.352L177.793 141.409C177.793 141.409 180.89 139.535 184.554 140.269C188.218 141.003 192.615 144.095 192.615 144.095C192.615 144.095 186.796 148.654 182.809 159.941C182.68 160.301 182.343 160.546 181.965 160.546L181.96 160.536Z" fill="#FFFBF5"/>
<path d="M159.062 138.547L153.28 144.329L146.889 137.938L152.556 132.267L159.062 138.547Z" fill="#FFFBF5"/>
<path d="M179.016 372.861V378.071H89.7653C89.7653 378.071 89.7653 374.38 92.8063 372.861H179.016Z" fill="#343230"/>
<path d="M131.541 351.251L118.984 348.478" stroke="#FFFBF5" stroke-width="3" stroke-linecap="round" stroke-linejoin="round"/>
<path d="M128.449 361.188L114.209 356.361" stroke="#FFFBF5" stroke-width="3" stroke-linecap="round" stroke-linejoin="round"/>
<path d="M57.8179 274.16L51.3805 269.444" stroke="#FFFBF5" stroke-width="3" stroke-linecap="round" stroke-linejoin="round"/>
<path d="M52.064 278.885L46.005 273.251" stroke="#FFFBF5" stroke-width="3" stroke-linecap="round" stroke-linejoin="round"/>
</g>
</svg>
