<svg width="40" height="34" viewBox="0 0 40 34" fill="none" xmlns="http://www.w3.org/2000/svg">
<path d="M19.6887 14.3645C23.4896 14.3645 26.5708 11.2833 26.5708 7.48242C26.5708 3.68155 23.4896 0.600342 19.6887 0.600342C15.8879 0.600342 12.8066 3.68155 12.8066 7.48242C12.8066 11.2833 15.8879 14.3645 19.6887 14.3645Z" fill="white"/>
<path d="M16.2726 15.6848H23.1056C26.2584 15.6848 28.8177 18.2441 28.8177 21.3969V32.9421C28.8177 33.4927 28.3699 33.9404 27.8194 33.9404H11.5588C11.0083 33.9404 10.5605 33.4927 10.5605 32.9421V21.3969C10.5605 18.2441 13.1199 15.6848 16.2726 15.6848Z" fill="white"/>
<path d="M31.6058 17.2C34.3955 17.2 36.657 14.9385 36.657 12.1488C36.657 9.35913 34.3955 7.09766 31.6058 7.09766C28.8162 7.09766 26.5547 9.35913 26.5547 12.1488C26.5547 14.9385 28.8162 17.2 31.6058 17.2Z" fill="white"/>
<path d="M39.2942 24.3917V30.6144C39.2942 32.453 37.8037 33.942 35.9666 33.942H31.2835C31.3755 33.6245 31.4246 33.2902 31.4246 32.9437V21.3969C31.4246 20.4032 31.2498 19.451 30.9277 18.5662H33.4686C36.6858 18.5662 39.2942 21.1745 39.2942 24.3917Z" fill="white"/>
<path d="M7.77283 17.2C10.5625 17.2 12.824 14.9385 12.824 12.1488C12.824 9.35913 10.5625 7.09766 7.77283 7.09766C4.98316 7.09766 2.72168 9.35913 2.72168 12.1488C2.72168 14.9385 4.98316 17.2 7.77283 17.2Z" fill="white"/>
<path d="M0.0839844 24.3917V30.6144C0.0839844 32.453 1.57449 33.942 3.41155 33.942H8.09467C8.00267 33.6245 7.9536 33.2902 7.9536 32.9437V21.3969C7.9536 20.4032 8.12841 19.451 8.45043 18.5662H5.90952C2.69237 18.5662 0.0839844 21.1745 0.0839844 24.3917Z" fill="white"/>
</svg>
