<svg width="40" height="34" viewBox="0 0 40 34" fill="none" xmlns="http://www.w3.org/2000/svg">
<path d="M19.6895 1.6001C22.938 1.6001 25.5712 4.23346 25.5713 7.48193C25.5713 10.7305 22.938 13.3638 19.6895 13.3638C16.441 13.3636 13.8076 10.7304 13.8076 7.48193C13.8077 4.23354 16.4411 1.60023 19.6895 1.6001Z" stroke="#8C8C8C" stroke-width="2" stroke-linejoin="round"/>
<path d="M16.2729 16.6846H23.106C25.7064 16.6846 27.8178 18.7961 27.8179 21.3965V32.9404H11.561V21.3965C11.5611 18.7961 13.6726 16.6847 16.2729 16.6846Z" stroke="#8C8C8C" stroke-width="2" stroke-linejoin="round"/>
<path d="M31.6055 8.09741C33.8427 8.09741 35.657 9.91097 35.6572 12.1482C35.6572 14.3856 33.8429 16.2 31.6055 16.2C29.3683 16.1998 27.5547 14.3855 27.5547 12.1482C27.5549 9.9111 29.3684 8.09761 31.6055 8.09741Z" stroke="#8C8C8C" stroke-width="2" stroke-linejoin="round"/>
<path d="M33.4692 19.5659C36.1339 19.566 38.2942 21.7264 38.2944 24.3911V30.6138C38.2944 31.8997 37.2523 32.9418 35.9673 32.9419H32.4253V21.397C32.4253 20.8426 32.3765 20.2984 32.2827 19.769C32.272 19.7084 32.2896 19.642 32.3237 19.5962C32.3389 19.5759 32.3509 19.5676 32.354 19.5659H33.4692Z" stroke="#8C8C8C" stroke-width="2" stroke-linejoin="round"/>
<path d="M7.77295 8.09741C10.0102 8.09741 11.8245 9.91097 11.8247 12.1482C11.8247 14.3856 10.0103 16.2 7.77295 16.2C5.53573 16.1998 3.72217 14.3855 3.72217 12.1482C3.72237 9.9111 5.53585 8.09761 7.77295 8.09741Z" stroke="#8C8C8C" stroke-width="2" stroke-linejoin="round"/>
<path d="M5.90967 19.5659H7.0249C7.02804 19.5676 7.04101 19.5759 7.05615 19.5962C7.09012 19.642 7.1069 19.7086 7.09619 19.769C7.00242 20.2984 6.95361 20.8426 6.95361 21.397V32.9419H3.41162C2.12674 32.9417 1.08447 31.8996 1.08447 30.6138V24.3911C1.08466 21.7265 3.24507 19.5661 5.90967 19.5659Z" stroke="#8C8C8C" stroke-width="2" stroke-linejoin="round"/>
</svg>
