<svg width="261" height="424" viewBox="0 0 261 424" fill="none" xmlns="http://www.w3.org/2000/svg">
<path d="M1.70215 54.8953C1.70215 54.8953 7.0026 64.4652 19.6366 59.7601C32.2705 55.0551 38.6891 38.326 39.1103 35.4942C39.5314 32.6625 27.3186 33.2724 31.3411 45.0641C35.3636 56.8558 41.8549 65.9029 52.0927 63.4342C62.3306 60.9654 74.1368 28.4076 82.937 28.2333C91.7372 28.0591 94.903 52.7461 102.164 52.659C109.425 52.5719 115.146 31.3846 141.46 40.359" stroke="#B5DBF3" stroke-width="3" stroke-miterlimit="10"/>
<path d="M149.475 102.385H34.1577V182.85H149.475V102.385Z" stroke="#B5DBF3" stroke-width="3" stroke-miterlimit="10"/>
<path d="M62.8696 130.583H129.234" stroke="#B5DBF3" stroke-width="3" stroke-miterlimit="10"/>
<path d="M62.8696 155.185H111.3" stroke="#B5DBF3" stroke-width="3" stroke-miterlimit="10"/>
<path d="M34.1577 182.861V214.882L61.8362 182.861H34.1577Z" stroke="#B5DBF3" stroke-width="3" stroke-miterlimit="10"/>
<path d="M173.308 318.935H84.8989V421.691H173.308V318.935Z" stroke="#B5DBF3" stroke-width="3" stroke-miterlimit="10"/>
<path d="M111.038 401.967C111.038 401.967 139.995 391.206 140.256 339.175" stroke="#B5DBF3" stroke-width="3" stroke-miterlimit="10"/>
<path d="M131.964 348.325L140.256 337.898L148.2 347.468" stroke="#B5DBF3" stroke-width="3" stroke-miterlimit="10"/>
<path d="M190.051 327.82C190.051 327.82 197.399 334.137 208.334 331.407C219.269 328.677 222.856 314.155 222.682 310.394C222.507 306.633 212.255 315.012 219.603 327.646C226.951 340.28 239.251 335.851 246.425 322.868C253.599 309.886 260.264 306.807 260.264 306.807" stroke="#B5DBF3" stroke-width="3" stroke-miterlimit="10"/>
<path d="M185.955 196.27C190.013 196.27 193.303 192.98 193.303 188.922C193.303 184.864 190.013 181.574 185.955 181.574C181.897 181.574 178.607 184.864 178.607 188.922C178.607 192.98 181.897 196.27 185.955 196.27Z" stroke="#B5DBF3" stroke-width="3" stroke-miterlimit="10"/>
<path d="M129.233 9.8828C131.383 9.8828 133.125 8.14036 133.125 5.99096C133.125 3.84156 131.383 2.09912 129.233 2.09912C127.084 2.09912 125.341 3.84156 125.341 5.99096C125.341 8.14036 127.084 9.8828 129.233 9.8828Z" stroke="#B5DBF3" stroke-width="3" stroke-miterlimit="10"/>
</svg>
