<svg width="40" height="36" viewBox="0 0 40 36" fill="none" xmlns="http://www.w3.org/2000/svg">
<path d="M19.6885 0.787109H11.7972C10.146 0.787109 8.62312 1.68193 7.82116 3.12546L0.655843 16.0176C-0.107286 17.3919 -0.107286 19.0634 0.655843 20.4377L7.82116 33.3282C8.62312 34.7717 10.146 35.6665 11.7972 35.6665H27.5798C29.231 35.6665 30.7539 34.7717 31.5558 33.3282L38.7211 20.4377C39.4843 19.0634 39.4843 17.3919 38.7211 16.0176L31.5558 3.12546C30.7539 1.68193 29.231 0.787109 27.5798 0.787109H19.6885Z" fill="white"/>
<path d="M19.6884 25.1376C23.5059 25.1376 26.6005 22.043 26.6005 18.2255C26.6005 14.4081 23.5059 11.3135 19.6884 11.3135C15.871 11.3135 12.7764 14.4081 12.7764 18.2255C12.7764 22.043 15.871 25.1376 19.6884 25.1376Z" fill="#0164A5"/>
</svg>
