<svg width="42" height="38" viewBox="0 0 42 38" fill="none" xmlns="http://www.w3.org/2000/svg">
<path d="M20.6885 1.78711H12.7972C11.146 1.78711 9.62312 2.68193 8.82116 4.12546L1.65584 17.0176C0.892714 18.3919 0.892714 20.0634 1.65584 21.4377L8.82116 34.3282C9.62312 35.7717 11.146 36.6665 12.7972 36.6665H28.5798C30.231 36.6665 31.7539 35.7717 32.5558 34.3282L39.7211 21.4377C40.4843 20.0634 40.4843 18.3919 39.7211 17.0176L32.5558 4.12546C31.7539 2.68193 30.231 1.78711 28.5798 1.78711H20.6885Z" stroke="#8C8C8C" stroke-width="2" stroke-miterlimit="10" stroke-linecap="round" stroke-linejoin="round"/>
<path d="M20.6884 26.1376C24.5059 26.1376 27.6005 23.043 27.6005 19.2255C27.6005 15.4081 24.5059 12.3135 20.6884 12.3135C16.871 12.3135 13.7764 15.4081 13.7764 19.2255C13.7764 23.043 16.871 26.1376 20.6884 26.1376Z" stroke="#8C8C8C" stroke-width="2" stroke-miterlimit="10" stroke-linecap="round" stroke-linejoin="round"/>
</svg>
