<svg width="42" height="42" viewBox="0 0 42 42" fill="none" xmlns="http://www.w3.org/2000/svg">
<path d="M15.6338 16.7164C19.9405 16.7164 23.4317 13.2251 23.4317 8.91849C23.4317 4.61184 19.9405 1.12061 15.6338 1.12061C11.3272 1.12061 7.83594 4.61184 7.83594 8.91849C7.83594 13.2251 11.3272 16.7164 15.6338 16.7164Z" stroke="#8C8C8C" stroke-width="2" stroke-miterlimit="10" stroke-linejoin="round"/>
<path d="M22.169 40.3308H2.44689C1.7935 40.3308 1.2666 39.7945 1.2781 39.1411C1.29274 38.3842 1.28855 37.2091 1.21956 35.4601C1.07215 31.6966 1.81023 25.793 7.8361 21.882C12.8939 18.6004 18.5225 20.0985 20.2025 20.6652C19.8502 20.9903 19.5481 21.375 19.3108 21.8099L17.8294 24.5186C16.832 26.3398 17.1938 28.555 18.6636 29.9622C17.1938 31.3683 16.832 33.5846 17.8294 35.4058L19.3118 38.1145C19.9234 39.2331 20.9657 40.0255 22.169 40.3308Z" stroke="#8C8C8C" stroke-width="2" stroke-miterlimit="10" stroke-linejoin="round"/>
<path d="M30.6219 40.3057H29.1008C28.691 40.3057 28.3586 39.9732 28.3586 39.5634V37.2802C28.3586 37.2802 26.4235 36.4742 25.6122 35.7214L23.6061 36.6383C23.2391 36.8056 22.8052 36.6623 22.6118 36.3079L21.1294 33.5992C20.9486 33.2678 21.0343 32.8538 21.3322 32.6228L23.1272 31.2292C23.1272 31.2292 23.0352 30.2758 23.0718 29.9622C23.0352 29.6485 23.1272 28.6951 23.1272 28.6951L21.3322 27.3015C21.0343 27.0694 20.9486 26.6565 21.1294 26.3251L22.6118 23.6164C22.8052 23.263 23.2391 23.1188 23.6061 23.286L25.6122 24.2029C26.4235 23.4491 28.3586 22.6441 28.3586 22.6441V20.3609C28.3586 19.9511 28.691 19.6187 29.1008 19.6187H32.1431C32.5529 19.6187 32.8853 19.9511 32.8853 20.3609V22.6441C32.8853 22.6441 34.8204 23.4502 35.6317 24.2029L37.6378 23.286C38.0048 23.1188 38.4386 23.262 38.632 23.6164L40.1145 26.3251C40.2953 26.6565 40.2096 27.0705 39.9117 27.3015L38.1167 28.6951C38.1167 28.6951 38.2086 29.6485 38.1721 29.9622C38.2086 30.2758 38.1167 31.2292 38.1167 31.2292L39.9117 32.6228C40.2096 32.8549 40.2953 33.2678 40.1145 33.5992L38.632 36.3079C38.4386 36.6613 38.0048 36.8056 37.6378 36.6383L35.6317 35.7214C34.8204 36.4752 32.8853 37.2802 32.8853 37.2802V39.5634C32.8853 39.9732 32.5529 40.3057 32.1431 40.3057H30.6219Z" stroke="#8C8C8C" stroke-width="2" stroke-miterlimit="10" stroke-linejoin="round"/>
<path d="M30.6222 33.4779C32.564 33.4779 34.138 31.9038 34.138 29.9621C34.138 28.0204 32.564 26.4463 30.6222 26.4463C28.6805 26.4463 27.1064 28.0204 27.1064 29.9621C27.1064 31.9038 28.6805 33.4779 30.6222 33.4779Z" stroke="#8C8C8C" stroke-width="2" stroke-miterlimit="10" stroke-linejoin="round"/>
</svg>
