<svg width="40" height="40" viewBox="0 0 40 40" fill="none" xmlns="http://www.w3.org/2000/svg">
<path d="M14.6348 15.7164C18.9414 15.7164 22.4327 12.2251 22.4327 7.91849C22.4327 3.61184 18.9414 0.120605 14.6348 0.120605C10.3281 0.120605 6.83691 3.61184 6.83691 7.91849C6.83691 12.2251 10.3281 15.7164 14.6348 15.7164Z" fill="white"/>
<path d="M21.17 39.3308H1.44787C0.794475 39.3308 0.267577 38.7945 0.279077 38.1411C0.293713 37.3842 0.289531 36.2091 0.220532 34.4601C0.0731265 30.6966 0.811202 24.793 6.83707 20.882C11.8949 17.6004 17.5235 19.0985 19.2035 19.6652C18.8512 19.9903 18.5491 20.375 18.3117 20.8099L16.8304 23.5186C15.833 25.3398 16.1947 27.555 17.6646 28.9622C16.1947 30.3683 15.833 32.5846 16.8304 34.4058L18.3128 37.1145C18.9244 38.2331 19.9667 39.0255 21.17 39.3308Z" fill="white"/>
<path d="M29.6234 39.3057H28.1023C27.6925 39.3057 27.3601 38.9732 27.3601 38.5634V36.2802C27.3601 36.2802 25.425 35.4742 24.6137 34.7214L22.6075 35.6383C22.2406 35.8056 21.8067 35.6623 21.6133 35.3079L20.1309 32.5992C19.95 32.2678 20.0358 31.8538 20.3337 31.6228L22.1287 30.2292C22.1287 30.2292 22.0367 29.2758 22.0733 28.9622C22.0367 28.6485 22.1287 27.6951 22.1287 27.6951L20.3337 26.3015C20.0358 26.0694 19.95 25.6565 20.1309 25.3251L21.6133 22.6164C21.8067 22.263 22.2406 22.1188 22.6075 22.286L24.6137 23.2029C25.425 22.4491 27.3601 21.6441 27.3601 21.6441V19.3609C27.3601 18.9511 27.6925 18.6187 28.1023 18.6187H31.1445C31.5543 18.6187 31.8868 18.9511 31.8868 19.3609V21.6441C31.8868 21.6441 33.8219 22.4502 34.6331 23.2029L36.6393 22.286C37.0063 22.1188 37.4401 22.262 37.6335 22.6164L39.1159 25.3251C39.2968 25.6565 39.2111 26.0705 38.9131 26.3015L37.1181 27.6951C37.1181 27.6951 37.2101 28.6485 37.1735 28.9622C37.2101 29.2758 37.1181 30.2292 37.1181 30.2292L38.9131 31.6228C39.2111 31.8549 39.2968 32.2678 39.1159 32.5992L37.6335 35.3079C37.4401 35.6613 37.0063 35.8056 36.6393 35.6383L34.6331 34.7214C33.8219 35.4752 31.8868 36.2802 31.8868 36.2802V38.5634C31.8868 38.9732 31.5543 39.3057 31.1445 39.3057H29.6234Z" fill="white"/>
<path d="M29.6232 32.4779C31.5649 32.4779 33.139 30.9038 33.139 28.9621C33.139 27.0204 31.5649 25.4463 29.6232 25.4463C27.6815 25.4463 26.1074 27.0204 26.1074 28.9621C26.1074 30.9038 27.6815 32.4779 29.6232 32.4779Z" fill="#0164A5"/>
</svg>
