<svg width="26" height="25" viewBox="0 0 26 25" fill="none" xmlns="http://www.w3.org/2000/svg">
<path d="M1.90771 8.89081H22.1528V7.14389C22.1528 4.94441 20.3695 3.16211 18.171 3.16211H5.8895C3.69095 3.16118 1.90771 4.94441 1.90771 7.14296V18.0649C1.90771 20.2644 3.69095 22.0467 5.8895 22.0467H10.4523" stroke="#0F0F0F" stroke-width="2" stroke-miterlimit="10" stroke-linecap="round" stroke-linejoin="round"/>
<path d="M7.53857 1.38672V5.39644" stroke="#0F0F0F" stroke-width="2" stroke-miterlimit="10" stroke-linecap="round" stroke-linejoin="round"/>
<path d="M16.7632 1.38672V5.39644" stroke="#0F0F0F" stroke-width="2" stroke-miterlimit="10" stroke-linecap="round" stroke-linejoin="round"/>
<path d="M5.703 13.5954C6.24388 13.5954 6.68236 13.157 6.68236 12.6161C6.68236 12.0752 6.24388 11.6367 5.703 11.6367C5.16211 11.6367 4.72363 12.0752 4.72363 12.6161C4.72363 13.157 5.16211 13.5954 5.703 13.5954Z" stroke="#0F0F0F" stroke-miterlimit="10" stroke-linecap="round" stroke-linejoin="round"/>
<path d="M9.62975 13.5954C10.1706 13.5954 10.6091 13.157 10.6091 12.6161C10.6091 12.0752 10.1706 11.6367 9.62975 11.6367C9.08887 11.6367 8.65039 12.0752 8.65039 12.6161C8.65039 13.157 9.08887 13.5954 9.62975 13.5954Z" stroke="#0F0F0F" stroke-miterlimit="10" stroke-linecap="round" stroke-linejoin="round"/>
<path d="M5.703 17.4773C6.24388 17.4773 6.68236 17.0388 6.68236 16.4979C6.68236 15.957 6.24388 15.5186 5.703 15.5186C5.16211 15.5186 4.72363 15.957 4.72363 16.4979C4.72363 17.0388 5.16211 17.4773 5.703 17.4773Z" stroke="#0F0F0F" stroke-miterlimit="10" stroke-linecap="round" stroke-linejoin="round"/>
<path d="M9.62975 17.4773C10.1706 17.4773 10.6091 17.0388 10.6091 16.4979C10.6091 15.957 10.1706 15.5186 9.62975 15.5186C9.08887 15.5186 8.65039 15.957 8.65039 16.4979C8.65039 17.0388 9.08887 17.4773 9.62975 17.4773Z" stroke="#0F0F0F" stroke-miterlimit="10" stroke-linecap="round" stroke-linejoin="round"/>
<path d="M18.4282 23.6768C21.6106 23.6768 24.1905 21.097 24.1905 17.9146C24.1905 14.7322 21.6106 12.1523 18.4282 12.1523C15.2459 12.1523 12.666 14.7322 12.666 17.9146C12.666 21.097 15.2459 23.6768 18.4282 23.6768Z" stroke="#0F0F0F" stroke-width="2" stroke-miterlimit="10" stroke-linecap="round" stroke-linejoin="round"/>
<path d="M18.4282 15.4717V17.9142H20.3781" stroke="#0F0F0F" stroke-width="2" stroke-miterlimit="10" stroke-linecap="round" stroke-linejoin="round"/>
</svg>
