<svg width="62" height="63" viewBox="0 0 42 43" fill="none" xmlns="http://www.w3.org/2000/svg">
<path d="M15.1128 2.81309C16.9753 2.21629 18.9604 1.89355 21.0195 1.89355C31.7041 1.89355 40.364 10.5552 40.364 21.2381C40.364 26.9049 37.9281 32.002 34.0444 35.5413" stroke="#FFFFFF" stroke-width="2" stroke-miterlimit="10" stroke-linecap="round" stroke-linejoin="round"/>
<path d="M32.0825 32.958V37.031H36.7271" stroke="#FFFFFF" stroke-width="2" stroke-miterlimit="10" stroke-linecap="round" stroke-linejoin="round"/>
<path d="M26.2661 40.1843C24.4036 40.7811 22.4185 41.1038 20.3577 41.1038C9.67485 41.1038 1.01318 32.4422 1.01318 21.7593C1.01318 16.0925 3.44905 10.9936 7.33274 7.45605" stroke="#FFFFFF" stroke-width="2" stroke-miterlimit="10" stroke-linecap="round" stroke-linejoin="round"/>
<path d="M9.29641 10.0398V5.9668H4.65186" stroke="#FFFFFF" stroke-width="2" stroke-miterlimit="10" stroke-linecap="round" stroke-linejoin="round"/>
<path d="M20.7401 20.367C23.5522 20.367 25.8318 18.0874 25.8318 15.2753C25.8318 12.4632 23.5522 10.1836 20.7401 10.1836C17.9281 10.1836 15.6484 12.4632 15.6484 15.2753C15.6484 18.0874 17.9281 20.367 20.7401 20.367Z" stroke="#FFFFFF" stroke-width="2" stroke-miterlimit="10" stroke-linecap="round" stroke-linejoin="round" fill="#FFFFFF"/>
<path d="M29.7226 28.4158C29.3349 24.5916 27.2453 22.5506 25.1772 21.4615C22.406 20.0011 19.0596 20.0011 16.2866 21.4615C14.251 22.5343 12.1937 24.5285 11.761 28.2373C11.6835 28.908 12.0855 29.539 12.7274 29.7428C15.4463 30.6046 22.9379 32.5266 28.904 29.8221C29.4485 29.5751 29.7803 29.0089 29.719 28.4158H29.7226Z" stroke="#FFFFFF" stroke-width="2" stroke-miterlimit="10" stroke-linecap="round" stroke-linejoin="round" fill="#FFFFFF"/>
</svg>
