<?xml version="1.0" encoding="UTF-8" standalone="no"?>
<!DOCTYPE svg PUBLIC "-//W3C//DTD SVG 1.1//EN"
 "http://www.w3.org/Graphics/SVG/1.1/DTD/svg11.dtd">
<!-- Generated by graphviz version 2.43.0 (0)
 -->
<!-- Title: AssessmentDeps Pages: 1 -->
<svg width="2608pt" height="338pt"
 viewBox="0.00 0.00 2607.93 338.00" xmlns="http://www.w3.org/2000/svg" xmlns:xlink="http://www.w3.org/1999/xlink">
<g id="graph0" class="graph" transform="scale(1 1) rotate(0) translate(4 334)">
<title>AssessmentDeps</title>
<polygon fill="white" stroke="transparent" points="-4,4 -4,-334 2603.93,-334 2603.93,4 -4,4"/>
<!-- routes/api.php -->
<g id="node1" class="node">
<title>routes/api.php</title>
<path fill="none" stroke="black" d="M709,-158C709,-158 639,-158 639,-158 633,-158 627,-152 627,-146 627,-146 627,-134 627,-134 627,-128 633,-122 639,-122 639,-122 709,-122 709,-122 715,-122 721,-128 721,-134 721,-134 721,-146 721,-146 721,-152 715,-158 709,-158"/>
<text text-anchor="middle" x="674" y="-136.3" font-family="Times,serif" font-size="14.00">routes/api.php</text>
</g>
<!-- AssessmentResultController\n(app/Http/Controllers/AssessmentResultController.php) -->
<g id="node2" class="node">
<title>AssessmentResultController\n(app/Http/Controllers/AssessmentResultController.php)</title>
<path fill="none" stroke="black" d="M1187.5,-218C1187.5,-218 892.5,-218 892.5,-218 886.5,-218 880.5,-212 880.5,-206 880.5,-206 880.5,-192 880.5,-192 880.5,-186 886.5,-180 892.5,-180 892.5,-180 1187.5,-180 1187.5,-180 1193.5,-180 1199.5,-186 1199.5,-192 1199.5,-192 1199.5,-206 1199.5,-206 1199.5,-212 1193.5,-218 1187.5,-218"/>
<text text-anchor="middle" x="1040" y="-202.8" font-family="Times,serif" font-size="14.00">AssessmentResultController</text>
<text text-anchor="middle" x="1040" y="-187.8" font-family="Times,serif" font-size="14.00">(app/Http/Controllers/AssessmentResultController.php)</text>
</g>
<!-- routes/api.php&#45;&gt;AssessmentResultController\n(app/Http/Controllers/AssessmentResultController.php) -->
<g id="edge1" class="edge">
<title>routes/api.php&#45;&gt;AssessmentResultController\n(app/Http/Controllers/AssessmentResultController.php)</title>
<path fill="none" stroke="black" d="M721.34,-147.72C759.39,-154.03 814.67,-163.17 863,-171 877.78,-173.39 893.26,-175.88 908.66,-178.35"/>
<polygon fill="black" stroke="black" points="908.32,-181.84 918.75,-179.96 909.43,-174.93 908.32,-181.84"/>
</g>
<!-- AssessmentResponseController\n(app/Http/Controllers/AssessmentResponseController.php) -->
<g id="node3" class="node">
<title>AssessmentResponseController\n(app/Http/Controllers/AssessmentResponseController.php)</title>
<path fill="none" stroke="black" d="M1196,-99C1196,-99 884,-99 884,-99 878,-99 872,-93 872,-87 872,-87 872,-73 872,-73 872,-67 878,-61 884,-61 884,-61 1196,-61 1196,-61 1202,-61 1208,-67 1208,-73 1208,-73 1208,-87 1208,-87 1208,-93 1202,-99 1196,-99"/>
<text text-anchor="middle" x="1040" y="-83.8" font-family="Times,serif" font-size="14.00">AssessmentResponseController</text>
<text text-anchor="middle" x="1040" y="-68.8" font-family="Times,serif" font-size="14.00">(app/Http/Controllers/AssessmentResponseController.php)</text>
</g>
<!-- routes/api.php&#45;&gt;AssessmentResponseController\n(app/Http/Controllers/AssessmentResponseController.php) -->
<g id="edge2" class="edge">
<title>routes/api.php&#45;&gt;AssessmentResponseController\n(app/Http/Controllers/AssessmentResponseController.php)</title>
<path fill="none" stroke="black" d="M721.1,-132.4C769.23,-124.47 846.82,-111.68 913.29,-100.72"/>
<polygon fill="black" stroke="black" points="914.14,-104.13 923.44,-99.05 913,-97.22 914.14,-104.13"/>
</g>
<!-- AssessmentCalculationService\n(app/Services/AssessmentCalculationService.php) -->
<g id="node4" class="node">
<title>AssessmentCalculationService\n(app/Services/AssessmentCalculationService.php)</title>
<polygon fill="none" stroke="black" points="1537,-170 1253,-170 1253,-132 1543,-132 1543,-164 1537,-170"/>
<polyline fill="none" stroke="black" points="1537,-170 1537,-164 "/>
<polyline fill="none" stroke="black" points="1543,-164 1537,-164 "/>
<text text-anchor="middle" x="1398" y="-154.8" font-family="Times,serif" font-size="14.00">AssessmentCalculationService</text>
<text text-anchor="middle" x="1398" y="-139.8" font-family="Times,serif" font-size="14.00">(app/Services/AssessmentCalculationService.php)</text>
</g>
<!-- AssessmentResultController\n(app/Http/Controllers/AssessmentResultController.php)&#45;&gt;AssessmentCalculationService\n(app/Services/AssessmentCalculationService.php) -->
<g id="edge3" class="edge">
<title>AssessmentResultController\n(app/Http/Controllers/AssessmentResultController.php)&#45;&gt;AssessmentCalculationService\n(app/Services/AssessmentCalculationService.php)</title>
<path fill="none" stroke="black" d="M1181.96,-179.99C1203,-177.16 1224.77,-174.22 1246.01,-171.36"/>
<polygon fill="black" stroke="black" points="1246.61,-174.81 1256.06,-170 1245.68,-167.87 1246.61,-174.81"/>
</g>
<!-- AssessmentResult\n(app/Models/AssessmentResult.php) -->
<g id="node5" class="node">
<title>AssessmentResult\n(app/Models/AssessmentResult.php)</title>
<ellipse fill="none" stroke="black" cx="1744.46" cy="-234" rx="153.38" ry="26.74"/>
<text text-anchor="middle" x="1744.46" y="-237.8" font-family="Times,serif" font-size="14.00">AssessmentResult</text>
<text text-anchor="middle" x="1744.46" y="-222.8" font-family="Times,serif" font-size="14.00">(app/Models/AssessmentResult.php)</text>
</g>
<!-- AssessmentResultController\n(app/Http/Controllers/AssessmentResultController.php)&#45;&gt;AssessmentResult\n(app/Models/AssessmentResult.php) -->
<g id="edge4" class="edge">
<title>AssessmentResultController\n(app/Http/Controllers/AssessmentResultController.php)&#45;&gt;AssessmentResult\n(app/Models/AssessmentResult.php)</title>
<path fill="none" stroke="black" d="M1199.58,-209.01C1217.6,-210.06 1235.69,-211.08 1253,-212 1363.77,-217.88 1488.68,-223.47 1584.71,-227.54"/>
<polygon fill="black" stroke="black" points="1584.66,-231.04 1594.8,-227.97 1584.96,-224.05 1584.66,-231.04"/>
</g>
<!-- AssessmentResponseController\n(app/Http/Controllers/AssessmentResponseController.php)&#45;&gt;AssessmentCalculationService\n(app/Services/AssessmentCalculationService.php) -->
<g id="edge7" class="edge">
<title>AssessmentResponseController\n(app/Http/Controllers/AssessmentResponseController.php)&#45;&gt;AssessmentCalculationService\n(app/Services/AssessmentCalculationService.php)</title>
<path fill="none" stroke="black" d="M1136.91,-99.05C1162.9,-104.22 1191.03,-109.82 1217,-115 1241.17,-119.82 1267.17,-125.01 1291.68,-129.92"/>
<polygon fill="black" stroke="black" points="1291.23,-133.39 1301.72,-131.92 1292.6,-126.53 1291.23,-133.39"/>
</g>
<!-- AssessmentResponse\n(app/Models/AssessmentResponse.php) -->
<g id="node6" class="node">
<title>AssessmentResponse\n(app/Models/AssessmentResponse.php)</title>
<ellipse fill="none" stroke="black" cx="1744.46" cy="-68" rx="165.43" ry="26.74"/>
<text text-anchor="middle" x="1744.46" y="-71.8" font-family="Times,serif" font-size="14.00">AssessmentResponse</text>
<text text-anchor="middle" x="1744.46" y="-56.8" font-family="Times,serif" font-size="14.00">(app/Models/AssessmentResponse.php)</text>
</g>
<!-- AssessmentResponseController\n(app/Http/Controllers/AssessmentResponseController.php)&#45;&gt;AssessmentResponse\n(app/Models/AssessmentResponse.php) -->
<g id="edge5" class="edge">
<title>AssessmentResponseController\n(app/Http/Controllers/AssessmentResponseController.php)&#45;&gt;AssessmentResponse\n(app/Models/AssessmentResponse.php)</title>
<path fill="none" stroke="black" d="M1208.36,-77.14C1317.37,-75.28 1459.28,-72.85 1569.57,-70.97"/>
<polygon fill="black" stroke="black" points="1569.86,-74.47 1579.8,-70.8 1569.75,-67.47 1569.86,-74.47"/>
</g>
<!-- AssessmentTime\n(app/Models/AssessmentTime.php) -->
<g id="node7" class="node">
<title>AssessmentTime\n(app/Models/AssessmentTime.php)</title>
<path fill="none" stroke="black" d="M1492,-38C1492,-38 1304,-38 1304,-38 1298,-38 1292,-32 1292,-26 1292,-26 1292,-12 1292,-12 1292,-6 1298,0 1304,0 1304,0 1492,0 1492,0 1498,0 1504,-6 1504,-12 1504,-12 1504,-26 1504,-26 1504,-32 1498,-38 1492,-38"/>
<text text-anchor="middle" x="1398" y="-22.8" font-family="Times,serif" font-size="14.00">AssessmentTime</text>
<text text-anchor="middle" x="1398" y="-7.8" font-family="Times,serif" font-size="14.00">(app/Models/AssessmentTime.php)</text>
</g>
<!-- AssessmentResponseController\n(app/Http/Controllers/AssessmentResponseController.php)&#45;&gt;AssessmentTime\n(app/Models/AssessmentTime.php) -->
<g id="edge6" class="edge">
<title>AssessmentResponseController\n(app/Http/Controllers/AssessmentResponseController.php)&#45;&gt;AssessmentTime\n(app/Models/AssessmentTime.php)</title>
<path fill="none" stroke="black" d="M1152.18,-60.95C1193.44,-53.88 1240.32,-45.85 1281.93,-38.72"/>
<polygon fill="black" stroke="black" points="1282.56,-42.16 1291.83,-37.02 1281.38,-35.26 1282.56,-42.16"/>
</g>
<!-- AssessmentCalculationService\n(app/Services/AssessmentCalculationService.php)&#45;&gt;AssessmentResult\n(app/Models/AssessmentResult.php) -->
<g id="edge9" class="edge">
<title>AssessmentCalculationService\n(app/Services/AssessmentCalculationService.php)&#45;&gt;AssessmentResult\n(app/Models/AssessmentResult.php)</title>
<path fill="none" stroke="black" d="M1483.2,-170C1502.85,-174.52 1523.67,-179.37 1543,-184 1559.04,-187.84 1563,-189.01 1579,-193 1600.54,-198.38 1623.67,-204.15 1645.58,-209.61"/>
<polygon fill="black" stroke="black" points="1645,-213.07 1655.55,-212.09 1646.69,-206.28 1645,-213.07"/>
</g>
<!-- AssessmentCalculationService\n(app/Services/AssessmentCalculationService.php)&#45;&gt;AssessmentResponse\n(app/Models/AssessmentResponse.php) -->
<g id="edge8" class="edge">
<title>AssessmentCalculationService\n(app/Services/AssessmentCalculationService.php)&#45;&gt;AssessmentResponse\n(app/Models/AssessmentResponse.php)</title>
<path fill="none" stroke="black" d="M1491.33,-131.94C1508.62,-127.78 1526.45,-123.08 1543,-118 1559.41,-112.96 1562.57,-108.96 1579,-104 1594.53,-99.31 1611.05,-94.97 1627.4,-91.03"/>
<polygon fill="black" stroke="black" points="1628.63,-94.34 1637.55,-88.64 1627.02,-87.53 1628.63,-94.34"/>
</g>
<!-- ScoreCalculator\n(app/Services/AssessmentEngine/ScoreCalculator.php) -->
<g id="node8" class="node">
<title>ScoreCalculator\n(app/Services/AssessmentEngine/ScoreCalculator.php)</title>
<polygon fill="none" stroke="black" points="1901.96,-151 1586.96,-151 1586.96,-147 1582.96,-147 1582.96,-143 1586.96,-143 1586.96,-121 1582.96,-121 1582.96,-117 1586.96,-117 1586.96,-113 1901.96,-113 1901.96,-151"/>
<polyline fill="none" stroke="black" points="1586.96,-147 1590.96,-147 1590.96,-143 1586.96,-143 "/>
<polyline fill="none" stroke="black" points="1586.96,-121 1590.96,-121 1590.96,-117 1586.96,-117 "/>
<text text-anchor="middle" x="1744.46" y="-135.8" font-family="Times,serif" font-size="14.00">ScoreCalculator</text>
<text text-anchor="middle" x="1744.46" y="-120.8" font-family="Times,serif" font-size="14.00">(app/Services/AssessmentEngine/ScoreCalculator.php)</text>
</g>
<!-- AssessmentCalculationService\n(app/Services/AssessmentCalculationService.php)&#45;&gt;ScoreCalculator\n(app/Services/AssessmentEngine/ScoreCalculator.php) -->
<g id="edge10" class="edge">
<title>AssessmentCalculationService\n(app/Services/AssessmentCalculationService.php)&#45;&gt;ScoreCalculator\n(app/Services/AssessmentEngine/ScoreCalculator.php)</title>
<path fill="none" stroke="black" d="M1543.09,-143.05C1554.17,-142.44 1565.41,-141.82 1576.62,-141.2"/>
<polygon fill="black" stroke="black" points="1577.11,-144.68 1586.9,-140.64 1576.72,-137.69 1577.11,-144.68"/>
</g>
<!-- WeightRepository\n(app/Services/AssessmentEngine/WeightRepository.php) -->
<g id="node9" class="node">
<title>WeightRepository\n(app/Services/AssessmentEngine/WeightRepository.php)</title>
<polygon fill="none" stroke="black" points="2272.93,-198 1945.93,-198 1945.93,-194 1941.93,-194 1941.93,-190 1945.93,-190 1945.93,-168 1941.93,-168 1941.93,-164 1945.93,-164 1945.93,-160 2272.93,-160 2272.93,-198"/>
<polyline fill="none" stroke="black" points="1945.93,-194 1949.93,-194 1949.93,-190 1945.93,-190 "/>
<polyline fill="none" stroke="black" points="1945.93,-168 1949.93,-168 1949.93,-164 1945.93,-164 "/>
<text text-anchor="middle" x="2109.43" y="-182.8" font-family="Times,serif" font-size="14.00">WeightRepository</text>
<text text-anchor="middle" x="2109.43" y="-167.8" font-family="Times,serif" font-size="14.00">(app/Services/AssessmentEngine/WeightRepository.php)</text>
</g>
<!-- AssessmentCalculationService\n(app/Services/AssessmentCalculationService.php)&#45;&gt;WeightRepository\n(app/Services/AssessmentEngine/WeightRepository.php) -->
<g id="edge11" class="edge">
<title>AssessmentCalculationService\n(app/Services/AssessmentCalculationService.php)&#45;&gt;WeightRepository\n(app/Services/AssessmentEngine/WeightRepository.php)</title>
<path fill="none" stroke="black" d="M1543.41,-158.4C1555.45,-158.96 1567.43,-159.5 1579,-160 1698.05,-165.11 1832.2,-169.92 1935.68,-173.42"/>
<polygon fill="black" stroke="black" points="1935.8,-176.92 1945.91,-173.76 1936.04,-169.92 1935.8,-176.92"/>
</g>
<!-- ScoreCalculator\n(app/Services/AssessmentEngine/ScoreCalculator.php)&#45;&gt;WeightRepository\n(app/Services/AssessmentEngine/WeightRepository.php) -->
<g id="edge12" class="edge">
<title>ScoreCalculator\n(app/Services/AssessmentEngine/ScoreCalculator.php)&#45;&gt;WeightRepository\n(app/Services/AssessmentEngine/WeightRepository.php)</title>
<path fill="none" stroke="black" d="M1892.31,-151.02C1911.82,-153.54 1931.89,-156.14 1951.56,-158.69"/>
<polygon fill="black" stroke="black" points="1951.13,-162.16 1961.5,-159.97 1952.03,-155.22 1951.13,-162.16"/>
</g>
<!-- WordNormalizer\n(app/Services/AssessmentEngine/WordNormalizer.php) -->
<g id="node10" class="node">
<title>WordNormalizer\n(app/Services/AssessmentEngine/WordNormalizer.php)</title>
<path fill="none" stroke="black" d="M2257.93,-142C2257.93,-142 1960.93,-142 1960.93,-142 1954.93,-142 1948.93,-136 1948.93,-130 1948.93,-130 1948.93,-116 1948.93,-116 1948.93,-110 1954.93,-104 1960.93,-104 1960.93,-104 2257.93,-104 2257.93,-104 2263.93,-104 2269.93,-110 2269.93,-116 2269.93,-116 2269.93,-130 2269.93,-130 2269.93,-136 2263.93,-142 2257.93,-142"/>
<text text-anchor="middle" x="2109.43" y="-126.8" font-family="Times,serif" font-size="14.00">WordNormalizer</text>
<text text-anchor="middle" x="2109.43" y="-111.8" font-family="Times,serif" font-size="14.00">(app/Services/AssessmentEngine/WordNormalizer.php)</text>
</g>
<!-- ScoreCalculator\n(app/Services/AssessmentEngine/ScoreCalculator.php)&#45;&gt;WordNormalizer\n(app/Services/AssessmentEngine/WordNormalizer.php) -->
<g id="edge13" class="edge">
<title>ScoreCalculator\n(app/Services/AssessmentEngine/ScoreCalculator.php)&#45;&gt;WordNormalizer\n(app/Services/AssessmentEngine/WordNormalizer.php)</title>
<path fill="none" stroke="black" d="M1902.03,-128.12C1914.09,-127.82 1926.31,-127.52 1938.46,-127.21"/>
<polygon fill="black" stroke="black" points="1938.73,-130.71 1948.64,-126.96 1938.55,-123.71 1938.73,-130.71"/>
</g>
<!-- resources/assessment_weights/self_weight.txt -->
<g id="node11" class="node">
<title>resources/assessment_weights/self_weight.txt</title>
<path fill="none" stroke="black" d="M2575.43,-251C2575.43,-251 2333.43,-251 2333.43,-251 2327.43,-251 2321.43,-245 2321.43,-239 2321.43,-239 2321.43,-227 2321.43,-227 2321.43,-221 2327.43,-215 2333.43,-215 2333.43,-215 2575.43,-215 2575.43,-215 2581.43,-215 2587.43,-221 2587.43,-227 2587.43,-227 2587.43,-239 2587.43,-239 2587.43,-245 2581.43,-251 2575.43,-251"/>
<text text-anchor="middle" x="2454.43" y="-229.3" font-family="Times,serif" font-size="14.00">resources/assessment_weights/self_weight.txt</text>
</g>
<!-- WeightRepository\n(app/Services/AssessmentEngine/WeightRepository.php)&#45;&gt;resources/assessment_weights/self_weight.txt -->
<g id="edge14" class="edge">
<title>WeightRepository\n(app/Services/AssessmentEngine/WeightRepository.php)&#45;&gt;resources/assessment_weights/self_weight.txt</title>
<path fill="none" stroke="black" d="M2231.35,-198.04C2262.94,-203.01 2297.04,-208.38 2328.82,-213.38"/>
<polygon fill="black" stroke="black" points="2328.63,-216.9 2339.05,-214.99 2329.72,-209.98 2328.63,-216.9"/>
</g>
<!-- resources/assessment_weights/concept_weight.txt -->
<g id="node12" class="node">
<title>resources/assessment_weights/concept_weight.txt</title>
<path fill="none" stroke="black" d="M2586.43,-197C2586.43,-197 2322.43,-197 2322.43,-197 2316.43,-197 2310.43,-191 2310.43,-185 2310.43,-185 2310.43,-173 2310.43,-173 2310.43,-167 2316.43,-161 2322.43,-161 2322.43,-161 2586.43,-161 2586.43,-161 2592.43,-161 2598.43,-167 2598.43,-173 2598.43,-173 2598.43,-185 2598.43,-185 2598.43,-191 2592.43,-197 2586.43,-197"/>
<text text-anchor="middle" x="2454.43" y="-175.3" font-family="Times,serif" font-size="14.00">resources/assessment_weights/concept_weight.txt</text>
</g>
<!-- WeightRepository\n(app/Services/AssessmentEngine/WeightRepository.php)&#45;&gt;resources/assessment_weights/concept_weight.txt -->
<g id="edge15" class="edge">
<title>WeightRepository\n(app/Services/AssessmentEngine/WeightRepository.php)&#45;&gt;resources/assessment_weights/concept_weight.txt</title>
<path fill="none" stroke="black" d="M2273.14,-179C2282.12,-179 2291.14,-179 2300.1,-179"/>
<polygon fill="black" stroke="black" points="2300.17,-182.5 2310.17,-179 2300.17,-175.5 2300.17,-182.5"/>
</g>
<!-- resources/assessment_weights/adjusted_weight.txt -->
<g id="node13" class="node">
<title>resources/assessment_weights/adjusted_weight.txt</title>
<path fill="none" stroke="black" d="M2587.93,-143C2587.93,-143 2320.93,-143 2320.93,-143 2314.93,-143 2308.93,-137 2308.93,-131 2308.93,-131 2308.93,-119 2308.93,-119 2308.93,-113 2314.93,-107 2320.93,-107 2320.93,-107 2587.93,-107 2587.93,-107 2593.93,-107 2599.93,-113 2599.93,-119 2599.93,-119 2599.93,-131 2599.93,-131 2599.93,-137 2593.93,-143 2587.93,-143"/>
<text text-anchor="middle" x="2454.43" y="-121.3" font-family="Times,serif" font-size="14.00">resources/assessment_weights/adjusted_weight.txt</text>
</g>
<!-- WeightRepository\n(app/Services/AssessmentEngine/WeightRepository.php)&#45;&gt;resources/assessment_weights/adjusted_weight.txt -->
<g id="edge16" class="edge">
<title>WeightRepository\n(app/Services/AssessmentEngine/WeightRepository.php)&#45;&gt;resources/assessment_weights/adjusted_weight.txt</title>
<path fill="none" stroke="black" d="M2231.35,-159.96C2262.94,-154.99 2297.04,-149.62 2328.82,-144.62"/>
<polygon fill="black" stroke="black" points="2329.72,-148.02 2339.05,-143.01 2328.63,-141.1 2329.72,-148.02"/>
</g>
<!-- RecomputeAssessmentResults\n(app/Console/Commands/RecomputeAssessmentResults.php) -->
<g id="node14" class="node">
<title>RecomputeAssessmentResults\n(app/Console/Commands/RecomputeAssessmentResults.php)</title>
<path fill="none" stroke="black" d="M1205,-162C1205,-162 875,-162 875,-162 869,-162 863,-156 863,-150 863,-150 863,-136 863,-136 863,-130 869,-124 875,-124 875,-124 1205,-124 1205,-124 1211,-124 1217,-130 1217,-136 1217,-136 1217,-150 1217,-150 1217,-156 1211,-162 1205,-162"/>
<text text-anchor="middle" x="1040" y="-146.8" font-family="Times,serif" font-size="14.00">RecomputeAssessmentResults</text>
<text text-anchor="middle" x="1040" y="-131.8" font-family="Times,serif" font-size="14.00">(app/Console/Commands/RecomputeAssessmentResults.php)</text>
</g>
<!-- RecomputeAssessmentResults\n(app/Console/Commands/RecomputeAssessmentResults.php)&#45;&gt;AssessmentCalculationService\n(app/Services/AssessmentCalculationService.php) -->
<g id="edge17" class="edge">
<title>RecomputeAssessmentResults\n(app/Console/Commands/RecomputeAssessmentResults.php)&#45;&gt;AssessmentCalculationService\n(app/Services/AssessmentCalculationService.php)</title>
<path fill="none" stroke="black" d="M1217.17,-146.96C1225.7,-147.15 1234.23,-147.34 1242.68,-147.53"/>
<polygon fill="black" stroke="black" points="1242.88,-151.04 1252.95,-147.76 1243.04,-144.04 1242.88,-151.04"/>
</g>
<!-- RecomputeAssessmentResults\n(app/Console/Commands/RecomputeAssessmentResults.php)&#45;&gt;AssessmentResult\n(app/Models/AssessmentResult.php) -->
<g id="edge19" class="edge">
<title>RecomputeAssessmentResults\n(app/Console/Commands/RecomputeAssessmentResults.php)&#45;&gt;AssessmentResult\n(app/Models/AssessmentResult.php)</title>
<path fill="none" stroke="black" d="M1166.63,-162.03C1183.59,-164.88 1200.74,-167.9 1217,-171 1233.1,-174.07 1236.83,-176.31 1253,-179 1261.71,-180.45 1462.44,-202.83 1604.38,-218.58"/>
<polygon fill="black" stroke="black" points="1604.16,-222.08 1614.49,-219.71 1604.94,-215.12 1604.16,-222.08"/>
</g>
<!-- RecomputeAssessmentResults\n(app/Console/Commands/RecomputeAssessmentResults.php)&#45;&gt;AssessmentResponse\n(app/Models/AssessmentResponse.php) -->
<g id="edge18" class="edge">
<title>RecomputeAssessmentResults\n(app/Console/Commands/RecomputeAssessmentResults.php)&#45;&gt;AssessmentResponse\n(app/Models/AssessmentResponse.php)</title>
<path fill="none" stroke="black" d="M1217.35,-124.17C1334.01,-111.72 1485.22,-95.57 1595.58,-83.79"/>
<polygon fill="black" stroke="black" points="1596.22,-87.24 1605.79,-82.7 1595.48,-80.28 1596.22,-87.24"/>
</g>
<!-- CheckSubscriptionStatus\n(app/Http/Middleware/CheckSubscriptionStatus.php) -->
<g id="node15" class="node">
<title>CheckSubscriptionStatus\n(app/Http/Middleware/CheckSubscriptionStatus.php)</title>
<path fill="none" stroke="black" d="M815,-302C815,-302 533,-302 533,-302 527,-302 521,-296 521,-290 521,-290 521,-276 521,-276 521,-270 527,-264 533,-264 533,-264 815,-264 815,-264 821,-264 827,-270 827,-276 827,-276 827,-290 827,-290 827,-296 821,-302 815,-302"/>
<text text-anchor="middle" x="674" y="-286.8" font-family="Times,serif" font-size="14.00">CheckSubscriptionStatus</text>
<text text-anchor="middle" x="674" y="-271.8" font-family="Times,serif" font-size="14.00">(app/Http/Middleware/CheckSubscriptionStatus.php)</text>
</g>
<!-- SubscriptionController\n(app/Http/Controllers/SubscriptionController.php) -->
<g id="node16" class="node">
<title>SubscriptionController\n(app/Http/Controllers/SubscriptionController.php)</title>
<path fill="none" stroke="black" d="M1172,-330C1172,-330 908,-330 908,-330 902,-330 896,-324 896,-318 896,-318 896,-304 896,-304 896,-298 902,-292 908,-292 908,-292 1172,-292 1172,-292 1178,-292 1184,-298 1184,-304 1184,-304 1184,-318 1184,-318 1184,-324 1178,-330 1172,-330"/>
<text text-anchor="middle" x="1040" y="-314.8" font-family="Times,serif" font-size="14.00">SubscriptionController</text>
<text text-anchor="middle" x="1040" y="-299.8" font-family="Times,serif" font-size="14.00">(app/Http/Controllers/SubscriptionController.php)</text>
</g>
<!-- CheckSubscriptionStatus\n(app/Http/Middleware/CheckSubscriptionStatus.php)&#45;&gt;SubscriptionController\n(app/Http/Controllers/SubscriptionController.php) -->
<g id="edge20" class="edge">
<title>CheckSubscriptionStatus\n(app/Http/Middleware/CheckSubscriptionStatus.php)&#45;&gt;SubscriptionController\n(app/Http/Controllers/SubscriptionController.php)</title>
<path fill="none" stroke="black" d="M827.26,-294.71C846.59,-296.2 866.37,-297.72 885.72,-299.21"/>
<polygon fill="black" stroke="black" points="885.55,-302.71 895.79,-299.98 886.08,-295.73 885.55,-302.71"/>
</g>
<!-- Subscription\n(app/Models/Subscription.php) -->
<g id="node17" class="node">
<title>Subscription\n(app/Models/Subscription.php)</title>
<path fill="none" stroke="black" d="M1121,-274C1121,-274 959,-274 959,-274 953,-274 947,-268 947,-262 947,-262 947,-248 947,-248 947,-242 953,-236 959,-236 959,-236 1121,-236 1121,-236 1127,-236 1133,-242 1133,-248 1133,-248 1133,-262 1133,-262 1133,-268 1127,-274 1121,-274"/>
<text text-anchor="middle" x="1040" y="-258.8" font-family="Times,serif" font-size="14.00">Subscription</text>
<text text-anchor="middle" x="1040" y="-243.8" font-family="Times,serif" font-size="14.00">(app/Models/Subscription.php)</text>
</g>
<!-- CheckSubscriptionStatus\n(app/Http/Middleware/CheckSubscriptionStatus.php)&#45;&gt;Subscription\n(app/Models/Subscription.php) -->
<g id="edge21" class="edge">
<title>CheckSubscriptionStatus\n(app/Http/Middleware/CheckSubscriptionStatus.php)&#45;&gt;Subscription\n(app/Models/Subscription.php)</title>
<path fill="none" stroke="black" d="M827.26,-271.29C864.07,-268.46 902.55,-265.5 936.45,-262.89"/>
<polygon fill="black" stroke="black" points="937.12,-266.35 946.82,-262.09 936.58,-259.37 937.12,-266.35"/>
</g>
<!-- Kernel\n(app/Http/Kernel.php) -->
<g id="node18" class="node">
<title>Kernel\n(app/Http/Kernel.php)</title>
<path fill="none" stroke="black" d="M299,-302C299,-302 186,-302 186,-302 180,-302 174,-296 174,-290 174,-290 174,-276 174,-276 174,-270 180,-264 186,-264 186,-264 299,-264 299,-264 305,-264 311,-270 311,-276 311,-276 311,-290 311,-290 311,-296 305,-302 299,-302"/>
<text text-anchor="middle" x="242.5" y="-286.8" font-family="Times,serif" font-size="14.00">Kernel</text>
<text text-anchor="middle" x="242.5" y="-271.8" font-family="Times,serif" font-size="14.00">(app/Http/Kernel.php)</text>
</g>
<!-- Kernel\n(app/Http/Kernel.php)&#45;&gt;CheckSubscriptionStatus\n(app/Http/Middleware/CheckSubscriptionStatus.php) -->
<g id="edge22" class="edge">
<title>Kernel\n(app/Http/Kernel.php)&#45;&gt;CheckSubscriptionStatus\n(app/Http/Middleware/CheckSubscriptionStatus.php)</title>
<path fill="none" stroke="black" d="M311.08,-283C364.56,-283 441.49,-283 510.69,-283"/>
<polygon fill="black" stroke="black" points="510.84,-286.5 520.84,-283 510.84,-279.5 510.84,-286.5"/>
</g>
<!-- Dolphin_Frontend/src/services/results.js -->
<g id="node19" class="node">
<title>Dolphin_Frontend/src/services/results.js</title>
<path fill="none" stroke="black" d="M348,-217C348,-217 137,-217 137,-217 131,-217 125,-211 125,-205 125,-205 125,-193 125,-193 125,-187 131,-181 137,-181 137,-181 348,-181 348,-181 354,-181 360,-187 360,-193 360,-193 360,-205 360,-205 360,-211 354,-217 348,-217"/>
<text text-anchor="middle" x="242.5" y="-195.3" font-family="Times,serif" font-size="14.00">Dolphin_Frontend/src/services/results.js</text>
</g>
<!-- /api/assessment&#45;results/user -->
<g id="node20" class="node">
<title>/api/assessment&#45;results/user</title>
<path fill="none" stroke="black" d="M745.5,-217C745.5,-217 602.5,-217 602.5,-217 596.5,-217 590.5,-211 590.5,-205 590.5,-205 590.5,-193 590.5,-193 590.5,-187 596.5,-181 602.5,-181 602.5,-181 745.5,-181 745.5,-181 751.5,-181 757.5,-187 757.5,-193 757.5,-193 757.5,-205 757.5,-205 757.5,-211 751.5,-217 745.5,-217"/>
<text text-anchor="middle" x="674" y="-195.3" font-family="Times,serif" font-size="14.00">/api/assessment&#45;results/user</text>
</g>
<!-- Dolphin_Frontend/src/services/results.js&#45;&gt;/api/assessment&#45;results/user -->
<g id="edge23" class="edge">
<title>Dolphin_Frontend/src/services/results.js&#45;&gt;/api/assessment&#45;results/user</title>
<path fill="none" stroke="black" d="M360.01,-199C429.22,-199 515.78,-199 580.32,-199"/>
<polygon fill="black" stroke="black" points="580.48,-202.5 590.48,-199 580.48,-195.5 580.48,-202.5"/>
</g>
<!-- /api/assessment&#45;results/user&#45;&gt;AssessmentResultController\n(app/Http/Controllers/AssessmentResultController.php) -->
<g id="edge24" class="edge">
<title>/api/assessment&#45;results/user&#45;&gt;AssessmentResultController\n(app/Http/Controllers/AssessmentResultController.php)</title>
<path fill="none" stroke="black" d="M757.6,-199C791,-199 830.86,-199 869.91,-199"/>
<polygon fill="black" stroke="black" points="870.36,-202.5 880.36,-199 870.36,-195.5 870.36,-202.5"/>
</g>
<!-- Dolphin_Frontend/src/components/Common/Leads_Assessment/UserAssessment.vue -->
<g id="node21" class="node">
<title>Dolphin_Frontend/src/components/Common/Leads_Assessment/UserAssessment.vue</title>
<path fill="none" stroke="black" d="M473,-98C473,-98 12,-98 12,-98 6,-98 0,-92 0,-86 0,-86 0,-74 0,-74 0,-68 6,-62 12,-62 12,-62 473,-62 473,-62 479,-62 485,-68 485,-74 485,-74 485,-86 485,-86 485,-92 479,-98 473,-98"/>
<text text-anchor="middle" x="242.5" y="-76.3" font-family="Times,serif" font-size="14.00">Dolphin_Frontend/src/components/Common/Leads_Assessment/UserAssessment.vue</text>
</g>
<!-- /api/assessment&#45;responses -->
<g id="node22" class="node">
<title>/api/assessment&#45;responses</title>
<path fill="none" stroke="black" d="M741,-98C741,-98 607,-98 607,-98 601,-98 595,-92 595,-86 595,-86 595,-74 595,-74 595,-68 601,-62 607,-62 607,-62 741,-62 741,-62 747,-62 753,-68 753,-74 753,-74 753,-86 753,-86 753,-92 747,-98 741,-98"/>
<text text-anchor="middle" x="674" y="-76.3" font-family="Times,serif" font-size="14.00">/api/assessment&#45;responses</text>
</g>
<!-- Dolphin_Frontend/src/components/Common/Leads_Assessment/UserAssessment.vue&#45;&gt;/api/assessment&#45;responses -->
<g id="edge25" class="edge">
<title>Dolphin_Frontend/src/components/Common/Leads_Assessment/UserAssessment.vue&#45;&gt;/api/assessment&#45;responses</title>
<path fill="none" stroke="black" d="M485.24,-80C520.73,-80 555.22,-80 584.75,-80"/>
<polygon fill="black" stroke="black" points="584.99,-83.5 594.99,-80 584.99,-76.5 584.99,-83.5"/>
</g>
<!-- /api/assessment&#45;responses&#45;&gt;AssessmentResponseController\n(app/Http/Controllers/AssessmentResponseController.php) -->
<g id="edge26" class="edge">
<title>/api/assessment&#45;responses&#45;&gt;AssessmentResponseController\n(app/Http/Controllers/AssessmentResponseController.php)</title>
<path fill="none" stroke="black" d="M753.09,-80C785.02,-80 823.36,-80 861.44,-80"/>
<polygon fill="black" stroke="black" points="861.64,-83.5 871.64,-80 861.64,-76.5 861.64,-83.5"/>
</g>
</g>
</svg>
