<?xml version="1.0" encoding="UTF-8" standalone="no"?>
<!DOCTYPE svg PUBLIC "-//W3C//DTD SVG 1.1//EN"
 "http://www.w3.org/Graphics/SVG/1.1/DTD/svg11.dtd">
<!-- Generated by graphviz version 2.43.0 (0)
 -->
<!-- Title: AssessmentDeps Pages: 1 -->
<svg width="2454pt" height="494pt"
 viewBox="0.00 0.00 2453.93 494.00" xmlns="http://www.w3.org/2000/svg" xmlns:xlink="http://www.w3.org/1999/xlink">
<g id="graph0" class="graph" transform="scale(1 1) rotate(0) translate(4 490)">
<title>AssessmentDeps</title>
<polygon fill="white" stroke="transparent" points="-4,4 -4,-490 2449.93,-490 2449.93,4 -4,4"/>
<!-- routes/api.php -->
<g id="node1" class="node">
<title>routes/api.php</title>
<path fill="none" stroke="black" d="M709,-317C709,-317 639,-317 639,-317 633,-317 627,-311 627,-305 627,-305 627,-293 627,-293 627,-287 633,-281 639,-281 639,-281 709,-281 709,-281 715,-281 721,-287 721,-293 721,-293 721,-305 721,-305 721,-311 715,-317 709,-317"/>
<text text-anchor="middle" x="674" y="-295.3" font-family="Times,serif" font-size="14.00">routes/api.php</text>
</g>
<!-- AssessmentController\n(app/Http/Controllers/AssessmentController.php) -->
<g id="node2" class="node">
<title>AssessmentController\n(app/Http/Controllers/AssessmentController.php)</title>
<path fill="none" stroke="black" d="M1170,-262C1170,-262 910,-262 910,-262 904,-262 898,-256 898,-250 898,-250 898,-236 898,-236 898,-230 904,-224 910,-224 910,-224 1170,-224 1170,-224 1176,-224 1182,-230 1182,-236 1182,-236 1182,-250 1182,-250 1182,-256 1176,-262 1170,-262"/>
<text text-anchor="middle" x="1040" y="-246.8" font-family="Times,serif" font-size="14.00">AssessmentController</text>
<text text-anchor="middle" x="1040" y="-231.8" font-family="Times,serif" font-size="14.00">(app/Http/Controllers/AssessmentController.php)</text>
</g>
<!-- routes/api.php&#45;&gt;AssessmentController\n(app/Http/Controllers/AssessmentController.php) -->
<g id="edge1" class="edge">
<title>routes/api.php&#45;&gt;AssessmentController\n(app/Http/Controllers/AssessmentController.php)</title>
<path fill="none" stroke="black" d="M721.1,-291.91C767.22,-284.81 840.4,-273.55 904.93,-263.63"/>
<polygon fill="black" stroke="black" points="905.85,-267.03 915.2,-262.05 904.79,-260.11 905.85,-267.03"/>
</g>
<!-- AssessmentResponseController\n(app/Http/Controllers/AssessmentResponseController.php) -->
<g id="node3" class="node">
<title>AssessmentResponseController\n(app/Http/Controllers/AssessmentResponseController.php)</title>
<path fill="none" stroke="black" d="M1196,-150C1196,-150 884,-150 884,-150 878,-150 872,-144 872,-138 872,-138 872,-124 872,-124 872,-118 878,-112 884,-112 884,-112 1196,-112 1196,-112 1202,-112 1208,-118 1208,-124 1208,-124 1208,-138 1208,-138 1208,-144 1202,-150 1196,-150"/>
<text text-anchor="middle" x="1040" y="-134.8" font-family="Times,serif" font-size="14.00">AssessmentResponseController</text>
<text text-anchor="middle" x="1040" y="-119.8" font-family="Times,serif" font-size="14.00">(app/Http/Controllers/AssessmentResponseController.php)</text>
</g>
<!-- routes/api.php&#45;&gt;AssessmentResponseController\n(app/Http/Controllers/AssessmentResponseController.php) -->
<g id="edge2" class="edge">
<title>routes/api.php&#45;&gt;AssessmentResponseController\n(app/Http/Controllers/AssessmentResponseController.php)</title>
<path fill="none" stroke="black" d="M692.82,-280.9C724.16,-250.29 792.5,-188.72 863,-159 867.86,-156.95 872.86,-155.05 877.95,-153.28"/>
<polygon fill="black" stroke="black" points="879.43,-156.49 887.85,-150.06 877.26,-149.83 879.43,-156.49"/>
</g>
<!-- AssessmentResultController\n(app/Http/Controllers/AssessmentResultController.php) -->
<g id="node4" class="node">
<title>AssessmentResultController\n(app/Http/Controllers/AssessmentResultController.php)</title>
<path fill="none" stroke="black" d="M1187.5,-430C1187.5,-430 892.5,-430 892.5,-430 886.5,-430 880.5,-424 880.5,-418 880.5,-418 880.5,-404 880.5,-404 880.5,-398 886.5,-392 892.5,-392 892.5,-392 1187.5,-392 1187.5,-392 1193.5,-392 1199.5,-398 1199.5,-404 1199.5,-404 1199.5,-418 1199.5,-418 1199.5,-424 1193.5,-430 1187.5,-430"/>
<text text-anchor="middle" x="1040" y="-414.8" font-family="Times,serif" font-size="14.00">AssessmentResultController</text>
<text text-anchor="middle" x="1040" y="-399.8" font-family="Times,serif" font-size="14.00">(app/Http/Controllers/AssessmentResultController.php)</text>
</g>
<!-- routes/api.php&#45;&gt;AssessmentResultController\n(app/Http/Controllers/AssessmentResultController.php) -->
<g id="edge3" class="edge">
<title>routes/api.php&#45;&gt;AssessmentResultController\n(app/Http/Controllers/AssessmentResultController.php)</title>
<path fill="none" stroke="black" d="M721.16,-297.72C753.32,-298.96 795.86,-305.07 827,-326 851.87,-342.71 837.98,-366.51 863,-383 865.78,-384.83 868.63,-386.56 871.55,-388.18"/>
<polygon fill="black" stroke="black" points="870,-391.32 880.5,-392.77 873.2,-385.09 870,-391.32"/>
</g>
<!-- AssessmentScheduleController\n(app/Http/Controllers/AssessmentScheduleController.php) -->
<g id="node5" class="node">
<title>AssessmentScheduleController\n(app/Http/Controllers/AssessmentScheduleController.php)</title>
<path fill="none" stroke="black" d="M1195,-486C1195,-486 885,-486 885,-486 879,-486 873,-480 873,-474 873,-474 873,-460 873,-460 873,-454 879,-448 885,-448 885,-448 1195,-448 1195,-448 1201,-448 1207,-454 1207,-460 1207,-460 1207,-474 1207,-474 1207,-480 1201,-486 1195,-486"/>
<text text-anchor="middle" x="1040" y="-470.8" font-family="Times,serif" font-size="14.00">AssessmentScheduleController</text>
<text text-anchor="middle" x="1040" y="-455.8" font-family="Times,serif" font-size="14.00">(app/Http/Controllers/AssessmentScheduleController.php)</text>
</g>
<!-- routes/api.php&#45;&gt;AssessmentScheduleController\n(app/Http/Controllers/AssessmentScheduleController.php) -->
<g id="edge4" class="edge">
<title>routes/api.php&#45;&gt;AssessmentScheduleController\n(app/Http/Controllers/AssessmentScheduleController.php)</title>
<path fill="none" stroke="black" d="M721.2,-295.38C754.42,-295.33 798.26,-300.84 827,-326 866.66,-360.72 823.03,-404.64 863,-439 864.17,-440.01 865.37,-440.99 866.58,-441.94"/>
<polygon fill="black" stroke="black" points="864.69,-444.89 874.87,-447.82 868.74,-439.18 864.69,-444.89"/>
</g>
<!-- SendAssessmentController\n(app/Http/Controllers/SendAssessmentController.php) -->
<g id="node6" class="node">
<title>SendAssessmentController\n(app/Http/Controllers/SendAssessmentController.php)</title>
<path fill="none" stroke="black" d="M1183.5,-374C1183.5,-374 896.5,-374 896.5,-374 890.5,-374 884.5,-368 884.5,-362 884.5,-362 884.5,-348 884.5,-348 884.5,-342 890.5,-336 896.5,-336 896.5,-336 1183.5,-336 1183.5,-336 1189.5,-336 1195.5,-342 1195.5,-348 1195.5,-348 1195.5,-362 1195.5,-362 1195.5,-368 1189.5,-374 1183.5,-374"/>
<text text-anchor="middle" x="1040" y="-358.8" font-family="Times,serif" font-size="14.00">SendAssessmentController</text>
<text text-anchor="middle" x="1040" y="-343.8" font-family="Times,serif" font-size="14.00">(app/Http/Controllers/SendAssessmentController.php)</text>
</g>
<!-- routes/api.php&#45;&gt;SendAssessmentController\n(app/Http/Controllers/SendAssessmentController.php) -->
<g id="edge5" class="edge">
<title>routes/api.php&#45;&gt;SendAssessmentController\n(app/Http/Controllers/SendAssessmentController.php)</title>
<path fill="none" stroke="black" d="M721.1,-306.09C767.22,-313.19 840.4,-324.45 904.93,-334.37"/>
<polygon fill="black" stroke="black" points="904.79,-337.89 915.2,-335.95 905.85,-330.97 904.79,-337.89"/>
</g>
<!-- SubscriptionController\n(app/Http/Controllers/SubscriptionController.php) -->
<g id="node7" class="node">
<title>SubscriptionController\n(app/Http/Controllers/SubscriptionController.php)</title>
<path fill="none" stroke="black" d="M1172,-94C1172,-94 908,-94 908,-94 902,-94 896,-88 896,-82 896,-82 896,-68 896,-68 896,-62 902,-56 908,-56 908,-56 1172,-56 1172,-56 1178,-56 1184,-62 1184,-68 1184,-68 1184,-82 1184,-82 1184,-88 1178,-94 1172,-94"/>
<text text-anchor="middle" x="1040" y="-78.8" font-family="Times,serif" font-size="14.00">SubscriptionController</text>
<text text-anchor="middle" x="1040" y="-63.8" font-family="Times,serif" font-size="14.00">(app/Http/Controllers/SubscriptionController.php)</text>
</g>
<!-- routes/api.php&#45;&gt;SubscriptionController\n(app/Http/Controllers/SubscriptionController.php) -->
<g id="edge6" class="edge">
<title>routes/api.php&#45;&gt;SubscriptionController\n(app/Http/Controllers/SubscriptionController.php)</title>
<path fill="none" stroke="black" d="M686.25,-280.94C712.04,-241.28 779.65,-146.6 863,-103 870.39,-99.13 878.17,-95.77 886.19,-92.85"/>
<polygon fill="black" stroke="black" points="887.35,-96.15 895.69,-89.62 885.1,-89.52 887.35,-96.15"/>
</g>
<!-- Billing\\BillingController\n(app/Http/Controllers/Billing/BillingController.php) -->
<g id="node8" class="node">
<title>Billing\\BillingController\n(app/Http/Controllers/Billing/BillingController.php)</title>
<path fill="none" stroke="black" d="M1177.5,-318C1177.5,-318 902.5,-318 902.5,-318 896.5,-318 890.5,-312 890.5,-306 890.5,-306 890.5,-292 890.5,-292 890.5,-286 896.5,-280 902.5,-280 902.5,-280 1177.5,-280 1177.5,-280 1183.5,-280 1189.5,-286 1189.5,-292 1189.5,-292 1189.5,-306 1189.5,-306 1189.5,-312 1183.5,-318 1177.5,-318"/>
<text text-anchor="middle" x="1040" y="-302.8" font-family="Times,serif" font-size="14.00">Billing\BillingController</text>
<text text-anchor="middle" x="1040" y="-287.8" font-family="Times,serif" font-size="14.00">(app/Http/Controllers/Billing/BillingController.php)</text>
</g>
<!-- routes/api.php&#45;&gt;Billing\\BillingController\n(app/Http/Controllers/Billing/BillingController.php) -->
<g id="edge7" class="edge">
<title>routes/api.php&#45;&gt;Billing\\BillingController\n(app/Http/Controllers/Billing/BillingController.php)</title>
<path fill="none" stroke="black" d="M721.1,-299C761.35,-299 822.19,-299 879.9,-299"/>
<polygon fill="black" stroke="black" points="880.26,-302.5 890.26,-299 880.26,-295.5 880.26,-302.5"/>
</g>
<!-- AssessmentResponse\n(app/Models/AssessmentResponse.php) -->
<g id="node9" class="node">
<title>AssessmentResponse\n(app/Models/AssessmentResponse.php)</title>
<ellipse fill="none" stroke="black" cx="1744.46" cy="-164" rx="165.43" ry="26.74"/>
<text text-anchor="middle" x="1744.46" y="-167.8" font-family="Times,serif" font-size="14.00">AssessmentResponse</text>
<text text-anchor="middle" x="1744.46" y="-152.8" font-family="Times,serif" font-size="14.00">(app/Models/AssessmentResponse.php)</text>
</g>
<!-- AssessmentResponseController\n(app/Http/Controllers/AssessmentResponseController.php)&#45;&gt;AssessmentResponse\n(app/Models/AssessmentResponse.php) -->
<g id="edge8" class="edge">
<title>AssessmentResponseController\n(app/Http/Controllers/AssessmentResponseController.php)&#45;&gt;AssessmentResponse\n(app/Models/AssessmentResponse.php)</title>
<path fill="none" stroke="black" d="M1208.36,-138.86C1319.14,-144.07 1463.9,-150.87 1574.92,-156.08"/>
<polygon fill="black" stroke="black" points="1575.06,-159.59 1585.22,-156.57 1575.39,-152.6 1575.06,-159.59"/>
</g>
<!-- AssessmentTime\n(app/Models/AssessmentTime.php) -->
<g id="node10" class="node">
<title>AssessmentTime\n(app/Models/AssessmentTime.php)</title>
<path fill="none" stroke="black" d="M1492,-65C1492,-65 1304,-65 1304,-65 1298,-65 1292,-59 1292,-53 1292,-53 1292,-39 1292,-39 1292,-33 1298,-27 1304,-27 1304,-27 1492,-27 1492,-27 1498,-27 1504,-33 1504,-39 1504,-39 1504,-53 1504,-53 1504,-59 1498,-65 1492,-65"/>
<text text-anchor="middle" x="1398" y="-49.8" font-family="Times,serif" font-size="14.00">AssessmentTime</text>
<text text-anchor="middle" x="1398" y="-34.8" font-family="Times,serif" font-size="14.00">(app/Models/AssessmentTime.php)</text>
</g>
<!-- AssessmentResponseController\n(app/Http/Controllers/AssessmentResponseController.php)&#45;&gt;AssessmentTime\n(app/Models/AssessmentTime.php) -->
<g id="edge9" class="edge">
<title>AssessmentResponseController\n(app/Http/Controllers/AssessmentResponseController.php)&#45;&gt;AssessmentTime\n(app/Models/AssessmentTime.php)</title>
<path fill="none" stroke="black" d="M1193.67,-111.86C1201.68,-109.27 1209.51,-106.33 1217,-103 1235.78,-94.66 1234.37,-82.66 1253,-74 1262.19,-69.73 1272,-66.11 1282.02,-63.04"/>
<polygon fill="black" stroke="black" points="1283.03,-66.39 1291.67,-60.27 1281.09,-59.67 1283.03,-66.39"/>
</g>
<!-- Assessment\n(app/Models/Assessment.php) -->
<g id="node11" class="node">
<title>Assessment\n(app/Models/Assessment.php)</title>
<path fill="none" stroke="black" d="M1477,-121C1477,-121 1319,-121 1319,-121 1313,-121 1307,-115 1307,-109 1307,-109 1307,-95 1307,-95 1307,-89 1313,-83 1319,-83 1319,-83 1477,-83 1477,-83 1483,-83 1489,-89 1489,-95 1489,-95 1489,-109 1489,-109 1489,-115 1483,-121 1477,-121"/>
<text text-anchor="middle" x="1398" y="-105.8" font-family="Times,serif" font-size="14.00">Assessment</text>
<text text-anchor="middle" x="1398" y="-90.8" font-family="Times,serif" font-size="14.00">(app/Models/Assessment.php)</text>
</g>
<!-- AssessmentResponseController\n(app/Http/Controllers/AssessmentResponseController.php)&#45;&gt;Assessment\n(app/Models/Assessment.php) -->
<g id="edge10" class="edge">
<title>AssessmentResponseController\n(app/Http/Controllers/AssessmentResponseController.php)&#45;&gt;Assessment\n(app/Models/Assessment.php)</title>
<path fill="none" stroke="black" d="M1208.05,-117.39C1238.3,-114.93 1268.97,-112.43 1296.56,-110.18"/>
<polygon fill="black" stroke="black" points="1296.89,-113.67 1306.57,-109.37 1296.32,-106.69 1296.89,-113.67"/>
</g>
<!-- AssessmentCalculationService\n(app/Services/AssessmentCalculationService.php) -->
<g id="node12" class="node">
<title>AssessmentCalculationService\n(app/Services/AssessmentCalculationService.php)</title>
<polygon fill="none" stroke="black" points="1537,-253 1253,-253 1253,-215 1543,-215 1543,-247 1537,-253"/>
<polyline fill="none" stroke="black" points="1537,-253 1537,-247 "/>
<polyline fill="none" stroke="black" points="1543,-247 1537,-247 "/>
<text text-anchor="middle" x="1398" y="-237.8" font-family="Times,serif" font-size="14.00">AssessmentCalculationService</text>
<text text-anchor="middle" x="1398" y="-222.8" font-family="Times,serif" font-size="14.00">(app/Services/AssessmentCalculationService.php)</text>
</g>
<!-- AssessmentResponseController\n(app/Http/Controllers/AssessmentResponseController.php)&#45;&gt;AssessmentCalculationService\n(app/Services/AssessmentCalculationService.php) -->
<g id="edge11" class="edge">
<title>AssessmentResponseController\n(app/Http/Controllers/AssessmentResponseController.php)&#45;&gt;AssessmentCalculationService\n(app/Services/AssessmentCalculationService.php)</title>
<path fill="none" stroke="black" d="M1180.49,-150.05C1192.92,-152.69 1205.24,-155.67 1217,-159 1263.34,-172.14 1313.78,-193.84 1349.44,-210.53"/>
<polygon fill="black" stroke="black" points="1348.09,-213.77 1358.63,-214.87 1351.08,-207.44 1348.09,-213.77"/>
</g>
<!-- AssessmentResultController\n(app/Http/Controllers/AssessmentResultController.php)&#45;&gt;AssessmentCalculationService\n(app/Services/AssessmentCalculationService.php) -->
<g id="edge12" class="edge">
<title>AssessmentResultController\n(app/Http/Controllers/AssessmentResultController.php)&#45;&gt;AssessmentCalculationService\n(app/Services/AssessmentCalculationService.php)</title>
<path fill="none" stroke="black" d="M1194.77,-391.99C1202.41,-389.36 1209.87,-386.38 1217,-383 1236.35,-373.84 1236.69,-364.86 1253,-351 1290.91,-318.77 1335.51,-282.84 1364.91,-259.4"/>
<polygon fill="black" stroke="black" points="1367.14,-262.1 1372.78,-253.14 1362.78,-256.63 1367.14,-262.1"/>
</g>
<!-- AssessmentResult\n(app/Models/AssessmentResult.php) -->
<g id="node13" class="node">
<title>AssessmentResult\n(app/Models/AssessmentResult.php)</title>
<ellipse fill="none" stroke="black" cx="1744.46" cy="-330" rx="153.38" ry="26.74"/>
<text text-anchor="middle" x="1744.46" y="-333.8" font-family="Times,serif" font-size="14.00">AssessmentResult</text>
<text text-anchor="middle" x="1744.46" y="-318.8" font-family="Times,serif" font-size="14.00">(app/Models/AssessmentResult.php)</text>
</g>
<!-- AssessmentResultController\n(app/Http/Controllers/AssessmentResultController.php)&#45;&gt;AssessmentResult\n(app/Models/AssessmentResult.php) -->
<g id="edge13" class="edge">
<title>AssessmentResultController\n(app/Http/Controllers/AssessmentResultController.php)&#45;&gt;AssessmentResult\n(app/Models/AssessmentResult.php)</title>
<path fill="none" stroke="black" d="M1199.52,-392.72C1321.81,-378.62 1489.23,-359.32 1605.91,-345.86"/>
<polygon fill="black" stroke="black" points="1606.44,-349.32 1615.98,-344.7 1605.64,-342.37 1606.44,-349.32"/>
</g>
<!-- AssessmentCalculationService\n(app/Services/AssessmentCalculationService.php)&#45;&gt;AssessmentResponse\n(app/Models/AssessmentResponse.php) -->
<g id="edge14" class="edge">
<title>AssessmentCalculationService\n(app/Services/AssessmentCalculationService.php)&#45;&gt;AssessmentResponse\n(app/Models/AssessmentResponse.php)</title>
<path fill="none" stroke="black" d="M1492.67,-214.96C1535.18,-206.33 1585.81,-196.04 1630.41,-186.97"/>
<polygon fill="black" stroke="black" points="1631.32,-190.36 1640.42,-184.94 1629.93,-183.5 1631.32,-190.36"/>
</g>
<!-- AssessmentCalculationService\n(app/Services/AssessmentCalculationService.php)&#45;&gt;AssessmentResult\n(app/Models/AssessmentResult.php) -->
<g id="edge15" class="edge">
<title>AssessmentCalculationService\n(app/Services/AssessmentCalculationService.php)&#45;&gt;AssessmentResult\n(app/Models/AssessmentResult.php)</title>
<path fill="none" stroke="black" d="M1451.32,-253.08C1487,-265.68 1535.49,-282.02 1579,-294 1596.44,-298.8 1615.05,-303.38 1633.26,-307.57"/>
<polygon fill="black" stroke="black" points="1632.5,-310.99 1643.03,-309.79 1634.05,-304.16 1632.5,-310.99"/>
</g>
<!-- ScoreCalculator\n(app/Services/AssessmentEngine/ScoreCalculator.php) -->
<g id="node14" class="node">
<title>ScoreCalculator\n(app/Services/AssessmentEngine/ScoreCalculator.php)</title>
<polygon fill="none" stroke="black" points="1901.96,-285 1586.96,-285 1586.96,-281 1582.96,-281 1582.96,-277 1586.96,-277 1586.96,-255 1582.96,-255 1582.96,-251 1586.96,-251 1586.96,-247 1901.96,-247 1901.96,-285"/>
<polyline fill="none" stroke="black" points="1586.96,-281 1590.96,-281 1590.96,-277 1586.96,-277 "/>
<polyline fill="none" stroke="black" points="1586.96,-255 1590.96,-255 1590.96,-251 1586.96,-251 "/>
<text text-anchor="middle" x="1744.46" y="-269.8" font-family="Times,serif" font-size="14.00">ScoreCalculator</text>
<text text-anchor="middle" x="1744.46" y="-254.8" font-family="Times,serif" font-size="14.00">(app/Services/AssessmentEngine/ScoreCalculator.php)</text>
</g>
<!-- AssessmentCalculationService\n(app/Services/AssessmentCalculationService.php)&#45;&gt;ScoreCalculator\n(app/Services/AssessmentEngine/ScoreCalculator.php) -->
<g id="edge16" class="edge">
<title>AssessmentCalculationService\n(app/Services/AssessmentCalculationService.php)&#45;&gt;ScoreCalculator\n(app/Services/AssessmentEngine/ScoreCalculator.php)</title>
<path fill="none" stroke="black" d="M1543.09,-247.39C1554.17,-248.41 1565.41,-249.46 1576.62,-250.5"/>
<polygon fill="black" stroke="black" points="1576.62,-254.02 1586.9,-251.46 1577.26,-247.05 1576.62,-254.02"/>
</g>
<!-- WeightRepository\n(app/Services/AssessmentEngine/WeightRepository.php) -->
<g id="node15" class="node">
<title>WeightRepository\n(app/Services/AssessmentEngine/WeightRepository.php)</title>
<polygon fill="none" stroke="black" points="2272.93,-238 1945.93,-238 1945.93,-234 1941.93,-234 1941.93,-230 1945.93,-230 1945.93,-208 1941.93,-208 1941.93,-204 1945.93,-204 1945.93,-200 2272.93,-200 2272.93,-238"/>
<polyline fill="none" stroke="black" points="1945.93,-234 1949.93,-234 1949.93,-230 1945.93,-230 "/>
<polyline fill="none" stroke="black" points="1945.93,-208 1949.93,-208 1949.93,-204 1945.93,-204 "/>
<text text-anchor="middle" x="2109.43" y="-222.8" font-family="Times,serif" font-size="14.00">WeightRepository</text>
<text text-anchor="middle" x="2109.43" y="-207.8" font-family="Times,serif" font-size="14.00">(app/Services/AssessmentEngine/WeightRepository.php)</text>
</g>
<!-- AssessmentCalculationService\n(app/Services/AssessmentCalculationService.php)&#45;&gt;WeightRepository\n(app/Services/AssessmentEngine/WeightRepository.php) -->
<g id="edge17" class="edge">
<title>AssessmentCalculationService\n(app/Services/AssessmentCalculationService.php)&#45;&gt;WeightRepository\n(app/Services/AssessmentEngine/WeightRepository.php)</title>
<path fill="none" stroke="black" d="M1543.42,-230.95C1656.9,-228.55 1815.34,-225.2 1935.57,-222.65"/>
<polygon fill="black" stroke="black" points="1935.69,-226.15 1945.61,-222.44 1935.54,-219.15 1935.69,-226.15"/>
</g>
<!-- ScoreCalculator\n(app/Services/AssessmentEngine/ScoreCalculator.php)&#45;&gt;WeightRepository\n(app/Services/AssessmentEngine/WeightRepository.php) -->
<g id="edge18" class="edge">
<title>ScoreCalculator\n(app/Services/AssessmentEngine/ScoreCalculator.php)&#45;&gt;WeightRepository\n(app/Services/AssessmentEngine/WeightRepository.php)</title>
<path fill="none" stroke="black" d="M1892.31,-246.98C1911.82,-244.46 1931.89,-241.86 1951.56,-239.31"/>
<polygon fill="black" stroke="black" points="1952.03,-242.78 1961.5,-238.03 1951.13,-235.84 1952.03,-242.78"/>
</g>
<!-- WordNormalizer\n(app/Services/AssessmentEngine/WordNormalizer.php) -->
<g id="node16" class="node">
<title>WordNormalizer\n(app/Services/AssessmentEngine/WordNormalizer.php)</title>
<path fill="none" stroke="black" d="M2257.93,-294C2257.93,-294 1960.93,-294 1960.93,-294 1954.93,-294 1948.93,-288 1948.93,-282 1948.93,-282 1948.93,-268 1948.93,-268 1948.93,-262 1954.93,-256 1960.93,-256 1960.93,-256 2257.93,-256 2257.93,-256 2263.93,-256 2269.93,-262 2269.93,-268 2269.93,-268 2269.93,-282 2269.93,-282 2269.93,-288 2263.93,-294 2257.93,-294"/>
<text text-anchor="middle" x="2109.43" y="-278.8" font-family="Times,serif" font-size="14.00">WordNormalizer</text>
<text text-anchor="middle" x="2109.43" y="-263.8" font-family="Times,serif" font-size="14.00">(app/Services/AssessmentEngine/WordNormalizer.php)</text>
</g>
<!-- ScoreCalculator\n(app/Services/AssessmentEngine/ScoreCalculator.php)&#45;&gt;WordNormalizer\n(app/Services/AssessmentEngine/WordNormalizer.php) -->
<g id="edge19" class="edge">
<title>ScoreCalculator\n(app/Services/AssessmentEngine/ScoreCalculator.php)&#45;&gt;WordNormalizer\n(app/Services/AssessmentEngine/WordNormalizer.php)</title>
<path fill="none" stroke="black" d="M1902.03,-269.88C1914.09,-270.18 1926.31,-270.48 1938.46,-270.79"/>
<polygon fill="black" stroke="black" points="1938.55,-274.29 1948.64,-271.04 1938.73,-267.29 1938.55,-274.29"/>
</g>
<!-- algorithms (DB table) -->
<g id="node17" class="node">
<title>algorithms (DB table)</title>
<polygon fill="lightgrey" stroke="black" points="2445.93,-237 2308.93,-237 2308.93,-233 2304.93,-233 2304.93,-229 2308.93,-229 2308.93,-209 2304.93,-209 2304.93,-205 2308.93,-205 2308.93,-201 2445.93,-201 2445.93,-237"/>
<polyline fill="none" stroke="black" points="2308.93,-233 2312.93,-233 2312.93,-229 2308.93,-229 "/>
<polyline fill="none" stroke="black" points="2308.93,-209 2312.93,-209 2312.93,-205 2308.93,-205 "/>
<text text-anchor="middle" x="2377.43" y="-215.3" font-family="Times,serif" font-size="14.00">algorithms (DB table)</text>
</g>
<!-- WeightRepository\n(app/Services/AssessmentEngine/WeightRepository.php)&#45;&gt;algorithms (DB table) -->
<g id="edge20" class="edge">
<title>WeightRepository\n(app/Services/AssessmentEngine/WeightRepository.php)&#45;&gt;algorithms (DB table)</title>
<path fill="none" stroke="black" d="M2273.2,-219C2281.92,-219 2290.46,-219 2298.66,-219"/>
<polygon fill="black" stroke="black" points="2298.86,-222.5 2308.86,-219 2298.86,-215.5 2298.86,-222.5"/>
</g>
<!-- RecomputeAssessmentResults\n(app/Console/Commands/RecomputeAssessmentResults.php) -->
<g id="node18" class="node">
<title>RecomputeAssessmentResults\n(app/Console/Commands/RecomputeAssessmentResults.php)</title>
<path fill="none" stroke="black" d="M1205,-206C1205,-206 875,-206 875,-206 869,-206 863,-200 863,-194 863,-194 863,-180 863,-180 863,-174 869,-168 875,-168 875,-168 1205,-168 1205,-168 1211,-168 1217,-174 1217,-180 1217,-180 1217,-194 1217,-194 1217,-200 1211,-206 1205,-206"/>
<text text-anchor="middle" x="1040" y="-190.8" font-family="Times,serif" font-size="14.00">RecomputeAssessmentResults</text>
<text text-anchor="middle" x="1040" y="-175.8" font-family="Times,serif" font-size="14.00">(app/Console/Commands/RecomputeAssessmentResults.php)</text>
</g>
<!-- RecomputeAssessmentResults\n(app/Console/Commands/RecomputeAssessmentResults.php)&#45;&gt;AssessmentResponse\n(app/Models/AssessmentResponse.php) -->
<g id="edge22" class="edge">
<title>RecomputeAssessmentResults\n(app/Console/Commands/RecomputeAssessmentResults.php)&#45;&gt;AssessmentResponse\n(app/Models/AssessmentResponse.php)</title>
<path fill="none" stroke="black" d="M1217.35,-181.23C1325.82,-177.67 1464.16,-173.14 1571.76,-169.62"/>
<polygon fill="black" stroke="black" points="1572.2,-173.11 1582.08,-169.28 1571.97,-166.11 1572.2,-173.11"/>
</g>
<!-- RecomputeAssessmentResults\n(app/Console/Commands/RecomputeAssessmentResults.php)&#45;&gt;AssessmentCalculationService\n(app/Services/AssessmentCalculationService.php) -->
<g id="edge21" class="edge">
<title>RecomputeAssessmentResults\n(app/Console/Commands/RecomputeAssessmentResults.php)&#45;&gt;AssessmentCalculationService\n(app/Services/AssessmentCalculationService.php)</title>
<path fill="none" stroke="black" d="M1185.03,-206.02C1204.08,-208.53 1223.67,-211.12 1242.88,-213.65"/>
<polygon fill="black" stroke="black" points="1242.52,-217.14 1252.89,-214.97 1243.43,-210.2 1242.52,-217.14"/>
</g>
<!-- RecomputeAssessmentResults\n(app/Console/Commands/RecomputeAssessmentResults.php)&#45;&gt;AssessmentResult\n(app/Models/AssessmentResult.php) -->
<g id="edge23" class="edge">
<title>RecomputeAssessmentResults\n(app/Console/Commands/RecomputeAssessmentResults.php)&#45;&gt;AssessmentResult\n(app/Models/AssessmentResult.php)</title>
<path fill="none" stroke="black" d="M1199.53,-206.06C1205.57,-208.7 1211.42,-211.67 1217,-215 1239.6,-228.47 1230.26,-248.76 1253,-262 1354.09,-320.89 1486.31,-336.38 1587.99,-337.98"/>
<polygon fill="black" stroke="black" points="1588.01,-341.48 1598.05,-338.09 1588.09,-334.48 1588.01,-341.48"/>
</g>
<!-- CheckSubscriptionStatus\n(app/Http/Middleware/CheckSubscriptionStatus.php) -->
<g id="node19" class="node">
<title>CheckSubscriptionStatus\n(app/Http/Middleware/CheckSubscriptionStatus.php)</title>
<path fill="none" stroke="black" d="M815,-66C815,-66 533,-66 533,-66 527,-66 521,-60 521,-54 521,-54 521,-40 521,-40 521,-34 527,-28 533,-28 533,-28 815,-28 815,-28 821,-28 827,-34 827,-40 827,-40 827,-54 827,-54 827,-60 821,-66 815,-66"/>
<text text-anchor="middle" x="674" y="-50.8" font-family="Times,serif" font-size="14.00">CheckSubscriptionStatus</text>
<text text-anchor="middle" x="674" y="-35.8" font-family="Times,serif" font-size="14.00">(app/Http/Middleware/CheckSubscriptionStatus.php)</text>
</g>
<!-- CheckSubscriptionStatus\n(app/Http/Middleware/CheckSubscriptionStatus.php)&#45;&gt;SubscriptionController\n(app/Http/Controllers/SubscriptionController.php) -->
<g id="edge24" class="edge">
<title>CheckSubscriptionStatus\n(app/Http/Middleware/CheckSubscriptionStatus.php)&#45;&gt;SubscriptionController\n(app/Http/Controllers/SubscriptionController.php)</title>
<path fill="none" stroke="black" d="M827.26,-58.71C846.59,-60.2 866.37,-61.72 885.72,-63.21"/>
<polygon fill="black" stroke="black" points="885.55,-66.71 895.79,-63.98 886.08,-59.73 885.55,-66.71"/>
</g>
<!-- Subscription\n(app/Models/Subscription.php) -->
<g id="node20" class="node">
<title>Subscription\n(app/Models/Subscription.php)</title>
<path fill="none" stroke="black" d="M1121,-38C1121,-38 959,-38 959,-38 953,-38 947,-32 947,-26 947,-26 947,-12 947,-12 947,-6 953,0 959,0 959,0 1121,0 1121,0 1127,0 1133,-6 1133,-12 1133,-12 1133,-26 1133,-26 1133,-32 1127,-38 1121,-38"/>
<text text-anchor="middle" x="1040" y="-22.8" font-family="Times,serif" font-size="14.00">Subscription</text>
<text text-anchor="middle" x="1040" y="-7.8" font-family="Times,serif" font-size="14.00">(app/Models/Subscription.php)</text>
</g>
<!-- CheckSubscriptionStatus\n(app/Http/Middleware/CheckSubscriptionStatus.php)&#45;&gt;Subscription\n(app/Models/Subscription.php) -->
<g id="edge25" class="edge">
<title>CheckSubscriptionStatus\n(app/Http/Middleware/CheckSubscriptionStatus.php)&#45;&gt;Subscription\n(app/Models/Subscription.php)</title>
<path fill="none" stroke="black" d="M827.26,-35.29C864.07,-32.46 902.55,-29.5 936.45,-26.89"/>
<polygon fill="black" stroke="black" points="937.12,-30.35 946.82,-26.09 936.58,-23.37 937.12,-30.35"/>
</g>
<!-- Kernel\n(app/Http/Kernel.php) -->
<g id="node21" class="node">
<title>Kernel\n(app/Http/Kernel.php)</title>
<path fill="none" stroke="black" d="M299,-66C299,-66 186,-66 186,-66 180,-66 174,-60 174,-54 174,-54 174,-40 174,-40 174,-34 180,-28 186,-28 186,-28 299,-28 299,-28 305,-28 311,-34 311,-40 311,-40 311,-54 311,-54 311,-60 305,-66 299,-66"/>
<text text-anchor="middle" x="242.5" y="-50.8" font-family="Times,serif" font-size="14.00">Kernel</text>
<text text-anchor="middle" x="242.5" y="-35.8" font-family="Times,serif" font-size="14.00">(app/Http/Kernel.php)</text>
</g>
<!-- Kernel\n(app/Http/Kernel.php)&#45;&gt;CheckSubscriptionStatus\n(app/Http/Middleware/CheckSubscriptionStatus.php) -->
<g id="edge26" class="edge">
<title>Kernel\n(app/Http/Kernel.php)&#45;&gt;CheckSubscriptionStatus\n(app/Http/Middleware/CheckSubscriptionStatus.php)</title>
<path fill="none" stroke="black" d="M311.08,-47C364.56,-47 441.49,-47 510.69,-47"/>
<polygon fill="black" stroke="black" points="510.84,-50.5 520.84,-47 510.84,-43.5 510.84,-50.5"/>
</g>
<!-- Dolphin_Frontend/src/services/results.js -->
<g id="node22" class="node">
<title>Dolphin_Frontend/src/services/results.js</title>
<path fill="none" stroke="black" d="M348,-371C348,-371 137,-371 137,-371 131,-371 125,-365 125,-359 125,-359 125,-347 125,-347 125,-341 131,-335 137,-335 137,-335 348,-335 348,-335 354,-335 360,-341 360,-347 360,-347 360,-359 360,-359 360,-365 354,-371 348,-371"/>
<text text-anchor="middle" x="242.5" y="-349.3" font-family="Times,serif" font-size="14.00">Dolphin_Frontend/src/services/results.js</text>
</g>
<!-- /api/assessment&#45;results/user -->
<g id="node23" class="node">
<title>/api/assessment&#45;results/user</title>
<path fill="none" stroke="black" d="M745.5,-371C745.5,-371 602.5,-371 602.5,-371 596.5,-371 590.5,-365 590.5,-359 590.5,-359 590.5,-347 590.5,-347 590.5,-341 596.5,-335 602.5,-335 602.5,-335 745.5,-335 745.5,-335 751.5,-335 757.5,-341 757.5,-347 757.5,-347 757.5,-359 757.5,-359 757.5,-365 751.5,-371 745.5,-371"/>
<text text-anchor="middle" x="674" y="-349.3" font-family="Times,serif" font-size="14.00">/api/assessment&#45;results/user</text>
</g>
<!-- Dolphin_Frontend/src/services/results.js&#45;&gt;/api/assessment&#45;results/user -->
<g id="edge27" class="edge">
<title>Dolphin_Frontend/src/services/results.js&#45;&gt;/api/assessment&#45;results/user</title>
<path fill="none" stroke="black" d="M360.01,-353C429.22,-353 515.78,-353 580.32,-353"/>
<polygon fill="black" stroke="black" points="580.48,-356.5 590.48,-353 580.48,-349.5 580.48,-356.5"/>
</g>
<!-- Dolphin_Frontend/src/components/Common/Leads_Assessment/UserAssessment.vue -->
<g id="node24" class="node">
<title>Dolphin_Frontend/src/components/Common/Leads_Assessment/UserAssessment.vue</title>
<path fill="none" stroke="black" d="M473,-425C473,-425 12,-425 12,-425 6,-425 0,-419 0,-413 0,-413 0,-401 0,-401 0,-395 6,-389 12,-389 12,-389 473,-389 473,-389 479,-389 485,-395 485,-401 485,-401 485,-413 485,-413 485,-419 479,-425 473,-425"/>
<text text-anchor="middle" x="242.5" y="-403.3" font-family="Times,serif" font-size="14.00">Dolphin_Frontend/src/components/Common/Leads_Assessment/UserAssessment.vue</text>
</g>
<!-- /api/assessment&#45;responses -->
<g id="node25" class="node">
<title>/api/assessment&#45;responses</title>
<path fill="none" stroke="black" d="M741,-425C741,-425 607,-425 607,-425 601,-425 595,-419 595,-413 595,-413 595,-401 595,-401 595,-395 601,-389 607,-389 607,-389 741,-389 741,-389 747,-389 753,-395 753,-401 753,-401 753,-413 753,-413 753,-419 747,-425 741,-425"/>
<text text-anchor="middle" x="674" y="-403.3" font-family="Times,serif" font-size="14.00">/api/assessment&#45;responses</text>
</g>
<!-- Dolphin_Frontend/src/components/Common/Leads_Assessment/UserAssessment.vue&#45;&gt;/api/assessment&#45;responses -->
<g id="edge28" class="edge">
<title>Dolphin_Frontend/src/components/Common/Leads_Assessment/UserAssessment.vue&#45;&gt;/api/assessment&#45;responses</title>
<path fill="none" stroke="black" d="M485.24,-407C520.73,-407 555.22,-407 584.75,-407"/>
<polygon fill="black" stroke="black" points="584.99,-410.5 594.99,-407 584.99,-403.5 584.99,-410.5"/>
</g>
<!-- Dolphin_Frontend/src/components/Common/Dashboard/UserGraphs.vue -->
<g id="node26" class="node">
<title>Dolphin_Frontend/src/components/Common/Dashboard/UserGraphs.vue</title>
<path fill="none" stroke="black" d="M438,-317C438,-317 47,-317 47,-317 41,-317 35,-311 35,-305 35,-305 35,-293 35,-293 35,-287 41,-281 47,-281 47,-281 438,-281 438,-281 444,-281 450,-287 450,-293 450,-293 450,-305 450,-305 450,-311 444,-317 438,-317"/>
<text text-anchor="middle" x="242.5" y="-295.3" font-family="Times,serif" font-size="14.00">Dolphin_Frontend/src/components/Common/Dashboard/UserGraphs.vue</text>
</g>
<!-- Dolphin_Frontend/src/components/Common/Dashboard/UserGraphs.vue&#45;&gt;/api/assessment&#45;results/user -->
<g id="edge29" class="edge">
<title>Dolphin_Frontend/src/components/Common/Dashboard/UserGraphs.vue&#45;&gt;/api/assessment&#45;results/user</title>
<path fill="none" stroke="black" d="M410.85,-317.02C435.72,-319.9 461.04,-322.94 485,-326 516,-329.96 549.82,-334.69 580.12,-339.07"/>
<polygon fill="black" stroke="black" points="579.85,-342.57 590.25,-340.55 580.86,-335.64 579.85,-342.57"/>
</g>
</g>
</svg>
